M48
;DRILL file {KiCad (5.0.2)-1} date 2019-11-19 오전 1:28:40
;FORMAT={-:-/ absolute / metric / decimal}
FMAT,2
METRIC,TZ
T1C0.400
T2C0.500
T3C0.600
T4C0.650
T5C0.762
T6C0.800
T7C1.000
T8C1.016
T9C1.020
T10C2.000
T11C3.000
T12C3.500
T13C4.000
%
G90
G05
T1
X34.798Y-96.266
X34.798Y-107.696
X37.084Y-77.47
X37.338Y-68.326
X37.592Y-78.74
X38.1Y-69.088
X38.862Y-70.104
X39.624Y-70.991
X39.624Y-105.156
X39.878Y-93.472
X40.64Y-67.31
X41.402Y-68.58
X42.164Y-69.85
X42.926Y-70.866
X44.45Y-77.978
X45.212Y-71.12
X45.974Y-77.47
X46.736Y-36.576
X47.244Y-26.416
X47.244Y-28.448
X52.832Y-117.348
X60.452Y-141.986
X61.214Y-101.346
X63.491Y-102.861
X63.491Y-109.465
X72.644Y-36.068
X72.644Y-37.338
X72.644Y-38.608
X72.898Y-40.132
X73.66Y-25.908
X73.66Y-28.194
X77.724Y-106.045
X77.803Y-100.124
X82.776Y-107.085
X88.27Y-94.874
X90.17Y-93.98
X93.65Y-117.729
X93.98Y-93.218
X94.361Y-154.559
X94.742Y-134.366
X96.815Y-93.156
X101.854Y-121.996
X101.854Y-136.906
X103.124Y-139.446
X103.353Y-123.114
X105.41Y-56.134
X106.356Y-55.419
X106.939Y-34.798
X107.188Y-36.068
X107.188Y-54.61
X108.458Y-36.068
X110.261Y-119.507
X113.538Y-96.012
X115.113Y-117.754
X117.348Y-96.774
X128.27Y-87.376
X128.778Y-96.774
X129.032Y-93.472
X129.032Y-95.758
X129.216Y-75.899
X129.281Y-94.747
X129.54Y-87.63
X129.794Y-77.47
X130.302Y-164.338
X130.556Y-163.322
X131.064Y-162.052
X131.064Y-46.274
X131.318Y-94.234
X134.039Y-34.151
X134.874Y-39.79
X135.128Y-90.932
X135.89Y-50.8
X135.89Y-73.152
X136.652Y-35.052
X136.906Y-53.086
X136.906Y-71.882
X137.16Y-51.562
X137.414Y-38.1
X137.668Y-69.088
X137.922Y-75.946
X137.922Y-77.47
X138.175Y-46.26
X138.684Y-50.292
X139.7Y-35.814
X139.7Y-48.514
X143.002Y-92.71
X143.51Y-113.284
X144.223Y-42.712
X144.272Y-40.64
X144.272Y-92.202
X144.78Y-110.49
X145.034Y-78.232
X145.034Y-80.264
X145.034Y-82.296
X145.288Y-75.946
X148.59Y-81.788
X151.892Y-74.93
X153.67Y-74.676
X154.178Y-80.772
X155.448Y-75.692
X156.972Y-49.784
X156.972Y-51.054
X156.972Y-52.324
X156.972Y-53.34
X172.974Y-46.228
X173.482Y-115.824
X173.736Y-114.554
X173.99Y-43.18
X175.006Y-40.64
X175.006Y-114.554
X175.976Y-38.208
X176.022Y-113.284
X176.784Y-35.814
X177.292Y-112.268
X188.214Y-37.592
X188.976Y-32.258
X189.23Y-39.878
X190.5Y-31.242
X194.818Y-27.686
X207.518Y-35.56
X207.772Y-72.898
X208.788Y-84.074
X208.872Y-45.197
X209.296Y-73.152
X210.058Y-41.656
X210.058Y-72.39
X210.566Y-32.258
X211.074Y-31.242
X211.074Y-45.466
X211.201Y-85.09
X211.201Y-87.376
X212.344Y-51.308
X216.281Y-82.042
X216.916Y-116.586
X217.17Y-94.742
X217.678Y-145.034
X217.932Y-115.57
X218.405Y-119.38
X218.694Y-114.554
X218.948Y-44.45
X219.202Y-122.428
X219.202Y-147.574
X219.202Y-147.574
X219.456Y-74.168
X220.218Y-113.792
X220.218Y-124.968
X220.218Y-150.114
X220.98Y-112.522
X221.488Y-88.392
X221.488Y-127.508
X221.488Y-152.908
X222.504Y-87.376
X223.266Y-75.692
X223.774Y-85.598
X224.028Y-79.248
X224.79Y-97.536
X225.806Y-84.328
X232.639Y-127.686
X232.664Y-73.66
X232.664Y-82.042
X232.664Y-152.146
X233.426Y-72.39
X233.909Y-154.076
X233.934Y-78.74
X233.985Y-129.591
X244.348Y-26.416
X245.11Y-34.544
X302.514Y-57.15
X302.514Y-58.674
X304.038Y-57.15
X304.038Y-58.674
T2
X152.908Y-29.718
T4
X108.458Y-117.002
X108.458Y-118.252
X108.458Y-119.502
X108.458Y-120.752
X108.458Y-122.002
X108.458Y-123.252
X108.458Y-124.502
X213.36Y-80.772
X213.36Y-82.042
X213.36Y-83.312
X213.36Y-84.582
X213.36Y-85.852
X214.63Y-80.772
X214.63Y-82.042
X214.63Y-83.312
X214.63Y-84.582
X214.63Y-85.852
T5
X242.094Y-36.322
X242.094Y-97.282
X256.794Y-36.322
X256.794Y-97.282
X275.368Y-36.322
X275.368Y-97.282
X290.068Y-36.322
X290.068Y-97.282
X147.32Y-71.12
X147.32Y-73.66
X147.32Y-76.2
X147.32Y-78.74
X149.86Y-71.12
X149.86Y-73.66
X149.86Y-76.2
X149.86Y-78.74
T6
X243.332Y-124.206
X243.332Y-126.206
X243.332Y-128.206
X243.332Y-130.206
X243.332Y-148.59
X243.332Y-150.59
X243.332Y-152.59
X243.332Y-154.59
T7
X142.24Y-30.48
X64.262Y-27.178
X66.802Y-27.178
X215.9Y-29.718
X218.44Y-29.718
X229.805Y-90.241
X229.805Y-92.781
X229.805Y-95.321
X229.805Y-97.861
X59.944Y-87.376
X59.944Y-89.916
X234.696Y-158.75
X157.48Y-43.18
X106.68Y-88.9
X115.57Y-133.35
X115.57Y-135.89
X115.57Y-138.43
X115.57Y-140.97
X115.57Y-143.51
X115.57Y-146.05
X115.57Y-148.59
X302.895Y-50.8
X305.435Y-50.8
X139.909Y-157.784
X139.909Y-160.324
X292.1Y-104.14
X139.7Y-30.48
X201.93Y-66.04
X158.496Y-78.232
X114.046Y-86.36
X114.046Y-88.9
X44.704Y-95.758
X221.488Y-64.262
X129.54Y-71.882
X87.63Y-26.67
X254.762Y-28.448
X158.496Y-80.772
X163.83Y-98.552
X163.83Y-101.092
X163.83Y-103.632
X163.83Y-106.172
X163.83Y-108.712
X163.83Y-111.252
X163.83Y-113.792
X163.83Y-116.332
X109.22Y-88.9
X136.099Y-157.784
X136.099Y-160.324
X226.314Y-75.438
X228.854Y-75.438
X146.05Y-88.392
X146.05Y-90.932
X155.448Y-68.072
X157.988Y-68.072
X174.625Y-119.38
X120.396Y-104.394
X137.16Y-30.48
X64.262Y-87.376
X64.262Y-89.916
X76.2Y-26.67
X134.62Y-30.48
X132.08Y-30.48
X87.63Y-88.9
X48.514Y-87.63
X48.514Y-90.17
X44.704Y-87.63
X44.704Y-90.17
X44.196Y-27.686
X157.48Y-35.56
X83.82Y-26.67
X93.98Y-88.9
X157.48Y-40.64
X96.52Y-88.9
X90.17Y-88.9
X150.562Y-157.784
X150.562Y-160.324
X48.514Y-95.758
X189.23Y-66.675
X150.368Y-88.392
X150.368Y-90.932
X44.958Y-101.6
X147.32Y-35.56
X147.32Y-38.1
X147.32Y-40.64
X147.32Y-43.18
X147.32Y-45.72
X147.32Y-48.26
X147.32Y-50.8
X147.32Y-53.34
X147.32Y-55.88
X147.32Y-58.42
X149.86Y-35.56
X149.86Y-38.1
X149.86Y-40.64
X149.86Y-43.18
X149.86Y-45.72
X149.86Y-48.26
X149.86Y-50.8
X149.86Y-53.34
X149.86Y-55.88
X149.86Y-58.42
X150.114Y-125.222
X80.01Y-26.67
X157.48Y-38.1
X102.87Y-88.9
X226.314Y-82.55
X228.854Y-82.55
X146.752Y-157.784
X146.752Y-160.324
X100.33Y-88.9
X56.642Y-27.178
X59.182Y-27.178
X113.538Y-104.14
X144.78Y-30.48
X182.88Y-35.56
X182.88Y-38.1
X182.88Y-40.64
X182.88Y-43.18
X182.88Y-45.72
X182.88Y-48.26
X182.88Y-50.8
X182.88Y-53.34
X182.88Y-55.88
X182.88Y-58.42
X185.42Y-35.56
X185.42Y-38.1
X185.42Y-40.64
X185.42Y-43.18
X185.42Y-45.72
X185.42Y-48.26
X185.42Y-50.8
X185.42Y-53.34
X185.42Y-55.88
X185.42Y-58.42
X279.4Y-104.14
X158.496Y-83.312
X226.314Y-79.248
X228.854Y-79.248
X155.448Y-72.136
X157.988Y-72.136
X118.11Y-86.36
X118.11Y-88.9
T8
X45.466Y-80.645
X48.006Y-80.645
X50.546Y-80.645
X53.086Y-80.645
X54.61Y-32.385
X55.626Y-80.645
X57.15Y-32.385
X58.166Y-80.645
X59.69Y-32.385
X60.706Y-80.645
X62.23Y-32.385
X63.246Y-80.645
X64.77Y-32.385
X65.786Y-80.645
X67.31Y-32.385
X68.326Y-80.645
X69.85Y-32.385
X72.39Y-32.385
X72.39Y-80.645
X74.93Y-80.645
X77.47Y-32.385
X77.47Y-80.645
X80.01Y-32.385
X80.01Y-80.645
X82.55Y-32.385
X82.55Y-80.645
X85.09Y-32.385
X85.09Y-80.645
X87.63Y-32.385
X87.63Y-80.645
X90.17Y-32.385
X90.17Y-80.645
X90.297Y-55.245
X90.297Y-57.785
X90.297Y-60.325
X92.71Y-32.385
X92.837Y-55.245
X92.837Y-57.785
X92.837Y-60.325
X95.25Y-32.385
X95.25Y-80.645
X97.79Y-80.645
X100.33Y-32.385
X100.33Y-80.645
X102.87Y-32.385
X102.87Y-80.645
X105.41Y-32.385
X105.41Y-80.645
X107.95Y-32.385
X107.95Y-80.645
X110.49Y-32.385
X110.49Y-80.645
X113.03Y-32.385
X113.03Y-80.645
X115.57Y-32.385
X118.11Y-32.385
X120.65Y-37.465
X120.65Y-40.005
X120.65Y-42.545
X120.65Y-45.085
X120.65Y-47.625
X120.65Y-50.165
X120.65Y-52.705
X120.65Y-55.245
X120.65Y-57.785
X120.65Y-60.325
X120.65Y-62.865
X120.65Y-65.405
X120.65Y-67.945
X120.65Y-70.485
X120.65Y-73.025
X120.65Y-75.565
X120.65Y-78.105
X120.65Y-80.645
X123.19Y-37.465
X123.19Y-40.005
X123.19Y-42.545
X123.19Y-45.085
X123.19Y-47.625
X123.19Y-50.165
X123.19Y-52.705
X123.19Y-55.245
X123.19Y-57.785
X123.19Y-60.325
X123.19Y-62.865
X123.19Y-65.405
X123.19Y-67.945
X123.19Y-70.485
X123.19Y-73.025
X123.19Y-75.565
X123.19Y-78.105
X123.19Y-80.645
T9
X203.708Y-37.084
X203.708Y-39.624
X203.708Y-42.164
X203.708Y-44.704
X203.708Y-47.244
X203.708Y-49.784
X224.79Y-145.796
X224.79Y-148.336
X224.79Y-150.876
X224.79Y-153.416
X224.79Y-155.956
X224.79Y-158.496
X214.63Y-36.068
X214.63Y-38.608
X214.63Y-41.148
X214.63Y-43.688
X214.63Y-46.228
X214.63Y-48.768
X214.63Y-51.308
X214.63Y-53.848
X78.918Y-145.542
X78.918Y-148.082
X78.918Y-150.622
X78.918Y-153.162
X108.458Y-143.002
X108.458Y-145.542
X108.458Y-148.082
X108.458Y-150.622
X108.458Y-153.162
X67.056Y-118.618
X67.056Y-121.158
X67.056Y-123.698
X67.056Y-126.238
X150.495Y-139.7
X150.495Y-142.24
X150.495Y-144.78
X150.495Y-147.32
X224.79Y-120.396
X224.79Y-122.936
X224.79Y-125.476
X224.79Y-128.016
X224.79Y-130.556
X224.79Y-133.096
X67.056Y-141.986
X67.056Y-144.526
X67.056Y-147.066
X67.056Y-149.606
T10
X75.798Y-111.252
X75.798Y-130.252
T11
X98.298Y-111.252
X98.298Y-130.252
T12
X306.332Y-127.206
X306.332Y-151.59
T13
X176.48Y-74.752
X217.48Y-107.752
T3
X306.04Y-55.455G85X304.94Y-55.455
G05
X306.04Y-62.655G85X304.94Y-62.655
G05
X309.59Y-55.455G85X308.49Y-55.455
G05
X309.59Y-62.655G85X308.49Y-62.655
G05
T7
X305.435Y-44.18G85X305.435Y-42.18
G05
X309.435Y-38.48G85X307.435Y-38.48
G05
X311.435Y-44.18G85X311.435Y-42.18
G05
T0
M30
