%TF.GenerationSoftware,KiCad,Pcbnew,(5.0.2)-1*%
%TF.CreationDate,2019-11-19T01:28:37+09:00*%
%TF.ProjectId,sensor_board,73656e73-6f72-45f6-926f-6172642e6b69,rev?*%
%TF.SameCoordinates,Original*%
%TF.FileFunction,Legend,Bot*%
%TF.FilePolarity,Positive*%
%FSLAX46Y46*%
G04 Gerber Fmt 4.6, Leading zero omitted, Abs format (unit mm)*
G04 Created by KiCad (PCBNEW (5.0.2)-1) date 2019-11-19 오전 1:28:37*
%MOMM*%
%LPD*%
G01*
G04 APERTURE LIST*
%ADD10C,0.100000*%
%ADD11C,0.500000*%
%ADD12C,0.150000*%
%ADD13C,0.120000*%
G04 APERTURE END LIST*
D10*
X137160000Y-134620000D02*
X137160000Y-152400000D01*
X137160000Y-152400000D02*
X134620000Y-152400000D01*
X134620000Y-152400000D02*
X134620000Y-134620000D01*
X134620000Y-134620000D02*
X137160000Y-134620000D01*
X58420000Y-137160000D02*
X58420000Y-154940000D01*
X58420000Y-154940000D02*
X55880000Y-154940000D01*
X55880000Y-137160000D02*
X58420000Y-137160000D01*
X55880000Y-154940000D02*
X55880000Y-137160000D01*
X292100000Y-25400000D02*
X309880000Y-25400000D01*
X309880000Y-25400000D02*
X309880000Y-27940000D01*
X292100000Y-27940000D02*
X292100000Y-25400000D01*
X309880000Y-27940000D02*
X292100000Y-27940000D01*
X269240000Y-25400000D02*
X287020000Y-25400000D01*
X287020000Y-25400000D02*
X287020000Y-27940000D01*
X269240000Y-27940000D02*
X269240000Y-25400000D01*
X287020000Y-27940000D02*
X269240000Y-27940000D01*
X269240000Y-60960000D02*
X287020000Y-60960000D01*
X287020000Y-60960000D02*
X287020000Y-63500000D01*
X269240000Y-63500000D02*
X269240000Y-60960000D01*
X287020000Y-63500000D02*
X269240000Y-63500000D01*
X261620000Y-109220000D02*
X279400000Y-109220000D01*
X279400000Y-109220000D02*
X279400000Y-111760000D01*
X261620000Y-111760000D02*
X261620000Y-109220000D01*
X279400000Y-111760000D02*
X261620000Y-111760000D01*
X236220000Y-109220000D02*
X254000000Y-109220000D01*
X254000000Y-109220000D02*
X254000000Y-111760000D01*
X236220000Y-111760000D02*
X236220000Y-109220000D01*
X254000000Y-111760000D02*
X236220000Y-111760000D01*
X259080000Y-88900000D02*
X259080000Y-71120000D01*
X259080000Y-71120000D02*
X261620000Y-71120000D01*
X261620000Y-88900000D02*
X259080000Y-88900000D01*
X261620000Y-71120000D02*
X261620000Y-88900000D01*
X309880000Y-160020000D02*
X309880000Y-142240000D01*
X309880000Y-142240000D02*
X312420000Y-142240000D01*
X312420000Y-160020000D02*
X309880000Y-160020000D01*
X312420000Y-142240000D02*
X312420000Y-160020000D01*
X205740000Y-142240000D02*
X205740000Y-160020000D01*
X205740000Y-160020000D02*
X203200000Y-160020000D01*
X203200000Y-142240000D02*
X205740000Y-142240000D01*
X203200000Y-160020000D02*
X203200000Y-142240000D01*
X182880000Y-78740000D02*
X200660000Y-78740000D01*
X200660000Y-78740000D02*
X200660000Y-81280000D01*
X182880000Y-81280000D02*
X182880000Y-78740000D01*
X200660000Y-81280000D02*
X182880000Y-81280000D01*
X236220000Y-60960000D02*
X254000000Y-60960000D01*
X254000000Y-60960000D02*
X254000000Y-63500000D01*
X236220000Y-63500000D02*
X236220000Y-60960000D01*
X254000000Y-63500000D02*
X236220000Y-63500000D01*
X121920000Y-114300000D02*
X121920000Y-132080000D01*
X121920000Y-132080000D02*
X119380000Y-132080000D01*
X119380000Y-132080000D02*
X119380000Y-114300000D01*
X119380000Y-114300000D02*
X121920000Y-114300000D01*
X127000000Y-134620000D02*
X127000000Y-152400000D01*
X127000000Y-152400000D02*
X124460000Y-152400000D01*
X124460000Y-152400000D02*
X124460000Y-134620000D01*
X124460000Y-134620000D02*
X127000000Y-134620000D01*
X160020000Y-142240000D02*
X160020000Y-160020000D01*
X160020000Y-160020000D02*
X157480000Y-160020000D01*
X157480000Y-160020000D02*
X157480000Y-142240000D01*
X157480000Y-142240000D02*
X160020000Y-142240000D01*
X88900000Y-139700000D02*
X88900000Y-157480000D01*
X88900000Y-157480000D02*
X86360000Y-157480000D01*
X86360000Y-157480000D02*
X86360000Y-139700000D01*
X86360000Y-139700000D02*
X88900000Y-139700000D01*
X83820000Y-114300000D02*
X83820000Y-132080000D01*
X83820000Y-132080000D02*
X81280000Y-132080000D01*
X81280000Y-132080000D02*
X81280000Y-114300000D01*
X81280000Y-114300000D02*
X83820000Y-114300000D01*
X114300000Y-45720000D02*
X114300000Y-63500000D01*
X114300000Y-63500000D02*
X111760000Y-63500000D01*
X111760000Y-63500000D02*
X111760000Y-45720000D01*
X111760000Y-45720000D02*
X114300000Y-45720000D01*
X86360000Y-45720000D02*
X86360000Y-63500000D01*
X86360000Y-63500000D02*
X83820000Y-63500000D01*
X83820000Y-63500000D02*
X83820000Y-45720000D01*
X83820000Y-45720000D02*
X86360000Y-45720000D01*
X78740000Y-45720000D02*
X78740000Y-63500000D01*
X78740000Y-63500000D02*
X76200000Y-63500000D01*
X76200000Y-63500000D02*
X76200000Y-45720000D01*
X76200000Y-45720000D02*
X78740000Y-45720000D01*
X302260000Y-142240000D02*
X302260000Y-160020000D01*
X302260000Y-160020000D02*
X299720000Y-160020000D01*
X299720000Y-160020000D02*
X299720000Y-142240000D01*
X299720000Y-142240000D02*
X302260000Y-142240000D01*
X292100000Y-142240000D02*
X292100000Y-160020000D01*
X292100000Y-160020000D02*
X289560000Y-160020000D01*
X289560000Y-160020000D02*
X289560000Y-142240000D01*
X289560000Y-142240000D02*
X292100000Y-142240000D01*
X297180000Y-93980000D02*
X297180000Y-111760000D01*
X297180000Y-111760000D02*
X294640000Y-111760000D01*
X294640000Y-111760000D02*
X294640000Y-93980000D01*
X294640000Y-93980000D02*
X297180000Y-93980000D01*
X307340000Y-93980000D02*
X307340000Y-111760000D01*
X307340000Y-111760000D02*
X304800000Y-111760000D01*
X304800000Y-111760000D02*
X304800000Y-93980000D01*
X304800000Y-93980000D02*
X307340000Y-93980000D01*
X312420000Y-71120000D02*
X312420000Y-88900000D01*
X312420000Y-88900000D02*
X309880000Y-88900000D01*
X309880000Y-88900000D02*
X309880000Y-71120000D01*
X309880000Y-71120000D02*
X312420000Y-71120000D01*
X66040000Y-45720000D02*
X66040000Y-63500000D01*
X66040000Y-63500000D02*
X63500000Y-63500000D01*
X48260000Y-45720000D02*
X50800000Y-45720000D01*
X50800000Y-63500000D02*
X48260000Y-63500000D01*
X63500000Y-63500000D02*
X63500000Y-45720000D01*
X50800000Y-45720000D02*
X50800000Y-63500000D01*
X48260000Y-63500000D02*
X48260000Y-45720000D01*
X63500000Y-45720000D02*
X66040000Y-45720000D01*
X55880000Y-63500000D02*
X55880000Y-45720000D01*
X55880000Y-45720000D02*
X58420000Y-45720000D01*
X58420000Y-45720000D02*
X58420000Y-63500000D01*
X58420000Y-63500000D02*
X55880000Y-63500000D01*
X33020000Y-162560000D02*
X50800000Y-162560000D01*
X50800000Y-162560000D02*
X50800000Y-165100000D01*
X88900000Y-165100000D02*
X88900000Y-162560000D01*
X106680000Y-162560000D02*
X106680000Y-165100000D01*
X50800000Y-165100000D02*
X33020000Y-165100000D01*
X88900000Y-162560000D02*
X106680000Y-162560000D01*
X106680000Y-165100000D02*
X88900000Y-165100000D01*
X33020000Y-165100000D02*
X33020000Y-162560000D01*
X78740000Y-165100000D02*
X60960000Y-165100000D01*
X60960000Y-165100000D02*
X60960000Y-162560000D01*
X60960000Y-162560000D02*
X78740000Y-162560000D01*
X78740000Y-162560000D02*
X78740000Y-165100000D01*
X279400000Y-160020000D02*
X279400000Y-142240000D01*
X279400000Y-142240000D02*
X281940000Y-142240000D01*
X281940000Y-142240000D02*
X281940000Y-160020000D01*
X281940000Y-160020000D02*
X279400000Y-160020000D01*
X271780000Y-142240000D02*
X271780000Y-160020000D01*
X271780000Y-160020000D02*
X269240000Y-160020000D01*
X259080000Y-142240000D02*
X261620000Y-142240000D01*
X261620000Y-160020000D02*
X259080000Y-160020000D01*
X269240000Y-160020000D02*
X269240000Y-142240000D01*
X261620000Y-142240000D02*
X261620000Y-160020000D01*
X259080000Y-160020000D02*
X259080000Y-142240000D01*
X269240000Y-142240000D02*
X271780000Y-142240000D01*
X297180000Y-119380000D02*
X297180000Y-137160000D01*
X297180000Y-137160000D02*
X294640000Y-137160000D01*
X274320000Y-119380000D02*
X276860000Y-119380000D01*
X276860000Y-137160000D02*
X274320000Y-137160000D01*
X294640000Y-137160000D02*
X294640000Y-119380000D01*
X276860000Y-119380000D02*
X276860000Y-137160000D01*
X274320000Y-137160000D02*
X274320000Y-119380000D01*
X294640000Y-119380000D02*
X297180000Y-119380000D01*
X284480000Y-137160000D02*
X284480000Y-119380000D01*
X284480000Y-119380000D02*
X287020000Y-119380000D01*
X287020000Y-119380000D02*
X287020000Y-137160000D01*
X287020000Y-137160000D02*
X284480000Y-137160000D01*
X266700000Y-119380000D02*
X266700000Y-137160000D01*
X266700000Y-137160000D02*
X264160000Y-137160000D01*
X254000000Y-119380000D02*
X256540000Y-119380000D01*
X256540000Y-137160000D02*
X254000000Y-137160000D01*
X264160000Y-137160000D02*
X264160000Y-119380000D01*
X256540000Y-119380000D02*
X256540000Y-137160000D01*
X254000000Y-137160000D02*
X254000000Y-119380000D01*
X264160000Y-119380000D02*
X266700000Y-119380000D01*
X195580000Y-142240000D02*
X195580000Y-160020000D01*
X195580000Y-160020000D02*
X193040000Y-160020000D01*
X182880000Y-142240000D02*
X185420000Y-142240000D01*
X185420000Y-160020000D02*
X182880000Y-160020000D01*
X193040000Y-160020000D02*
X193040000Y-142240000D01*
X185420000Y-142240000D02*
X185420000Y-160020000D01*
X182880000Y-160020000D02*
X182880000Y-142240000D01*
X193040000Y-142240000D02*
X195580000Y-142240000D01*
X200660000Y-119380000D02*
X200660000Y-137160000D01*
X200660000Y-137160000D02*
X198120000Y-137160000D01*
X177800000Y-119380000D02*
X180340000Y-119380000D01*
X180340000Y-137160000D02*
X177800000Y-137160000D01*
X198120000Y-137160000D02*
X198120000Y-119380000D01*
X180340000Y-119380000D02*
X180340000Y-137160000D01*
X177800000Y-137160000D02*
X177800000Y-119380000D01*
X198120000Y-119380000D02*
X200660000Y-119380000D01*
X187960000Y-137160000D02*
X187960000Y-119380000D01*
X187960000Y-119380000D02*
X190500000Y-119380000D01*
X190500000Y-119380000D02*
X190500000Y-137160000D01*
X190500000Y-137160000D02*
X187960000Y-137160000D01*
X48260000Y-137160000D02*
X48260000Y-154940000D01*
X48260000Y-154940000D02*
X45720000Y-154940000D01*
X25400000Y-137160000D02*
X27940000Y-137160000D01*
X27940000Y-154940000D02*
X25400000Y-154940000D01*
X45720000Y-154940000D02*
X45720000Y-137160000D01*
X27940000Y-137160000D02*
X27940000Y-154940000D01*
X25400000Y-154940000D02*
X25400000Y-137160000D01*
X45720000Y-137160000D02*
X48260000Y-137160000D01*
X35560000Y-154940000D02*
X35560000Y-137160000D01*
X35560000Y-137160000D02*
X38100000Y-137160000D01*
X38100000Y-137160000D02*
X38100000Y-154940000D01*
X38100000Y-154940000D02*
X35560000Y-154940000D01*
X30480000Y-114300000D02*
X33020000Y-114300000D01*
X33020000Y-132080000D02*
X30480000Y-132080000D01*
X33020000Y-114300000D02*
X33020000Y-132080000D01*
X30480000Y-132080000D02*
X30480000Y-114300000D01*
X40640000Y-132080000D02*
X40640000Y-114300000D01*
X40640000Y-114300000D02*
X43180000Y-114300000D01*
X43180000Y-114300000D02*
X43180000Y-132080000D01*
X43180000Y-132080000D02*
X40640000Y-132080000D01*
X157480000Y-119380000D02*
X157480000Y-137160000D01*
X157480000Y-137160000D02*
X154940000Y-137160000D01*
X132080000Y-101600000D02*
X134620000Y-101600000D01*
X134620000Y-119380000D02*
X132080000Y-119380000D01*
X154940000Y-137160000D02*
X154940000Y-119380000D01*
X134620000Y-101600000D02*
X134620000Y-119380000D01*
X132080000Y-119380000D02*
X132080000Y-101600000D01*
X154940000Y-119380000D02*
X157480000Y-119380000D01*
X139700000Y-119126000D02*
X139700000Y-101346000D01*
X139700000Y-101346000D02*
X142240000Y-101346000D01*
X142240000Y-101346000D02*
X142240000Y-119126000D01*
X142240000Y-119126000D02*
X139700000Y-119126000D01*
X205740000Y-91440000D02*
X205740000Y-109220000D01*
X205740000Y-109220000D02*
X203200000Y-109220000D01*
X203200000Y-109220000D02*
X203200000Y-91440000D01*
X203200000Y-91440000D02*
X205740000Y-91440000D01*
X182880000Y-91440000D02*
X185420000Y-91440000D01*
X185420000Y-91440000D02*
X185420000Y-109220000D01*
X182880000Y-109220000D02*
X182880000Y-91440000D01*
X185420000Y-109220000D02*
X182880000Y-109220000D01*
X195580000Y-91440000D02*
X195580000Y-109220000D01*
X193040000Y-109220000D02*
X193040000Y-91440000D01*
X195580000Y-109220000D02*
X193040000Y-109220000D01*
X193040000Y-91440000D02*
X195580000Y-91440000D01*
X269240000Y-53340000D02*
X269240000Y-50800000D01*
X269240000Y-50800000D02*
X287020000Y-50800000D01*
X287020000Y-53340000D02*
X269240000Y-53340000D01*
X287020000Y-50800000D02*
X287020000Y-53340000D01*
X236220000Y-53340000D02*
X236220000Y-50800000D01*
X236220000Y-50800000D02*
X254000000Y-50800000D01*
X254000000Y-53340000D02*
X236220000Y-53340000D01*
X254000000Y-50800000D02*
X254000000Y-53340000D01*
X236220000Y-43180000D02*
X236220000Y-40640000D01*
X236220000Y-40640000D02*
X254000000Y-40640000D01*
X254000000Y-43180000D02*
X236220000Y-43180000D01*
X254000000Y-40640000D02*
X254000000Y-43180000D01*
X299720000Y-71120000D02*
X302260000Y-71120000D01*
X302260000Y-71120000D02*
X302260000Y-88900000D01*
X299720000Y-88900000D02*
X299720000Y-71120000D01*
X302260000Y-88900000D02*
X299720000Y-88900000D01*
X289560000Y-71120000D02*
X292100000Y-71120000D01*
X292100000Y-71120000D02*
X292100000Y-88900000D01*
X289560000Y-88900000D02*
X289560000Y-71120000D01*
X292100000Y-88900000D02*
X289560000Y-88900000D01*
X279400000Y-71120000D02*
X281940000Y-71120000D01*
X281940000Y-71120000D02*
X281940000Y-88900000D01*
X279400000Y-88900000D02*
X279400000Y-71120000D01*
X281940000Y-88900000D02*
X279400000Y-88900000D01*
X269240000Y-71120000D02*
X271780000Y-71120000D01*
X271780000Y-71120000D02*
X271780000Y-88900000D01*
X269240000Y-88900000D02*
X269240000Y-71120000D01*
X271780000Y-88900000D02*
X269240000Y-88900000D01*
X248920000Y-71120000D02*
X251460000Y-71120000D01*
X251460000Y-71120000D02*
X251460000Y-88900000D01*
X248920000Y-88900000D02*
X248920000Y-71120000D01*
X251460000Y-88900000D02*
X248920000Y-88900000D01*
X238760000Y-88900000D02*
X238760000Y-71120000D01*
X241300000Y-88900000D02*
X238760000Y-88900000D01*
X238760000Y-71120000D02*
X241300000Y-71120000D01*
X241300000Y-71120000D02*
X241300000Y-88900000D01*
X171000000Y-169000000D02*
X169000000Y-169000000D01*
X171000000Y-21000000D02*
X169000000Y-21000000D01*
X171000000Y-21000000D02*
X171000000Y-169000000D01*
X169000000Y-21000000D02*
X169000000Y-169000000D01*
D11*
X320000000Y-20000000D02*
X320000000Y-170000000D01*
X20000000Y-170000000D02*
X320000000Y-170000000D01*
X20000000Y-20000000D02*
X320000000Y-20000000D01*
X20000000Y-20000000D02*
X20000000Y-170000000D01*
D12*
X26670000Y-83185000D02*
X26670000Y-29845000D01*
X125730000Y-70485000D02*
X125730000Y-81661000D01*
X128270000Y-67945000D02*
X125730000Y-70485000D01*
X128270000Y-33655000D02*
X128270000Y-67945000D01*
X125730000Y-31115000D02*
X128270000Y-33655000D01*
X125730000Y-29845000D02*
X125730000Y-31115000D01*
X124206000Y-83185000D02*
X125730000Y-81661000D01*
X26670000Y-29845000D02*
X125730000Y-29845000D01*
X26670000Y-83185000D02*
X124206000Y-83185000D01*
D13*
X188549598Y-59168917D02*
X189072102Y-59168917D01*
X188549598Y-57748917D02*
X189072102Y-57748917D01*
X153907748Y-57710000D02*
X154430252Y-57710000D01*
X153907748Y-59130000D02*
X154430252Y-59130000D01*
X188549598Y-56882917D02*
X189072102Y-56882917D01*
X188549598Y-55462917D02*
X189072102Y-55462917D01*
X153916748Y-55424000D02*
X154439252Y-55424000D01*
X153916748Y-56844000D02*
X154439252Y-56844000D01*
X158490721Y-55278458D02*
X157968217Y-55278458D01*
X158490721Y-56698458D02*
X157968217Y-56698458D01*
X158481721Y-57818458D02*
X157959217Y-57818458D01*
X158481721Y-59238458D02*
X157959217Y-59238458D01*
X153916748Y-50090000D02*
X154439252Y-50090000D01*
X153916748Y-51510000D02*
X154439252Y-51510000D01*
X153916748Y-52376000D02*
X154439252Y-52376000D01*
X153916748Y-53796000D02*
X154439252Y-53796000D01*
X28500397Y-61226789D02*
X31360397Y-61226789D01*
X31360397Y-61226789D02*
X31360397Y-63146789D01*
X31360397Y-63146789D02*
X28500397Y-63146789D01*
X31360397Y-60606789D02*
X28500397Y-60606789D01*
X31360397Y-58686789D02*
X31360397Y-60606789D01*
X28500397Y-58686789D02*
X31360397Y-58686789D01*
X28500397Y-56146789D02*
X31360397Y-56146789D01*
X31360397Y-56146789D02*
X31360397Y-58066789D01*
X31360397Y-58066789D02*
X28500397Y-58066789D01*
X31360397Y-55526789D02*
X28500397Y-55526789D01*
X31360397Y-53606789D02*
X31360397Y-55526789D01*
X28500397Y-53606789D02*
X31360397Y-53606789D01*
X28500397Y-51066789D02*
X31360397Y-51066789D01*
X31360397Y-51066789D02*
X31360397Y-52986789D01*
X31360397Y-52986789D02*
X28500397Y-52986789D01*
X31360397Y-50446789D02*
X28500397Y-50446789D01*
X31360397Y-48526789D02*
X31360397Y-50446789D01*
X28500397Y-48526789D02*
X31360397Y-48526789D01*
X31360397Y-47906789D02*
X28500397Y-47906789D01*
X31360397Y-45986789D02*
X31360397Y-47906789D01*
X28500397Y-45986789D02*
X31360397Y-45986789D01*
X28500397Y-43446789D02*
X31360397Y-43446789D01*
X31360397Y-43446789D02*
X31360397Y-45366789D01*
X31360397Y-45366789D02*
X28500397Y-45366789D01*
X33575145Y-62896789D02*
X34097649Y-62896789D01*
X33575145Y-61476789D02*
X34097649Y-61476789D01*
X33575145Y-58936789D02*
X34097649Y-58936789D01*
X33575145Y-60356789D02*
X34097649Y-60356789D01*
X33575145Y-57816789D02*
X34097649Y-57816789D01*
X33575145Y-56396789D02*
X34097649Y-56396789D01*
X33575145Y-53856789D02*
X34097649Y-53856789D01*
X33575145Y-55276789D02*
X34097649Y-55276789D01*
X33575145Y-52736789D02*
X34097649Y-52736789D01*
X33575145Y-51316789D02*
X34097649Y-51316789D01*
X33575145Y-48776789D02*
X34097649Y-48776789D01*
X33575145Y-50196789D02*
X34097649Y-50196789D01*
X33575145Y-46236789D02*
X34097649Y-46236789D01*
X33575145Y-47656789D02*
X34097649Y-47656789D01*
X33575145Y-45116789D02*
X34097649Y-45116789D01*
X33575145Y-43696789D02*
X34097649Y-43696789D01*
X220464748Y-84022000D02*
X220987252Y-84022000D01*
X220464748Y-82602000D02*
X220987252Y-82602000D01*
X143009252Y-76910000D02*
X142486748Y-76910000D01*
X143009252Y-75490000D02*
X142486748Y-75490000D01*
X143009252Y-77522000D02*
X142486748Y-77522000D01*
X143009252Y-78942000D02*
X142486748Y-78942000D01*
X218193252Y-46938000D02*
X217670748Y-46938000D01*
X218193252Y-45518000D02*
X217670748Y-45518000D01*
X218193252Y-49478000D02*
X217670748Y-49478000D01*
X218193252Y-48058000D02*
X217670748Y-48058000D01*
X218193252Y-50598000D02*
X217670748Y-50598000D01*
X218193252Y-52018000D02*
X217670748Y-52018000D01*
X179057867Y-56941625D02*
X178535363Y-56941625D01*
X179057867Y-55521625D02*
X178535363Y-55521625D01*
X188670559Y-51485709D02*
X189193063Y-51485709D01*
X188670559Y-52905709D02*
X189193063Y-52905709D01*
X179057867Y-57770627D02*
X178535363Y-57770627D01*
X179057867Y-59190627D02*
X178535363Y-59190627D01*
X188670559Y-50619709D02*
X189193063Y-50619709D01*
X188670559Y-49199709D02*
X189193063Y-49199709D01*
X52585252Y-27126000D02*
X52062748Y-27126000D01*
X52585252Y-25706000D02*
X52062748Y-25706000D01*
X71112748Y-28904000D02*
X71635252Y-28904000D01*
X71112748Y-27484000D02*
X71635252Y-27484000D01*
X52585252Y-29158000D02*
X52062748Y-29158000D01*
X52585252Y-27738000D02*
X52062748Y-27738000D01*
X71112748Y-26618000D02*
X71635252Y-26618000D01*
X71112748Y-25198000D02*
X71635252Y-25198000D01*
X142486748Y-81586000D02*
X143009252Y-81586000D01*
X142486748Y-83006000D02*
X143009252Y-83006000D01*
X142486748Y-80974000D02*
X143009252Y-80974000D01*
X142486748Y-79554000D02*
X143009252Y-79554000D01*
X82297748Y-150166000D02*
X82820252Y-150166000D01*
X82297748Y-151586000D02*
X82820252Y-151586000D01*
X113834500Y-118534682D02*
X114357004Y-118534682D01*
X113834500Y-119954682D02*
X114357004Y-119954682D01*
X62745252Y-124662000D02*
X62222748Y-124662000D01*
X62745252Y-123242000D02*
X62222748Y-123242000D01*
X63118770Y-150274657D02*
X62596266Y-150274657D01*
X63118770Y-148854657D02*
X62596266Y-148854657D01*
X82297748Y-153673974D02*
X82820252Y-153673974D01*
X82297748Y-152253974D02*
X82820252Y-152253974D01*
X113843500Y-121986682D02*
X114366004Y-121986682D01*
X113843500Y-120566682D02*
X114366004Y-120566682D01*
X62745252Y-125528000D02*
X62222748Y-125528000D01*
X62745252Y-126948000D02*
X62222748Y-126948000D01*
X63109770Y-146822657D02*
X62587266Y-146822657D01*
X63109770Y-148242657D02*
X62587266Y-148242657D01*
X146360135Y-145622943D02*
X145837631Y-145622943D01*
X146360135Y-144202943D02*
X145837631Y-144202943D01*
X146360135Y-146356000D02*
X145837631Y-146356000D01*
X146360135Y-147776000D02*
X145837631Y-147776000D01*
X247388748Y-126948000D02*
X247911252Y-126948000D01*
X247388748Y-125528000D02*
X247911252Y-125528000D01*
X221241252Y-156694858D02*
X220718748Y-156694858D01*
X221241252Y-155274858D02*
X220718748Y-155274858D01*
X228205269Y-131912768D02*
X228727773Y-131912768D01*
X228205269Y-133332768D02*
X228727773Y-133332768D01*
X200681519Y-36418166D02*
X200159015Y-36418166D01*
X200681519Y-37838166D02*
X200159015Y-37838166D01*
X221232252Y-157560858D02*
X220709748Y-157560858D01*
X221232252Y-158980858D02*
X220709748Y-158980858D01*
X228205269Y-131179003D02*
X228727773Y-131179003D01*
X228205269Y-129759003D02*
X228727773Y-129759003D01*
X247388748Y-124662000D02*
X247911252Y-124662000D01*
X247388748Y-123242000D02*
X247911252Y-123242000D01*
X200681519Y-39951824D02*
X200159015Y-39951824D01*
X200681519Y-38531824D02*
X200159015Y-38531824D01*
X217924748Y-37877262D02*
X218447252Y-37877262D01*
X217924748Y-39297262D02*
X218447252Y-39297262D01*
X217924748Y-36757262D02*
X218447252Y-36757262D01*
X217924748Y-35337262D02*
X218447252Y-35337262D01*
X210065252Y-80847000D02*
X209542748Y-80847000D01*
X210065252Y-79427000D02*
X209542748Y-79427000D01*
X210065252Y-83133000D02*
X209542748Y-83133000D01*
X210065252Y-81713000D02*
X209542748Y-81713000D01*
X247231749Y-149911971D02*
X247754253Y-149911971D01*
X247231749Y-151331971D02*
X247754253Y-151331971D01*
X247231749Y-149381971D02*
X247754253Y-149381971D01*
X247231749Y-147961971D02*
X247754253Y-147961971D01*
X64777252Y-100636000D02*
X64254748Y-100636000D01*
X64777252Y-102056000D02*
X64254748Y-102056000D01*
X64777252Y-107240000D02*
X64254748Y-107240000D01*
X64777252Y-108660000D02*
X64254748Y-108660000D01*
X64777252Y-100024000D02*
X64254748Y-100024000D01*
X64777252Y-98604000D02*
X64254748Y-98604000D01*
X64777252Y-106628000D02*
X64254748Y-106628000D01*
X64777252Y-105208000D02*
X64254748Y-105208000D01*
D10*
X55312000Y-102432000D02*
X55312000Y-102032000D01*
X55312000Y-102032000D02*
X55612000Y-101732000D01*
X55612000Y-101732000D02*
X55612000Y-100932000D01*
X60212000Y-101532000D02*
X60512000Y-101532000D01*
X60512000Y-101532000D02*
X60512000Y-101832000D01*
X55612000Y-105732000D02*
X55312000Y-105732000D01*
X55312000Y-105732000D02*
X55312000Y-105432000D01*
X60212000Y-105732000D02*
X60512000Y-105732000D01*
X60512000Y-105732000D02*
X60512000Y-105432000D01*
D13*
X75008749Y-105335000D02*
X75531253Y-105335000D01*
X75008749Y-106755000D02*
X75531253Y-106755000D01*
X75008749Y-99414229D02*
X75531253Y-99414229D01*
X75008749Y-100834229D02*
X75531253Y-100834229D01*
X75008749Y-104596000D02*
X75531253Y-104596000D01*
X75008749Y-103176000D02*
X75531253Y-103176000D01*
X75008749Y-98754000D02*
X75531253Y-98754000D01*
X75008749Y-97334000D02*
X75531253Y-97334000D01*
D10*
X87280561Y-104220824D02*
X87280561Y-104620824D01*
X87280561Y-104620824D02*
X86980561Y-104920824D01*
X86980561Y-104920824D02*
X86980561Y-105720824D01*
X82380561Y-105120824D02*
X82080561Y-105120824D01*
X82080561Y-105120824D02*
X82080561Y-104820824D01*
X86980561Y-100920824D02*
X87280561Y-100920824D01*
X87280561Y-100920824D02*
X87280561Y-101220824D01*
X82380561Y-100920824D02*
X82080561Y-100920824D01*
X82080561Y-100920824D02*
X82080561Y-101220824D01*
D13*
X302215000Y-41530000D02*
X302215000Y-44830000D01*
X302215000Y-44830000D02*
X295315000Y-44830000D01*
X302215000Y-41530000D02*
X295315000Y-41530000D01*
X37076748Y-92762000D02*
X37599252Y-92762000D01*
X37076748Y-94182000D02*
X37599252Y-94182000D01*
X37076748Y-105866000D02*
X37599252Y-105866000D01*
X37076748Y-104446000D02*
X37599252Y-104446000D01*
X37599252Y-91134000D02*
X37076748Y-91134000D01*
X37599252Y-89714000D02*
X37076748Y-89714000D01*
X37599252Y-101398000D02*
X37076748Y-101398000D01*
X37599252Y-102818000D02*
X37076748Y-102818000D01*
D12*
X30448095Y-83653380D02*
X29781428Y-84653380D01*
X29781428Y-83653380D02*
X30448095Y-84653380D01*
X29448095Y-84367666D02*
X28971904Y-84367666D01*
X29543333Y-84653380D02*
X29210000Y-83653380D01*
X28876666Y-84653380D01*
X28019523Y-84653380D02*
X28590952Y-84653380D01*
X28305238Y-84653380D02*
X28305238Y-83653380D01*
X28400476Y-83796238D01*
X28495714Y-83891476D01*
X28590952Y-83939095D01*
X89154000Y-62206142D02*
X89106380Y-62253761D01*
X89154000Y-62301380D01*
X89201619Y-62253761D01*
X89154000Y-62206142D01*
X89154000Y-62301380D01*
X192533516Y-58562059D02*
X192581135Y-58609678D01*
X192723992Y-58657297D01*
X192819230Y-58657297D01*
X192962088Y-58609678D01*
X193057326Y-58514440D01*
X193104945Y-58419202D01*
X193152564Y-58228726D01*
X193152564Y-58085869D01*
X193104945Y-57895393D01*
X193057326Y-57800155D01*
X192962088Y-57704917D01*
X192819230Y-57657297D01*
X192723992Y-57657297D01*
X192581135Y-57704917D01*
X192533516Y-57752536D01*
X191581135Y-58657297D02*
X192152564Y-58657297D01*
X191866850Y-58657297D02*
X191866850Y-57657297D01*
X191962088Y-57800155D01*
X192057326Y-57895393D01*
X192152564Y-57943012D01*
X161964666Y-59031142D02*
X162012285Y-59078761D01*
X162155142Y-59126380D01*
X162250380Y-59126380D01*
X162393238Y-59078761D01*
X162488476Y-58983523D01*
X162536095Y-58888285D01*
X162583714Y-58697809D01*
X162583714Y-58554952D01*
X162536095Y-58364476D01*
X162488476Y-58269238D01*
X162393238Y-58174000D01*
X162250380Y-58126380D01*
X162155142Y-58126380D01*
X162012285Y-58174000D01*
X161964666Y-58221619D01*
X161583714Y-58221619D02*
X161536095Y-58174000D01*
X161440857Y-58126380D01*
X161202761Y-58126380D01*
X161107523Y-58174000D01*
X161059904Y-58221619D01*
X161012285Y-58316857D01*
X161012285Y-58412095D01*
X161059904Y-58554952D01*
X161631333Y-59126380D01*
X161012285Y-59126380D01*
X192787516Y-56530059D02*
X192835135Y-56577678D01*
X192977992Y-56625297D01*
X193073230Y-56625297D01*
X193216088Y-56577678D01*
X193311326Y-56482440D01*
X193358945Y-56387202D01*
X193406564Y-56196726D01*
X193406564Y-56053869D01*
X193358945Y-55863393D01*
X193311326Y-55768155D01*
X193216088Y-55672917D01*
X193073230Y-55625297D01*
X192977992Y-55625297D01*
X192835135Y-55672917D01*
X192787516Y-55720536D01*
X192454183Y-55625297D02*
X191835135Y-55625297D01*
X192168469Y-56006250D01*
X192025611Y-56006250D01*
X191930373Y-56053869D01*
X191882754Y-56101488D01*
X191835135Y-56196726D01*
X191835135Y-56434821D01*
X191882754Y-56530059D01*
X191930373Y-56577678D01*
X192025611Y-56625297D01*
X192311326Y-56625297D01*
X192406564Y-56577678D01*
X192454183Y-56530059D01*
X161964666Y-56745142D02*
X162012285Y-56792761D01*
X162155142Y-56840380D01*
X162250380Y-56840380D01*
X162393238Y-56792761D01*
X162488476Y-56697523D01*
X162536095Y-56602285D01*
X162583714Y-56411809D01*
X162583714Y-56268952D01*
X162536095Y-56078476D01*
X162488476Y-55983238D01*
X162393238Y-55888000D01*
X162250380Y-55840380D01*
X162155142Y-55840380D01*
X162012285Y-55888000D01*
X161964666Y-55935619D01*
X161107523Y-56173714D02*
X161107523Y-56840380D01*
X161345619Y-55792761D02*
X161583714Y-56507047D01*
X160964666Y-56507047D01*
X165012666Y-56745142D02*
X165060285Y-56792761D01*
X165203142Y-56840380D01*
X165298380Y-56840380D01*
X165441238Y-56792761D01*
X165536476Y-56697523D01*
X165584095Y-56602285D01*
X165631714Y-56411809D01*
X165631714Y-56268952D01*
X165584095Y-56078476D01*
X165536476Y-55983238D01*
X165441238Y-55888000D01*
X165298380Y-55840380D01*
X165203142Y-55840380D01*
X165060285Y-55888000D01*
X165012666Y-55935619D01*
X164107904Y-55840380D02*
X164584095Y-55840380D01*
X164631714Y-56316571D01*
X164584095Y-56268952D01*
X164488857Y-56221333D01*
X164250761Y-56221333D01*
X164155523Y-56268952D01*
X164107904Y-56316571D01*
X164060285Y-56411809D01*
X164060285Y-56649904D01*
X164107904Y-56745142D01*
X164155523Y-56792761D01*
X164250761Y-56840380D01*
X164488857Y-56840380D01*
X164584095Y-56792761D01*
X164631714Y-56745142D01*
X165012666Y-59031142D02*
X165060285Y-59078761D01*
X165203142Y-59126380D01*
X165298380Y-59126380D01*
X165441238Y-59078761D01*
X165536476Y-58983523D01*
X165584095Y-58888285D01*
X165631714Y-58697809D01*
X165631714Y-58554952D01*
X165584095Y-58364476D01*
X165536476Y-58269238D01*
X165441238Y-58174000D01*
X165298380Y-58126380D01*
X165203142Y-58126380D01*
X165060285Y-58174000D01*
X165012666Y-58221619D01*
X164155523Y-58126380D02*
X164346000Y-58126380D01*
X164441238Y-58174000D01*
X164488857Y-58221619D01*
X164584095Y-58364476D01*
X164631714Y-58554952D01*
X164631714Y-58935904D01*
X164584095Y-59031142D01*
X164536476Y-59078761D01*
X164441238Y-59126380D01*
X164250761Y-59126380D01*
X164155523Y-59078761D01*
X164107904Y-59031142D01*
X164060285Y-58935904D01*
X164060285Y-58697809D01*
X164107904Y-58602571D01*
X164155523Y-58554952D01*
X164250761Y-58507333D01*
X164441238Y-58507333D01*
X164536476Y-58554952D01*
X164584095Y-58602571D01*
X164631714Y-58697809D01*
X161964666Y-51411142D02*
X162012285Y-51458761D01*
X162155142Y-51506380D01*
X162250380Y-51506380D01*
X162393238Y-51458761D01*
X162488476Y-51363523D01*
X162536095Y-51268285D01*
X162583714Y-51077809D01*
X162583714Y-50934952D01*
X162536095Y-50744476D01*
X162488476Y-50649238D01*
X162393238Y-50554000D01*
X162250380Y-50506380D01*
X162155142Y-50506380D01*
X162012285Y-50554000D01*
X161964666Y-50601619D01*
X161631333Y-50506380D02*
X160964666Y-50506380D01*
X161393238Y-51506380D01*
X161964666Y-54459142D02*
X162012285Y-54506761D01*
X162155142Y-54554380D01*
X162250380Y-54554380D01*
X162393238Y-54506761D01*
X162488476Y-54411523D01*
X162536095Y-54316285D01*
X162583714Y-54125809D01*
X162583714Y-53982952D01*
X162536095Y-53792476D01*
X162488476Y-53697238D01*
X162393238Y-53602000D01*
X162250380Y-53554380D01*
X162155142Y-53554380D01*
X162012285Y-53602000D01*
X161964666Y-53649619D01*
X161393238Y-53982952D02*
X161488476Y-53935333D01*
X161536095Y-53887714D01*
X161583714Y-53792476D01*
X161583714Y-53744857D01*
X161536095Y-53649619D01*
X161488476Y-53602000D01*
X161393238Y-53554380D01*
X161202761Y-53554380D01*
X161107523Y-53602000D01*
X161059904Y-53649619D01*
X161012285Y-53744857D01*
X161012285Y-53792476D01*
X161059904Y-53887714D01*
X161107523Y-53935333D01*
X161202761Y-53982952D01*
X161393238Y-53982952D01*
X161488476Y-54030571D01*
X161536095Y-54078190D01*
X161583714Y-54173428D01*
X161583714Y-54363904D01*
X161536095Y-54459142D01*
X161488476Y-54506761D01*
X161393238Y-54554380D01*
X161202761Y-54554380D01*
X161107523Y-54506761D01*
X161059904Y-54459142D01*
X161012285Y-54363904D01*
X161012285Y-54173428D01*
X161059904Y-54078190D01*
X161107523Y-54030571D01*
X161202761Y-53982952D01*
X38103492Y-62639169D02*
X38103492Y-61639169D01*
X37865397Y-61639169D01*
X37722539Y-61686789D01*
X37627301Y-61782027D01*
X37579682Y-61877265D01*
X37532063Y-62067741D01*
X37532063Y-62210598D01*
X37579682Y-62401074D01*
X37627301Y-62496312D01*
X37722539Y-62591550D01*
X37865397Y-62639169D01*
X38103492Y-62639169D01*
X36579682Y-62639169D02*
X37151111Y-62639169D01*
X36865397Y-62639169D02*
X36865397Y-61639169D01*
X36960635Y-61782027D01*
X37055873Y-61877265D01*
X37151111Y-61924884D01*
X38103492Y-60099169D02*
X38103492Y-59099169D01*
X37865397Y-59099169D01*
X37722539Y-59146789D01*
X37627301Y-59242027D01*
X37579682Y-59337265D01*
X37532063Y-59527741D01*
X37532063Y-59670598D01*
X37579682Y-59861074D01*
X37627301Y-59956312D01*
X37722539Y-60051550D01*
X37865397Y-60099169D01*
X38103492Y-60099169D01*
X37151111Y-59194408D02*
X37103492Y-59146789D01*
X37008254Y-59099169D01*
X36770158Y-59099169D01*
X36674920Y-59146789D01*
X36627301Y-59194408D01*
X36579682Y-59289646D01*
X36579682Y-59384884D01*
X36627301Y-59527741D01*
X37198730Y-60099169D01*
X36579682Y-60099169D01*
X38103492Y-57559169D02*
X38103492Y-56559169D01*
X37865397Y-56559169D01*
X37722539Y-56606789D01*
X37627301Y-56702027D01*
X37579682Y-56797265D01*
X37532063Y-56987741D01*
X37532063Y-57130598D01*
X37579682Y-57321074D01*
X37627301Y-57416312D01*
X37722539Y-57511550D01*
X37865397Y-57559169D01*
X38103492Y-57559169D01*
X37198730Y-56559169D02*
X36579682Y-56559169D01*
X36913016Y-56940122D01*
X36770158Y-56940122D01*
X36674920Y-56987741D01*
X36627301Y-57035360D01*
X36579682Y-57130598D01*
X36579682Y-57368693D01*
X36627301Y-57463931D01*
X36674920Y-57511550D01*
X36770158Y-57559169D01*
X37055873Y-57559169D01*
X37151111Y-57511550D01*
X37198730Y-57463931D01*
X38103492Y-55019169D02*
X38103492Y-54019169D01*
X37865397Y-54019169D01*
X37722539Y-54066789D01*
X37627301Y-54162027D01*
X37579682Y-54257265D01*
X37532063Y-54447741D01*
X37532063Y-54590598D01*
X37579682Y-54781074D01*
X37627301Y-54876312D01*
X37722539Y-54971550D01*
X37865397Y-55019169D01*
X38103492Y-55019169D01*
X36674920Y-54352503D02*
X36674920Y-55019169D01*
X36913016Y-53971550D02*
X37151111Y-54685836D01*
X36532063Y-54685836D01*
X38103492Y-52479169D02*
X38103492Y-51479169D01*
X37865397Y-51479169D01*
X37722539Y-51526789D01*
X37627301Y-51622027D01*
X37579682Y-51717265D01*
X37532063Y-51907741D01*
X37532063Y-52050598D01*
X37579682Y-52241074D01*
X37627301Y-52336312D01*
X37722539Y-52431550D01*
X37865397Y-52479169D01*
X38103492Y-52479169D01*
X36627301Y-51479169D02*
X37103492Y-51479169D01*
X37151111Y-51955360D01*
X37103492Y-51907741D01*
X37008254Y-51860122D01*
X36770158Y-51860122D01*
X36674920Y-51907741D01*
X36627301Y-51955360D01*
X36579682Y-52050598D01*
X36579682Y-52288693D01*
X36627301Y-52383931D01*
X36674920Y-52431550D01*
X36770158Y-52479169D01*
X37008254Y-52479169D01*
X37103492Y-52431550D01*
X37151111Y-52383931D01*
X38103492Y-49939169D02*
X38103492Y-48939169D01*
X37865397Y-48939169D01*
X37722539Y-48986789D01*
X37627301Y-49082027D01*
X37579682Y-49177265D01*
X37532063Y-49367741D01*
X37532063Y-49510598D01*
X37579682Y-49701074D01*
X37627301Y-49796312D01*
X37722539Y-49891550D01*
X37865397Y-49939169D01*
X38103492Y-49939169D01*
X36674920Y-48939169D02*
X36865397Y-48939169D01*
X36960635Y-48986789D01*
X37008254Y-49034408D01*
X37103492Y-49177265D01*
X37151111Y-49367741D01*
X37151111Y-49748693D01*
X37103492Y-49843931D01*
X37055873Y-49891550D01*
X36960635Y-49939169D01*
X36770158Y-49939169D01*
X36674920Y-49891550D01*
X36627301Y-49843931D01*
X36579682Y-49748693D01*
X36579682Y-49510598D01*
X36627301Y-49415360D01*
X36674920Y-49367741D01*
X36770158Y-49320122D01*
X36960635Y-49320122D01*
X37055873Y-49367741D01*
X37103492Y-49415360D01*
X37151111Y-49510598D01*
X38103492Y-47399169D02*
X38103492Y-46399169D01*
X37865397Y-46399169D01*
X37722539Y-46446789D01*
X37627301Y-46542027D01*
X37579682Y-46637265D01*
X37532063Y-46827741D01*
X37532063Y-46970598D01*
X37579682Y-47161074D01*
X37627301Y-47256312D01*
X37722539Y-47351550D01*
X37865397Y-47399169D01*
X38103492Y-47399169D01*
X37198730Y-46399169D02*
X36532063Y-46399169D01*
X36960635Y-47399169D01*
X38103492Y-44859169D02*
X38103492Y-43859169D01*
X37865397Y-43859169D01*
X37722539Y-43906789D01*
X37627301Y-44002027D01*
X37579682Y-44097265D01*
X37532063Y-44287741D01*
X37532063Y-44430598D01*
X37579682Y-44621074D01*
X37627301Y-44716312D01*
X37722539Y-44811550D01*
X37865397Y-44859169D01*
X38103492Y-44859169D01*
X36960635Y-44287741D02*
X37055873Y-44240122D01*
X37103492Y-44192503D01*
X37151111Y-44097265D01*
X37151111Y-44049646D01*
X37103492Y-43954408D01*
X37055873Y-43906789D01*
X36960635Y-43859169D01*
X36770158Y-43859169D01*
X36674920Y-43906789D01*
X36627301Y-43954408D01*
X36579682Y-44049646D01*
X36579682Y-44097265D01*
X36627301Y-44192503D01*
X36674920Y-44240122D01*
X36770158Y-44287741D01*
X36960635Y-44287741D01*
X37055873Y-44335360D01*
X37103492Y-44382979D01*
X37151111Y-44478217D01*
X37151111Y-44668693D01*
X37103492Y-44763931D01*
X37055873Y-44811550D01*
X36960635Y-44859169D01*
X36770158Y-44859169D01*
X36674920Y-44811550D01*
X36627301Y-44763931D01*
X36579682Y-44668693D01*
X36579682Y-44478217D01*
X36627301Y-44382979D01*
X36674920Y-44335360D01*
X36770158Y-44287741D01*
X40090063Y-62639169D02*
X40423397Y-62162979D01*
X40661492Y-62639169D02*
X40661492Y-61639169D01*
X40280539Y-61639169D01*
X40185301Y-61686789D01*
X40137682Y-61734408D01*
X40090063Y-61829646D01*
X40090063Y-61972503D01*
X40137682Y-62067741D01*
X40185301Y-62115360D01*
X40280539Y-62162979D01*
X40661492Y-62162979D01*
X39137682Y-62639169D02*
X39709111Y-62639169D01*
X39423397Y-62639169D02*
X39423397Y-61639169D01*
X39518635Y-61782027D01*
X39613873Y-61877265D01*
X39709111Y-61924884D01*
X40090063Y-60099169D02*
X40423397Y-59622979D01*
X40661492Y-60099169D02*
X40661492Y-59099169D01*
X40280539Y-59099169D01*
X40185301Y-59146789D01*
X40137682Y-59194408D01*
X40090063Y-59289646D01*
X40090063Y-59432503D01*
X40137682Y-59527741D01*
X40185301Y-59575360D01*
X40280539Y-59622979D01*
X40661492Y-59622979D01*
X39709111Y-59194408D02*
X39661492Y-59146789D01*
X39566254Y-59099169D01*
X39328158Y-59099169D01*
X39232920Y-59146789D01*
X39185301Y-59194408D01*
X39137682Y-59289646D01*
X39137682Y-59384884D01*
X39185301Y-59527741D01*
X39756730Y-60099169D01*
X39137682Y-60099169D01*
X40090063Y-57559169D02*
X40423397Y-57082979D01*
X40661492Y-57559169D02*
X40661492Y-56559169D01*
X40280539Y-56559169D01*
X40185301Y-56606789D01*
X40137682Y-56654408D01*
X40090063Y-56749646D01*
X40090063Y-56892503D01*
X40137682Y-56987741D01*
X40185301Y-57035360D01*
X40280539Y-57082979D01*
X40661492Y-57082979D01*
X39756730Y-56559169D02*
X39137682Y-56559169D01*
X39471016Y-56940122D01*
X39328158Y-56940122D01*
X39232920Y-56987741D01*
X39185301Y-57035360D01*
X39137682Y-57130598D01*
X39137682Y-57368693D01*
X39185301Y-57463931D01*
X39232920Y-57511550D01*
X39328158Y-57559169D01*
X39613873Y-57559169D01*
X39709111Y-57511550D01*
X39756730Y-57463931D01*
X40090063Y-55019169D02*
X40423397Y-54542979D01*
X40661492Y-55019169D02*
X40661492Y-54019169D01*
X40280539Y-54019169D01*
X40185301Y-54066789D01*
X40137682Y-54114408D01*
X40090063Y-54209646D01*
X40090063Y-54352503D01*
X40137682Y-54447741D01*
X40185301Y-54495360D01*
X40280539Y-54542979D01*
X40661492Y-54542979D01*
X39232920Y-54352503D02*
X39232920Y-55019169D01*
X39471016Y-53971550D02*
X39709111Y-54685836D01*
X39090063Y-54685836D01*
X40090063Y-52479169D02*
X40423397Y-52002979D01*
X40661492Y-52479169D02*
X40661492Y-51479169D01*
X40280539Y-51479169D01*
X40185301Y-51526789D01*
X40137682Y-51574408D01*
X40090063Y-51669646D01*
X40090063Y-51812503D01*
X40137682Y-51907741D01*
X40185301Y-51955360D01*
X40280539Y-52002979D01*
X40661492Y-52002979D01*
X39185301Y-51479169D02*
X39661492Y-51479169D01*
X39709111Y-51955360D01*
X39661492Y-51907741D01*
X39566254Y-51860122D01*
X39328158Y-51860122D01*
X39232920Y-51907741D01*
X39185301Y-51955360D01*
X39137682Y-52050598D01*
X39137682Y-52288693D01*
X39185301Y-52383931D01*
X39232920Y-52431550D01*
X39328158Y-52479169D01*
X39566254Y-52479169D01*
X39661492Y-52431550D01*
X39709111Y-52383931D01*
X40090063Y-49939169D02*
X40423397Y-49462979D01*
X40661492Y-49939169D02*
X40661492Y-48939169D01*
X40280539Y-48939169D01*
X40185301Y-48986789D01*
X40137682Y-49034408D01*
X40090063Y-49129646D01*
X40090063Y-49272503D01*
X40137682Y-49367741D01*
X40185301Y-49415360D01*
X40280539Y-49462979D01*
X40661492Y-49462979D01*
X39232920Y-48939169D02*
X39423397Y-48939169D01*
X39518635Y-48986789D01*
X39566254Y-49034408D01*
X39661492Y-49177265D01*
X39709111Y-49367741D01*
X39709111Y-49748693D01*
X39661492Y-49843931D01*
X39613873Y-49891550D01*
X39518635Y-49939169D01*
X39328158Y-49939169D01*
X39232920Y-49891550D01*
X39185301Y-49843931D01*
X39137682Y-49748693D01*
X39137682Y-49510598D01*
X39185301Y-49415360D01*
X39232920Y-49367741D01*
X39328158Y-49320122D01*
X39518635Y-49320122D01*
X39613873Y-49367741D01*
X39661492Y-49415360D01*
X39709111Y-49510598D01*
X40090063Y-47399169D02*
X40423397Y-46922979D01*
X40661492Y-47399169D02*
X40661492Y-46399169D01*
X40280539Y-46399169D01*
X40185301Y-46446789D01*
X40137682Y-46494408D01*
X40090063Y-46589646D01*
X40090063Y-46732503D01*
X40137682Y-46827741D01*
X40185301Y-46875360D01*
X40280539Y-46922979D01*
X40661492Y-46922979D01*
X39756730Y-46399169D02*
X39090063Y-46399169D01*
X39518635Y-47399169D01*
X40090063Y-44859169D02*
X40423397Y-44382979D01*
X40661492Y-44859169D02*
X40661492Y-43859169D01*
X40280539Y-43859169D01*
X40185301Y-43906789D01*
X40137682Y-43954408D01*
X40090063Y-44049646D01*
X40090063Y-44192503D01*
X40137682Y-44287741D01*
X40185301Y-44335360D01*
X40280539Y-44382979D01*
X40661492Y-44382979D01*
X39518635Y-44287741D02*
X39613873Y-44240122D01*
X39661492Y-44192503D01*
X39709111Y-44097265D01*
X39709111Y-44049646D01*
X39661492Y-43954408D01*
X39613873Y-43906789D01*
X39518635Y-43859169D01*
X39328158Y-43859169D01*
X39232920Y-43906789D01*
X39185301Y-43954408D01*
X39137682Y-44049646D01*
X39137682Y-44097265D01*
X39185301Y-44192503D01*
X39232920Y-44240122D01*
X39328158Y-44287741D01*
X39518635Y-44287741D01*
X39613873Y-44335360D01*
X39661492Y-44382979D01*
X39709111Y-44478217D01*
X39709111Y-44668693D01*
X39661492Y-44763931D01*
X39613873Y-44811550D01*
X39518635Y-44859169D01*
X39328158Y-44859169D01*
X39232920Y-44811550D01*
X39185301Y-44763931D01*
X39137682Y-44668693D01*
X39137682Y-44478217D01*
X39185301Y-44382979D01*
X39232920Y-44335360D01*
X39328158Y-44287741D01*
X224448666Y-83764380D02*
X224782000Y-83288190D01*
X225020095Y-83764380D02*
X225020095Y-82764380D01*
X224639142Y-82764380D01*
X224543904Y-82812000D01*
X224496285Y-82859619D01*
X224448666Y-82954857D01*
X224448666Y-83097714D01*
X224496285Y-83192952D01*
X224543904Y-83240571D01*
X224639142Y-83288190D01*
X225020095Y-83288190D01*
X223972476Y-83764380D02*
X223782000Y-83764380D01*
X223686761Y-83716761D01*
X223639142Y-83669142D01*
X223543904Y-83526285D01*
X223496285Y-83335809D01*
X223496285Y-82954857D01*
X223543904Y-82859619D01*
X223591523Y-82812000D01*
X223686761Y-82764380D01*
X223877238Y-82764380D01*
X223972476Y-82812000D01*
X224020095Y-82859619D01*
X224067714Y-82954857D01*
X224067714Y-83192952D01*
X224020095Y-83288190D01*
X223972476Y-83335809D01*
X223877238Y-83383428D01*
X223686761Y-83383428D01*
X223591523Y-83335809D01*
X223543904Y-83288190D01*
X223496285Y-83192952D01*
X139834857Y-76652380D02*
X140168190Y-76176190D01*
X140406285Y-76652380D02*
X140406285Y-75652380D01*
X140025333Y-75652380D01*
X139930095Y-75700000D01*
X139882476Y-75747619D01*
X139834857Y-75842857D01*
X139834857Y-75985714D01*
X139882476Y-76080952D01*
X139930095Y-76128571D01*
X140025333Y-76176190D01*
X140406285Y-76176190D01*
X138882476Y-76652380D02*
X139453904Y-76652380D01*
X139168190Y-76652380D02*
X139168190Y-75652380D01*
X139263428Y-75795238D01*
X139358666Y-75890476D01*
X139453904Y-75938095D01*
X138263428Y-75652380D02*
X138168190Y-75652380D01*
X138072952Y-75700000D01*
X138025333Y-75747619D01*
X137977714Y-75842857D01*
X137930095Y-76033333D01*
X137930095Y-76271428D01*
X137977714Y-76461904D01*
X138025333Y-76557142D01*
X138072952Y-76604761D01*
X138168190Y-76652380D01*
X138263428Y-76652380D01*
X138358666Y-76604761D01*
X138406285Y-76557142D01*
X138453904Y-76461904D01*
X138501523Y-76271428D01*
X138501523Y-76033333D01*
X138453904Y-75842857D01*
X138406285Y-75747619D01*
X138358666Y-75700000D01*
X138263428Y-75652380D01*
X139834857Y-78684380D02*
X140168190Y-78208190D01*
X140406285Y-78684380D02*
X140406285Y-77684380D01*
X140025333Y-77684380D01*
X139930095Y-77732000D01*
X139882476Y-77779619D01*
X139834857Y-77874857D01*
X139834857Y-78017714D01*
X139882476Y-78112952D01*
X139930095Y-78160571D01*
X140025333Y-78208190D01*
X140406285Y-78208190D01*
X138882476Y-78684380D02*
X139453904Y-78684380D01*
X139168190Y-78684380D02*
X139168190Y-77684380D01*
X139263428Y-77827238D01*
X139358666Y-77922476D01*
X139453904Y-77970095D01*
X137930095Y-78684380D02*
X138501523Y-78684380D01*
X138215809Y-78684380D02*
X138215809Y-77684380D01*
X138311047Y-77827238D01*
X138406285Y-77922476D01*
X138501523Y-77970095D01*
X222130857Y-46680380D02*
X222464190Y-46204190D01*
X222702285Y-46680380D02*
X222702285Y-45680380D01*
X222321333Y-45680380D01*
X222226095Y-45728000D01*
X222178476Y-45775619D01*
X222130857Y-45870857D01*
X222130857Y-46013714D01*
X222178476Y-46108952D01*
X222226095Y-46156571D01*
X222321333Y-46204190D01*
X222702285Y-46204190D01*
X221178476Y-46680380D02*
X221749904Y-46680380D01*
X221464190Y-46680380D02*
X221464190Y-45680380D01*
X221559428Y-45823238D01*
X221654666Y-45918476D01*
X221749904Y-45966095D01*
X220797523Y-45775619D02*
X220749904Y-45728000D01*
X220654666Y-45680380D01*
X220416571Y-45680380D01*
X220321333Y-45728000D01*
X220273714Y-45775619D01*
X220226095Y-45870857D01*
X220226095Y-45966095D01*
X220273714Y-46108952D01*
X220845142Y-46680380D01*
X220226095Y-46680380D01*
X222130857Y-49220380D02*
X222464190Y-48744190D01*
X222702285Y-49220380D02*
X222702285Y-48220380D01*
X222321333Y-48220380D01*
X222226095Y-48268000D01*
X222178476Y-48315619D01*
X222130857Y-48410857D01*
X222130857Y-48553714D01*
X222178476Y-48648952D01*
X222226095Y-48696571D01*
X222321333Y-48744190D01*
X222702285Y-48744190D01*
X221178476Y-49220380D02*
X221749904Y-49220380D01*
X221464190Y-49220380D02*
X221464190Y-48220380D01*
X221559428Y-48363238D01*
X221654666Y-48458476D01*
X221749904Y-48506095D01*
X220845142Y-48220380D02*
X220226095Y-48220380D01*
X220559428Y-48601333D01*
X220416571Y-48601333D01*
X220321333Y-48648952D01*
X220273714Y-48696571D01*
X220226095Y-48791809D01*
X220226095Y-49029904D01*
X220273714Y-49125142D01*
X220321333Y-49172761D01*
X220416571Y-49220380D01*
X220702285Y-49220380D01*
X220797523Y-49172761D01*
X220845142Y-49125142D01*
X222130857Y-51760380D02*
X222464190Y-51284190D01*
X222702285Y-51760380D02*
X222702285Y-50760380D01*
X222321333Y-50760380D01*
X222226095Y-50808000D01*
X222178476Y-50855619D01*
X222130857Y-50950857D01*
X222130857Y-51093714D01*
X222178476Y-51188952D01*
X222226095Y-51236571D01*
X222321333Y-51284190D01*
X222702285Y-51284190D01*
X221178476Y-51760380D02*
X221749904Y-51760380D01*
X221464190Y-51760380D02*
X221464190Y-50760380D01*
X221559428Y-50903238D01*
X221654666Y-50998476D01*
X221749904Y-51046095D01*
X220321333Y-51093714D02*
X220321333Y-51760380D01*
X220559428Y-50712761D02*
X220797523Y-51427047D01*
X220178476Y-51427047D01*
X175998283Y-56588767D02*
X176045902Y-56636386D01*
X176188759Y-56684005D01*
X176283997Y-56684005D01*
X176426855Y-56636386D01*
X176522093Y-56541148D01*
X176569712Y-56445910D01*
X176617331Y-56255434D01*
X176617331Y-56112577D01*
X176569712Y-55922101D01*
X176522093Y-55826863D01*
X176426855Y-55731625D01*
X176283997Y-55684005D01*
X176188759Y-55684005D01*
X176045902Y-55731625D01*
X175998283Y-55779244D01*
X175522093Y-56684005D02*
X175331617Y-56684005D01*
X175236378Y-56636386D01*
X175188759Y-56588767D01*
X175093521Y-56445910D01*
X175045902Y-56255434D01*
X175045902Y-55874482D01*
X175093521Y-55779244D01*
X175141140Y-55731625D01*
X175236378Y-55684005D01*
X175426855Y-55684005D01*
X175522093Y-55731625D01*
X175569712Y-55779244D01*
X175617331Y-55874482D01*
X175617331Y-56112577D01*
X175569712Y-56207815D01*
X175522093Y-56255434D01*
X175426855Y-56303053D01*
X175236378Y-56303053D01*
X175141140Y-56255434D01*
X175093521Y-56207815D01*
X175045902Y-56112577D01*
X193130668Y-52298851D02*
X193178287Y-52346470D01*
X193321144Y-52394089D01*
X193416382Y-52394089D01*
X193559239Y-52346470D01*
X193654477Y-52251232D01*
X193702096Y-52155994D01*
X193749715Y-51965518D01*
X193749715Y-51822661D01*
X193702096Y-51632185D01*
X193654477Y-51536947D01*
X193559239Y-51441709D01*
X193416382Y-51394089D01*
X193321144Y-51394089D01*
X193178287Y-51441709D01*
X193130668Y-51489328D01*
X192178287Y-52394089D02*
X192749715Y-52394089D01*
X192464001Y-52394089D02*
X192464001Y-51394089D01*
X192559239Y-51536947D01*
X192654477Y-51632185D01*
X192749715Y-51679804D01*
X191559239Y-51394089D02*
X191464001Y-51394089D01*
X191368763Y-51441709D01*
X191321144Y-51489328D01*
X191273525Y-51584566D01*
X191225906Y-51775042D01*
X191225906Y-52013137D01*
X191273525Y-52203613D01*
X191321144Y-52298851D01*
X191368763Y-52346470D01*
X191464001Y-52394089D01*
X191559239Y-52394089D01*
X191654477Y-52346470D01*
X191702096Y-52298851D01*
X191749715Y-52203613D01*
X191797334Y-52013137D01*
X191797334Y-51775042D01*
X191749715Y-51584566D01*
X191702096Y-51489328D01*
X191654477Y-51441709D01*
X191559239Y-51394089D01*
X175966474Y-58874767D02*
X176014093Y-58922386D01*
X176156950Y-58970005D01*
X176252188Y-58970005D01*
X176395045Y-58922386D01*
X176490283Y-58827148D01*
X176537902Y-58731910D01*
X176585521Y-58541434D01*
X176585521Y-58398577D01*
X176537902Y-58208101D01*
X176490283Y-58112863D01*
X176395045Y-58017625D01*
X176252188Y-57970005D01*
X176156950Y-57970005D01*
X176014093Y-58017625D01*
X175966474Y-58065244D01*
X175014093Y-58970005D02*
X175585521Y-58970005D01*
X175299807Y-58970005D02*
X175299807Y-57970005D01*
X175395045Y-58112863D01*
X175490283Y-58208101D01*
X175585521Y-58255720D01*
X174061712Y-58970005D02*
X174633140Y-58970005D01*
X174347426Y-58970005D02*
X174347426Y-57970005D01*
X174442664Y-58112863D01*
X174537902Y-58208101D01*
X174633140Y-58255720D01*
X193130668Y-50266851D02*
X193178287Y-50314470D01*
X193321144Y-50362089D01*
X193416382Y-50362089D01*
X193559239Y-50314470D01*
X193654477Y-50219232D01*
X193702096Y-50123994D01*
X193749715Y-49933518D01*
X193749715Y-49790661D01*
X193702096Y-49600185D01*
X193654477Y-49504947D01*
X193559239Y-49409709D01*
X193416382Y-49362089D01*
X193321144Y-49362089D01*
X193178287Y-49409709D01*
X193130668Y-49457328D01*
X192178287Y-50362089D02*
X192749715Y-50362089D01*
X192464001Y-50362089D02*
X192464001Y-49362089D01*
X192559239Y-49504947D01*
X192654477Y-49600185D01*
X192749715Y-49647804D01*
X191797334Y-49457328D02*
X191749715Y-49409709D01*
X191654477Y-49362089D01*
X191416382Y-49362089D01*
X191321144Y-49409709D01*
X191273525Y-49457328D01*
X191225906Y-49552566D01*
X191225906Y-49647804D01*
X191273525Y-49790661D01*
X191844953Y-50362089D01*
X191225906Y-50362089D01*
X52966857Y-22709142D02*
X53014476Y-22756761D01*
X53157333Y-22804380D01*
X53252571Y-22804380D01*
X53395428Y-22756761D01*
X53490666Y-22661523D01*
X53538285Y-22566285D01*
X53585904Y-22375809D01*
X53585904Y-22232952D01*
X53538285Y-22042476D01*
X53490666Y-21947238D01*
X53395428Y-21852000D01*
X53252571Y-21804380D01*
X53157333Y-21804380D01*
X53014476Y-21852000D01*
X52966857Y-21899619D01*
X52014476Y-22804380D02*
X52585904Y-22804380D01*
X52300190Y-22804380D02*
X52300190Y-21804380D01*
X52395428Y-21947238D01*
X52490666Y-22042476D01*
X52585904Y-22090095D01*
X51681142Y-21804380D02*
X51062095Y-21804380D01*
X51395428Y-22185333D01*
X51252571Y-22185333D01*
X51157333Y-22232952D01*
X51109714Y-22280571D01*
X51062095Y-22375809D01*
X51062095Y-22613904D01*
X51109714Y-22709142D01*
X51157333Y-22756761D01*
X51252571Y-22804380D01*
X51538285Y-22804380D01*
X51633523Y-22756761D01*
X51681142Y-22709142D01*
X72016857Y-24233142D02*
X72064476Y-24280761D01*
X72207333Y-24328380D01*
X72302571Y-24328380D01*
X72445428Y-24280761D01*
X72540666Y-24185523D01*
X72588285Y-24090285D01*
X72635904Y-23899809D01*
X72635904Y-23756952D01*
X72588285Y-23566476D01*
X72540666Y-23471238D01*
X72445428Y-23376000D01*
X72302571Y-23328380D01*
X72207333Y-23328380D01*
X72064476Y-23376000D01*
X72016857Y-23423619D01*
X71064476Y-24328380D02*
X71635904Y-24328380D01*
X71350190Y-24328380D02*
X71350190Y-23328380D01*
X71445428Y-23471238D01*
X71540666Y-23566476D01*
X71635904Y-23614095D01*
X70207333Y-23661714D02*
X70207333Y-24328380D01*
X70445428Y-23280761D02*
X70683523Y-23995047D01*
X70064476Y-23995047D01*
X52966857Y-24741142D02*
X53014476Y-24788761D01*
X53157333Y-24836380D01*
X53252571Y-24836380D01*
X53395428Y-24788761D01*
X53490666Y-24693523D01*
X53538285Y-24598285D01*
X53585904Y-24407809D01*
X53585904Y-24264952D01*
X53538285Y-24074476D01*
X53490666Y-23979238D01*
X53395428Y-23884000D01*
X53252571Y-23836380D01*
X53157333Y-23836380D01*
X53014476Y-23884000D01*
X52966857Y-23931619D01*
X52014476Y-24836380D02*
X52585904Y-24836380D01*
X52300190Y-24836380D02*
X52300190Y-23836380D01*
X52395428Y-23979238D01*
X52490666Y-24074476D01*
X52585904Y-24122095D01*
X51109714Y-23836380D02*
X51585904Y-23836380D01*
X51633523Y-24312571D01*
X51585904Y-24264952D01*
X51490666Y-24217333D01*
X51252571Y-24217333D01*
X51157333Y-24264952D01*
X51109714Y-24312571D01*
X51062095Y-24407809D01*
X51062095Y-24645904D01*
X51109714Y-24741142D01*
X51157333Y-24788761D01*
X51252571Y-24836380D01*
X51490666Y-24836380D01*
X51585904Y-24788761D01*
X51633523Y-24741142D01*
X72016857Y-22709142D02*
X72064476Y-22756761D01*
X72207333Y-22804380D01*
X72302571Y-22804380D01*
X72445428Y-22756761D01*
X72540666Y-22661523D01*
X72588285Y-22566285D01*
X72635904Y-22375809D01*
X72635904Y-22232952D01*
X72588285Y-22042476D01*
X72540666Y-21947238D01*
X72445428Y-21852000D01*
X72302571Y-21804380D01*
X72207333Y-21804380D01*
X72064476Y-21852000D01*
X72016857Y-21899619D01*
X71064476Y-22804380D02*
X71635904Y-22804380D01*
X71350190Y-22804380D02*
X71350190Y-21804380D01*
X71445428Y-21947238D01*
X71540666Y-22042476D01*
X71635904Y-22090095D01*
X70207333Y-21804380D02*
X70397809Y-21804380D01*
X70493047Y-21852000D01*
X70540666Y-21899619D01*
X70635904Y-22042476D01*
X70683523Y-22232952D01*
X70683523Y-22613904D01*
X70635904Y-22709142D01*
X70588285Y-22756761D01*
X70493047Y-22804380D01*
X70302571Y-22804380D01*
X70207333Y-22756761D01*
X70159714Y-22709142D01*
X70112095Y-22613904D01*
X70112095Y-22375809D01*
X70159714Y-22280571D01*
X70207333Y-22232952D01*
X70302571Y-22185333D01*
X70493047Y-22185333D01*
X70588285Y-22232952D01*
X70635904Y-22280571D01*
X70683523Y-22375809D01*
X139834857Y-82907142D02*
X139882476Y-82954761D01*
X140025333Y-83002380D01*
X140120571Y-83002380D01*
X140263428Y-82954761D01*
X140358666Y-82859523D01*
X140406285Y-82764285D01*
X140453904Y-82573809D01*
X140453904Y-82430952D01*
X140406285Y-82240476D01*
X140358666Y-82145238D01*
X140263428Y-82050000D01*
X140120571Y-82002380D01*
X140025333Y-82002380D01*
X139882476Y-82050000D01*
X139834857Y-82097619D01*
X138882476Y-83002380D02*
X139453904Y-83002380D01*
X139168190Y-83002380D02*
X139168190Y-82002380D01*
X139263428Y-82145238D01*
X139358666Y-82240476D01*
X139453904Y-82288095D01*
X138549142Y-82002380D02*
X137882476Y-82002380D01*
X138311047Y-83002380D01*
X139834857Y-80621142D02*
X139882476Y-80668761D01*
X140025333Y-80716380D01*
X140120571Y-80716380D01*
X140263428Y-80668761D01*
X140358666Y-80573523D01*
X140406285Y-80478285D01*
X140453904Y-80287809D01*
X140453904Y-80144952D01*
X140406285Y-79954476D01*
X140358666Y-79859238D01*
X140263428Y-79764000D01*
X140120571Y-79716380D01*
X140025333Y-79716380D01*
X139882476Y-79764000D01*
X139834857Y-79811619D01*
X138882476Y-80716380D02*
X139453904Y-80716380D01*
X139168190Y-80716380D02*
X139168190Y-79716380D01*
X139263428Y-79859238D01*
X139358666Y-79954476D01*
X139453904Y-80002095D01*
X138311047Y-80144952D02*
X138406285Y-80097333D01*
X138453904Y-80049714D01*
X138501523Y-79954476D01*
X138501523Y-79906857D01*
X138453904Y-79811619D01*
X138406285Y-79764000D01*
X138311047Y-79716380D01*
X138120571Y-79716380D01*
X138025333Y-79764000D01*
X137977714Y-79811619D01*
X137930095Y-79906857D01*
X137930095Y-79954476D01*
X137977714Y-80049714D01*
X138025333Y-80097333D01*
X138120571Y-80144952D01*
X138311047Y-80144952D01*
X138406285Y-80192571D01*
X138453904Y-80240190D01*
X138501523Y-80335428D01*
X138501523Y-80525904D01*
X138453904Y-80621142D01*
X138406285Y-80668761D01*
X138311047Y-80716380D01*
X138120571Y-80716380D01*
X138025333Y-80668761D01*
X137977714Y-80621142D01*
X137930095Y-80525904D01*
X137930095Y-80335428D01*
X137977714Y-80240190D01*
X138025333Y-80192571D01*
X138120571Y-80144952D01*
X79890857Y-151233142D02*
X79938476Y-151280761D01*
X80081333Y-151328380D01*
X80176571Y-151328380D01*
X80319428Y-151280761D01*
X80414666Y-151185523D01*
X80462285Y-151090285D01*
X80509904Y-150899809D01*
X80509904Y-150756952D01*
X80462285Y-150566476D01*
X80414666Y-150471238D01*
X80319428Y-150376000D01*
X80176571Y-150328380D01*
X80081333Y-150328380D01*
X79938476Y-150376000D01*
X79890857Y-150423619D01*
X78938476Y-151328380D02*
X79509904Y-151328380D01*
X79224190Y-151328380D02*
X79224190Y-150328380D01*
X79319428Y-150471238D01*
X79414666Y-150566476D01*
X79509904Y-150614095D01*
X78462285Y-151328380D02*
X78271809Y-151328380D01*
X78176571Y-151280761D01*
X78128952Y-151233142D01*
X78033714Y-151090285D01*
X77986095Y-150899809D01*
X77986095Y-150518857D01*
X78033714Y-150423619D01*
X78081333Y-150376000D01*
X78176571Y-150328380D01*
X78367047Y-150328380D01*
X78462285Y-150376000D01*
X78509904Y-150423619D01*
X78557523Y-150518857D01*
X78557523Y-150756952D01*
X78509904Y-150852190D01*
X78462285Y-150899809D01*
X78367047Y-150947428D01*
X78176571Y-150947428D01*
X78081333Y-150899809D01*
X78033714Y-150852190D01*
X77986095Y-150756952D01*
X111463057Y-119559342D02*
X111510676Y-119606961D01*
X111653533Y-119654580D01*
X111748771Y-119654580D01*
X111891628Y-119606961D01*
X111986866Y-119511723D01*
X112034485Y-119416485D01*
X112082104Y-119226009D01*
X112082104Y-119083152D01*
X112034485Y-118892676D01*
X111986866Y-118797438D01*
X111891628Y-118702200D01*
X111748771Y-118654580D01*
X111653533Y-118654580D01*
X111510676Y-118702200D01*
X111463057Y-118749819D01*
X111082104Y-118749819D02*
X111034485Y-118702200D01*
X110939247Y-118654580D01*
X110701152Y-118654580D01*
X110605914Y-118702200D01*
X110558295Y-118749819D01*
X110510676Y-118845057D01*
X110510676Y-118940295D01*
X110558295Y-119083152D01*
X111129723Y-119654580D01*
X110510676Y-119654580D01*
X109891628Y-118654580D02*
X109796390Y-118654580D01*
X109701152Y-118702200D01*
X109653533Y-118749819D01*
X109605914Y-118845057D01*
X109558295Y-119035533D01*
X109558295Y-119273628D01*
X109605914Y-119464104D01*
X109653533Y-119559342D01*
X109701152Y-119606961D01*
X109796390Y-119654580D01*
X109891628Y-119654580D01*
X109986866Y-119606961D01*
X110034485Y-119559342D01*
X110082104Y-119464104D01*
X110129723Y-119273628D01*
X110129723Y-119035533D01*
X110082104Y-118845057D01*
X110034485Y-118749819D01*
X109986866Y-118702200D01*
X109891628Y-118654580D01*
X59316857Y-124309142D02*
X59364476Y-124356761D01*
X59507333Y-124404380D01*
X59602571Y-124404380D01*
X59745428Y-124356761D01*
X59840666Y-124261523D01*
X59888285Y-124166285D01*
X59935904Y-123975809D01*
X59935904Y-123832952D01*
X59888285Y-123642476D01*
X59840666Y-123547238D01*
X59745428Y-123452000D01*
X59602571Y-123404380D01*
X59507333Y-123404380D01*
X59364476Y-123452000D01*
X59316857Y-123499619D01*
X58935904Y-123499619D02*
X58888285Y-123452000D01*
X58793047Y-123404380D01*
X58554952Y-123404380D01*
X58459714Y-123452000D01*
X58412095Y-123499619D01*
X58364476Y-123594857D01*
X58364476Y-123690095D01*
X58412095Y-123832952D01*
X58983523Y-124404380D01*
X58364476Y-124404380D01*
X57412095Y-124404380D02*
X57983523Y-124404380D01*
X57697809Y-124404380D02*
X57697809Y-123404380D01*
X57793047Y-123547238D01*
X57888285Y-123642476D01*
X57983523Y-123690095D01*
X60078857Y-149963142D02*
X60126476Y-150010761D01*
X60269333Y-150058380D01*
X60364571Y-150058380D01*
X60507428Y-150010761D01*
X60602666Y-149915523D01*
X60650285Y-149820285D01*
X60697904Y-149629809D01*
X60697904Y-149486952D01*
X60650285Y-149296476D01*
X60602666Y-149201238D01*
X60507428Y-149106000D01*
X60364571Y-149058380D01*
X60269333Y-149058380D01*
X60126476Y-149106000D01*
X60078857Y-149153619D01*
X59697904Y-149153619D02*
X59650285Y-149106000D01*
X59555047Y-149058380D01*
X59316952Y-149058380D01*
X59221714Y-149106000D01*
X59174095Y-149153619D01*
X59126476Y-149248857D01*
X59126476Y-149344095D01*
X59174095Y-149486952D01*
X59745523Y-150058380D01*
X59126476Y-150058380D01*
X58745523Y-149153619D02*
X58697904Y-149106000D01*
X58602666Y-149058380D01*
X58364571Y-149058380D01*
X58269333Y-149106000D01*
X58221714Y-149153619D01*
X58174095Y-149248857D01*
X58174095Y-149344095D01*
X58221714Y-149486952D01*
X58793142Y-150058380D01*
X58174095Y-150058380D01*
X79890857Y-153519142D02*
X79938476Y-153566761D01*
X80081333Y-153614380D01*
X80176571Y-153614380D01*
X80319428Y-153566761D01*
X80414666Y-153471523D01*
X80462285Y-153376285D01*
X80509904Y-153185809D01*
X80509904Y-153042952D01*
X80462285Y-152852476D01*
X80414666Y-152757238D01*
X80319428Y-152662000D01*
X80176571Y-152614380D01*
X80081333Y-152614380D01*
X79938476Y-152662000D01*
X79890857Y-152709619D01*
X79509904Y-152709619D02*
X79462285Y-152662000D01*
X79367047Y-152614380D01*
X79128952Y-152614380D01*
X79033714Y-152662000D01*
X78986095Y-152709619D01*
X78938476Y-152804857D01*
X78938476Y-152900095D01*
X78986095Y-153042952D01*
X79557523Y-153614380D01*
X78938476Y-153614380D01*
X78605142Y-152614380D02*
X77986095Y-152614380D01*
X78319428Y-152995333D01*
X78176571Y-152995333D01*
X78081333Y-153042952D01*
X78033714Y-153090571D01*
X77986095Y-153185809D01*
X77986095Y-153423904D01*
X78033714Y-153519142D01*
X78081333Y-153566761D01*
X78176571Y-153614380D01*
X78462285Y-153614380D01*
X78557523Y-153566761D01*
X78605142Y-153519142D01*
X111463057Y-121591342D02*
X111510676Y-121638961D01*
X111653533Y-121686580D01*
X111748771Y-121686580D01*
X111891628Y-121638961D01*
X111986866Y-121543723D01*
X112034485Y-121448485D01*
X112082104Y-121258009D01*
X112082104Y-121115152D01*
X112034485Y-120924676D01*
X111986866Y-120829438D01*
X111891628Y-120734200D01*
X111748771Y-120686580D01*
X111653533Y-120686580D01*
X111510676Y-120734200D01*
X111463057Y-120781819D01*
X111082104Y-120781819D02*
X111034485Y-120734200D01*
X110939247Y-120686580D01*
X110701152Y-120686580D01*
X110605914Y-120734200D01*
X110558295Y-120781819D01*
X110510676Y-120877057D01*
X110510676Y-120972295D01*
X110558295Y-121115152D01*
X111129723Y-121686580D01*
X110510676Y-121686580D01*
X109653533Y-121019914D02*
X109653533Y-121686580D01*
X109891628Y-120638961D02*
X110129723Y-121353247D01*
X109510676Y-121353247D01*
X59316857Y-126595142D02*
X59364476Y-126642761D01*
X59507333Y-126690380D01*
X59602571Y-126690380D01*
X59745428Y-126642761D01*
X59840666Y-126547523D01*
X59888285Y-126452285D01*
X59935904Y-126261809D01*
X59935904Y-126118952D01*
X59888285Y-125928476D01*
X59840666Y-125833238D01*
X59745428Y-125738000D01*
X59602571Y-125690380D01*
X59507333Y-125690380D01*
X59364476Y-125738000D01*
X59316857Y-125785619D01*
X58935904Y-125785619D02*
X58888285Y-125738000D01*
X58793047Y-125690380D01*
X58554952Y-125690380D01*
X58459714Y-125738000D01*
X58412095Y-125785619D01*
X58364476Y-125880857D01*
X58364476Y-125976095D01*
X58412095Y-126118952D01*
X58983523Y-126690380D01*
X58364476Y-126690380D01*
X57459714Y-125690380D02*
X57935904Y-125690380D01*
X57983523Y-126166571D01*
X57935904Y-126118952D01*
X57840666Y-126071333D01*
X57602571Y-126071333D01*
X57507333Y-126118952D01*
X57459714Y-126166571D01*
X57412095Y-126261809D01*
X57412095Y-126499904D01*
X57459714Y-126595142D01*
X57507333Y-126642761D01*
X57602571Y-126690380D01*
X57840666Y-126690380D01*
X57935904Y-126642761D01*
X57983523Y-126595142D01*
X60078857Y-147931142D02*
X60126476Y-147978761D01*
X60269333Y-148026380D01*
X60364571Y-148026380D01*
X60507428Y-147978761D01*
X60602666Y-147883523D01*
X60650285Y-147788285D01*
X60697904Y-147597809D01*
X60697904Y-147454952D01*
X60650285Y-147264476D01*
X60602666Y-147169238D01*
X60507428Y-147074000D01*
X60364571Y-147026380D01*
X60269333Y-147026380D01*
X60126476Y-147074000D01*
X60078857Y-147121619D01*
X59697904Y-147121619D02*
X59650285Y-147074000D01*
X59555047Y-147026380D01*
X59316952Y-147026380D01*
X59221714Y-147074000D01*
X59174095Y-147121619D01*
X59126476Y-147216857D01*
X59126476Y-147312095D01*
X59174095Y-147454952D01*
X59745523Y-148026380D01*
X59126476Y-148026380D01*
X58269333Y-147026380D02*
X58459809Y-147026380D01*
X58555047Y-147074000D01*
X58602666Y-147121619D01*
X58697904Y-147264476D01*
X58745523Y-147454952D01*
X58745523Y-147835904D01*
X58697904Y-147931142D01*
X58650285Y-147978761D01*
X58555047Y-148026380D01*
X58364571Y-148026380D01*
X58269333Y-147978761D01*
X58221714Y-147931142D01*
X58174095Y-147835904D01*
X58174095Y-147597809D01*
X58221714Y-147502571D01*
X58269333Y-147454952D01*
X58364571Y-147407333D01*
X58555047Y-147407333D01*
X58650285Y-147454952D01*
X58697904Y-147502571D01*
X58745523Y-147597809D01*
X146741740Y-143620085D02*
X146789359Y-143667704D01*
X146932216Y-143715323D01*
X147027454Y-143715323D01*
X147170311Y-143667704D01*
X147265549Y-143572466D01*
X147313168Y-143477228D01*
X147360787Y-143286752D01*
X147360787Y-143143895D01*
X147313168Y-142953419D01*
X147265549Y-142858181D01*
X147170311Y-142762943D01*
X147027454Y-142715323D01*
X146932216Y-142715323D01*
X146789359Y-142762943D01*
X146741740Y-142810562D01*
X146360787Y-142810562D02*
X146313168Y-142762943D01*
X146217930Y-142715323D01*
X145979835Y-142715323D01*
X145884597Y-142762943D01*
X145836978Y-142810562D01*
X145789359Y-142905800D01*
X145789359Y-143001038D01*
X145836978Y-143143895D01*
X146408406Y-143715323D01*
X145789359Y-143715323D01*
X145456025Y-142715323D02*
X144789359Y-142715323D01*
X145217930Y-143715323D01*
X146741740Y-145773142D02*
X146789359Y-145820761D01*
X146932216Y-145868380D01*
X147027454Y-145868380D01*
X147170311Y-145820761D01*
X147265549Y-145725523D01*
X147313168Y-145630285D01*
X147360787Y-145439809D01*
X147360787Y-145296952D01*
X147313168Y-145106476D01*
X147265549Y-145011238D01*
X147170311Y-144916000D01*
X147027454Y-144868380D01*
X146932216Y-144868380D01*
X146789359Y-144916000D01*
X146741740Y-144963619D01*
X146360787Y-144963619D02*
X146313168Y-144916000D01*
X146217930Y-144868380D01*
X145979835Y-144868380D01*
X145884597Y-144916000D01*
X145836978Y-144963619D01*
X145789359Y-145058857D01*
X145789359Y-145154095D01*
X145836978Y-145296952D01*
X146408406Y-145868380D01*
X145789359Y-145868380D01*
X145217930Y-145296952D02*
X145313168Y-145249333D01*
X145360787Y-145201714D01*
X145408406Y-145106476D01*
X145408406Y-145058857D01*
X145360787Y-144963619D01*
X145313168Y-144916000D01*
X145217930Y-144868380D01*
X145027454Y-144868380D01*
X144932216Y-144916000D01*
X144884597Y-144963619D01*
X144836978Y-145058857D01*
X144836978Y-145106476D01*
X144884597Y-145201714D01*
X144932216Y-145249333D01*
X145027454Y-145296952D01*
X145217930Y-145296952D01*
X145313168Y-145344571D01*
X145360787Y-145392190D01*
X145408406Y-145487428D01*
X145408406Y-145677904D01*
X145360787Y-145773142D01*
X145313168Y-145820761D01*
X145217930Y-145868380D01*
X145027454Y-145868380D01*
X144932216Y-145820761D01*
X144884597Y-145773142D01*
X144836978Y-145677904D01*
X144836978Y-145487428D01*
X144884597Y-145392190D01*
X144932216Y-145344571D01*
X145027454Y-145296952D01*
X248292857Y-128245142D02*
X248340476Y-128292761D01*
X248483333Y-128340380D01*
X248578571Y-128340380D01*
X248721428Y-128292761D01*
X248816666Y-128197523D01*
X248864285Y-128102285D01*
X248911904Y-127911809D01*
X248911904Y-127768952D01*
X248864285Y-127578476D01*
X248816666Y-127483238D01*
X248721428Y-127388000D01*
X248578571Y-127340380D01*
X248483333Y-127340380D01*
X248340476Y-127388000D01*
X248292857Y-127435619D01*
X247911904Y-127435619D02*
X247864285Y-127388000D01*
X247769047Y-127340380D01*
X247530952Y-127340380D01*
X247435714Y-127388000D01*
X247388095Y-127435619D01*
X247340476Y-127530857D01*
X247340476Y-127626095D01*
X247388095Y-127768952D01*
X247959523Y-128340380D01*
X247340476Y-128340380D01*
X246864285Y-128340380D02*
X246673809Y-128340380D01*
X246578571Y-128292761D01*
X246530952Y-128245142D01*
X246435714Y-128102285D01*
X246388095Y-127911809D01*
X246388095Y-127530857D01*
X246435714Y-127435619D01*
X246483333Y-127388000D01*
X246578571Y-127340380D01*
X246769047Y-127340380D01*
X246864285Y-127388000D01*
X246911904Y-127435619D01*
X246959523Y-127530857D01*
X246959523Y-127768952D01*
X246911904Y-127864190D01*
X246864285Y-127911809D01*
X246769047Y-127959428D01*
X246578571Y-127959428D01*
X246483333Y-127911809D01*
X246435714Y-127864190D01*
X246388095Y-127768952D01*
X217812857Y-156342000D02*
X217860476Y-156389619D01*
X218003333Y-156437238D01*
X218098571Y-156437238D01*
X218241428Y-156389619D01*
X218336666Y-156294381D01*
X218384285Y-156199143D01*
X218431904Y-156008667D01*
X218431904Y-155865810D01*
X218384285Y-155675334D01*
X218336666Y-155580096D01*
X218241428Y-155484858D01*
X218098571Y-155437238D01*
X218003333Y-155437238D01*
X217860476Y-155484858D01*
X217812857Y-155532477D01*
X217479523Y-155437238D02*
X216860476Y-155437238D01*
X217193809Y-155818191D01*
X217050952Y-155818191D01*
X216955714Y-155865810D01*
X216908095Y-155913429D01*
X216860476Y-156008667D01*
X216860476Y-156246762D01*
X216908095Y-156342000D01*
X216955714Y-156389619D01*
X217050952Y-156437238D01*
X217336666Y-156437238D01*
X217431904Y-156389619D01*
X217479523Y-156342000D01*
X216241428Y-155437238D02*
X216146190Y-155437238D01*
X216050952Y-155484858D01*
X216003333Y-155532477D01*
X215955714Y-155627715D01*
X215908095Y-155818191D01*
X215908095Y-156056286D01*
X215955714Y-156246762D01*
X216003333Y-156342000D01*
X216050952Y-156389619D01*
X216146190Y-156437238D01*
X216241428Y-156437238D01*
X216336666Y-156389619D01*
X216384285Y-156342000D01*
X216431904Y-156246762D01*
X216479523Y-156056286D01*
X216479523Y-155818191D01*
X216431904Y-155627715D01*
X216384285Y-155532477D01*
X216336666Y-155484858D01*
X216241428Y-155437238D01*
X232791006Y-132858145D02*
X232838625Y-132905764D01*
X232981482Y-132953383D01*
X233076720Y-132953383D01*
X233219577Y-132905764D01*
X233314815Y-132810526D01*
X233362434Y-132715288D01*
X233410053Y-132524812D01*
X233410053Y-132381955D01*
X233362434Y-132191479D01*
X233314815Y-132096241D01*
X233219577Y-132001003D01*
X233076720Y-131953383D01*
X232981482Y-131953383D01*
X232838625Y-132001003D01*
X232791006Y-132048622D01*
X232457672Y-131953383D02*
X231838625Y-131953383D01*
X232171958Y-132334336D01*
X232029101Y-132334336D01*
X231933863Y-132381955D01*
X231886244Y-132429574D01*
X231838625Y-132524812D01*
X231838625Y-132762907D01*
X231886244Y-132858145D01*
X231933863Y-132905764D01*
X232029101Y-132953383D01*
X232314815Y-132953383D01*
X232410053Y-132905764D01*
X232457672Y-132858145D01*
X230886244Y-132953383D02*
X231457672Y-132953383D01*
X231171958Y-132953383D02*
X231171958Y-131953383D01*
X231267196Y-132096241D01*
X231362434Y-132191479D01*
X231457672Y-132239098D01*
X197688926Y-37566966D02*
X197736545Y-37614585D01*
X197879402Y-37662204D01*
X197974640Y-37662204D01*
X198117497Y-37614585D01*
X198212735Y-37519347D01*
X198260354Y-37424109D01*
X198307973Y-37233633D01*
X198307973Y-37090776D01*
X198260354Y-36900300D01*
X198212735Y-36805062D01*
X198117497Y-36709824D01*
X197974640Y-36662204D01*
X197879402Y-36662204D01*
X197736545Y-36709824D01*
X197688926Y-36757443D01*
X197355592Y-36662204D02*
X196736545Y-36662204D01*
X197069878Y-37043157D01*
X196927021Y-37043157D01*
X196831783Y-37090776D01*
X196784164Y-37138395D01*
X196736545Y-37233633D01*
X196736545Y-37471728D01*
X196784164Y-37566966D01*
X196831783Y-37614585D01*
X196927021Y-37662204D01*
X197212735Y-37662204D01*
X197307973Y-37614585D01*
X197355592Y-37566966D01*
X196355592Y-36757443D02*
X196307973Y-36709824D01*
X196212735Y-36662204D01*
X195974640Y-36662204D01*
X195879402Y-36709824D01*
X195831783Y-36757443D01*
X195784164Y-36852681D01*
X195784164Y-36947919D01*
X195831783Y-37090776D01*
X196403211Y-37662204D01*
X195784164Y-37662204D01*
X217812857Y-158628000D02*
X217860476Y-158675619D01*
X218003333Y-158723238D01*
X218098571Y-158723238D01*
X218241428Y-158675619D01*
X218336666Y-158580381D01*
X218384285Y-158485143D01*
X218431904Y-158294667D01*
X218431904Y-158151810D01*
X218384285Y-157961334D01*
X218336666Y-157866096D01*
X218241428Y-157770858D01*
X218098571Y-157723238D01*
X218003333Y-157723238D01*
X217860476Y-157770858D01*
X217812857Y-157818477D01*
X217479523Y-157723238D02*
X216860476Y-157723238D01*
X217193809Y-158104191D01*
X217050952Y-158104191D01*
X216955714Y-158151810D01*
X216908095Y-158199429D01*
X216860476Y-158294667D01*
X216860476Y-158532762D01*
X216908095Y-158628000D01*
X216955714Y-158675619D01*
X217050952Y-158723238D01*
X217336666Y-158723238D01*
X217431904Y-158675619D01*
X217479523Y-158628000D01*
X216527142Y-157723238D02*
X215908095Y-157723238D01*
X216241428Y-158104191D01*
X216098571Y-158104191D01*
X216003333Y-158151810D01*
X215955714Y-158199429D01*
X215908095Y-158294667D01*
X215908095Y-158532762D01*
X215955714Y-158628000D01*
X216003333Y-158675619D01*
X216098571Y-158723238D01*
X216384285Y-158723238D01*
X216479523Y-158675619D01*
X216527142Y-158628000D01*
X232791006Y-130826145D02*
X232838625Y-130873764D01*
X232981482Y-130921383D01*
X233076720Y-130921383D01*
X233219577Y-130873764D01*
X233314815Y-130778526D01*
X233362434Y-130683288D01*
X233410053Y-130492812D01*
X233410053Y-130349955D01*
X233362434Y-130159479D01*
X233314815Y-130064241D01*
X233219577Y-129969003D01*
X233076720Y-129921383D01*
X232981482Y-129921383D01*
X232838625Y-129969003D01*
X232791006Y-130016622D01*
X232457672Y-129921383D02*
X231838625Y-129921383D01*
X232171958Y-130302336D01*
X232029101Y-130302336D01*
X231933863Y-130349955D01*
X231886244Y-130397574D01*
X231838625Y-130492812D01*
X231838625Y-130730907D01*
X231886244Y-130826145D01*
X231933863Y-130873764D01*
X232029101Y-130921383D01*
X232314815Y-130921383D01*
X232410053Y-130873764D01*
X232457672Y-130826145D01*
X230981482Y-130254717D02*
X230981482Y-130921383D01*
X231219577Y-129873764D02*
X231457672Y-130588050D01*
X230838625Y-130588050D01*
X248292857Y-125959142D02*
X248340476Y-126006761D01*
X248483333Y-126054380D01*
X248578571Y-126054380D01*
X248721428Y-126006761D01*
X248816666Y-125911523D01*
X248864285Y-125816285D01*
X248911904Y-125625809D01*
X248911904Y-125482952D01*
X248864285Y-125292476D01*
X248816666Y-125197238D01*
X248721428Y-125102000D01*
X248578571Y-125054380D01*
X248483333Y-125054380D01*
X248340476Y-125102000D01*
X248292857Y-125149619D01*
X247959523Y-125054380D02*
X247340476Y-125054380D01*
X247673809Y-125435333D01*
X247530952Y-125435333D01*
X247435714Y-125482952D01*
X247388095Y-125530571D01*
X247340476Y-125625809D01*
X247340476Y-125863904D01*
X247388095Y-125959142D01*
X247435714Y-126006761D01*
X247530952Y-126054380D01*
X247816666Y-126054380D01*
X247911904Y-126006761D01*
X247959523Y-125959142D01*
X246435714Y-125054380D02*
X246911904Y-125054380D01*
X246959523Y-125530571D01*
X246911904Y-125482952D01*
X246816666Y-125435333D01*
X246578571Y-125435333D01*
X246483333Y-125482952D01*
X246435714Y-125530571D01*
X246388095Y-125625809D01*
X246388095Y-125863904D01*
X246435714Y-125959142D01*
X246483333Y-126006761D01*
X246578571Y-126054380D01*
X246816666Y-126054380D01*
X246911904Y-126006761D01*
X246959523Y-125959142D01*
X197688926Y-39598966D02*
X197736545Y-39646585D01*
X197879402Y-39694204D01*
X197974640Y-39694204D01*
X198117497Y-39646585D01*
X198212735Y-39551347D01*
X198260354Y-39456109D01*
X198307973Y-39265633D01*
X198307973Y-39122776D01*
X198260354Y-38932300D01*
X198212735Y-38837062D01*
X198117497Y-38741824D01*
X197974640Y-38694204D01*
X197879402Y-38694204D01*
X197736545Y-38741824D01*
X197688926Y-38789443D01*
X197355592Y-38694204D02*
X196736545Y-38694204D01*
X197069878Y-39075157D01*
X196927021Y-39075157D01*
X196831783Y-39122776D01*
X196784164Y-39170395D01*
X196736545Y-39265633D01*
X196736545Y-39503728D01*
X196784164Y-39598966D01*
X196831783Y-39646585D01*
X196927021Y-39694204D01*
X197212735Y-39694204D01*
X197307973Y-39646585D01*
X197355592Y-39598966D01*
X195879402Y-38694204D02*
X196069878Y-38694204D01*
X196165116Y-38741824D01*
X196212735Y-38789443D01*
X196307973Y-38932300D01*
X196355592Y-39122776D01*
X196355592Y-39503728D01*
X196307973Y-39598966D01*
X196260354Y-39646585D01*
X196165116Y-39694204D01*
X195974640Y-39694204D01*
X195879402Y-39646585D01*
X195831783Y-39598966D01*
X195784164Y-39503728D01*
X195784164Y-39265633D01*
X195831783Y-39170395D01*
X195879402Y-39122776D01*
X195974640Y-39075157D01*
X196165116Y-39075157D01*
X196260354Y-39122776D01*
X196307973Y-39170395D01*
X196355592Y-39265633D01*
X222384857Y-38944404D02*
X222432476Y-38992023D01*
X222575333Y-39039642D01*
X222670571Y-39039642D01*
X222813428Y-38992023D01*
X222908666Y-38896785D01*
X222956285Y-38801547D01*
X223003904Y-38611071D01*
X223003904Y-38468214D01*
X222956285Y-38277738D01*
X222908666Y-38182500D01*
X222813428Y-38087262D01*
X222670571Y-38039642D01*
X222575333Y-38039642D01*
X222432476Y-38087262D01*
X222384857Y-38134881D01*
X222051523Y-38039642D02*
X221432476Y-38039642D01*
X221765809Y-38420595D01*
X221622952Y-38420595D01*
X221527714Y-38468214D01*
X221480095Y-38515833D01*
X221432476Y-38611071D01*
X221432476Y-38849166D01*
X221480095Y-38944404D01*
X221527714Y-38992023D01*
X221622952Y-39039642D01*
X221908666Y-39039642D01*
X222003904Y-38992023D01*
X222051523Y-38944404D01*
X220861047Y-38468214D02*
X220956285Y-38420595D01*
X221003904Y-38372976D01*
X221051523Y-38277738D01*
X221051523Y-38230119D01*
X221003904Y-38134881D01*
X220956285Y-38087262D01*
X220861047Y-38039642D01*
X220670571Y-38039642D01*
X220575333Y-38087262D01*
X220527714Y-38134881D01*
X220480095Y-38230119D01*
X220480095Y-38277738D01*
X220527714Y-38372976D01*
X220575333Y-38420595D01*
X220670571Y-38468214D01*
X220861047Y-38468214D01*
X220956285Y-38515833D01*
X221003904Y-38563452D01*
X221051523Y-38658690D01*
X221051523Y-38849166D01*
X221003904Y-38944404D01*
X220956285Y-38992023D01*
X220861047Y-39039642D01*
X220670571Y-39039642D01*
X220575333Y-38992023D01*
X220527714Y-38944404D01*
X220480095Y-38849166D01*
X220480095Y-38658690D01*
X220527714Y-38563452D01*
X220575333Y-38515833D01*
X220670571Y-38468214D01*
X222384857Y-36404404D02*
X222432476Y-36452023D01*
X222575333Y-36499642D01*
X222670571Y-36499642D01*
X222813428Y-36452023D01*
X222908666Y-36356785D01*
X222956285Y-36261547D01*
X223003904Y-36071071D01*
X223003904Y-35928214D01*
X222956285Y-35737738D01*
X222908666Y-35642500D01*
X222813428Y-35547262D01*
X222670571Y-35499642D01*
X222575333Y-35499642D01*
X222432476Y-35547262D01*
X222384857Y-35594881D01*
X222051523Y-35499642D02*
X221432476Y-35499642D01*
X221765809Y-35880595D01*
X221622952Y-35880595D01*
X221527714Y-35928214D01*
X221480095Y-35975833D01*
X221432476Y-36071071D01*
X221432476Y-36309166D01*
X221480095Y-36404404D01*
X221527714Y-36452023D01*
X221622952Y-36499642D01*
X221908666Y-36499642D01*
X222003904Y-36452023D01*
X222051523Y-36404404D01*
X220956285Y-36499642D02*
X220765809Y-36499642D01*
X220670571Y-36452023D01*
X220622952Y-36404404D01*
X220527714Y-36261547D01*
X220480095Y-36071071D01*
X220480095Y-35690119D01*
X220527714Y-35594881D01*
X220575333Y-35547262D01*
X220670571Y-35499642D01*
X220861047Y-35499642D01*
X220956285Y-35547262D01*
X221003904Y-35594881D01*
X221051523Y-35690119D01*
X221051523Y-35928214D01*
X221003904Y-36023452D01*
X220956285Y-36071071D01*
X220861047Y-36118690D01*
X220670571Y-36118690D01*
X220575333Y-36071071D01*
X220527714Y-36023452D01*
X220480095Y-35928214D01*
X206890857Y-80494142D02*
X206938476Y-80541761D01*
X207081333Y-80589380D01*
X207176571Y-80589380D01*
X207319428Y-80541761D01*
X207414666Y-80446523D01*
X207462285Y-80351285D01*
X207509904Y-80160809D01*
X207509904Y-80017952D01*
X207462285Y-79827476D01*
X207414666Y-79732238D01*
X207319428Y-79637000D01*
X207176571Y-79589380D01*
X207081333Y-79589380D01*
X206938476Y-79637000D01*
X206890857Y-79684619D01*
X206033714Y-79922714D02*
X206033714Y-80589380D01*
X206271809Y-79541761D02*
X206509904Y-80256047D01*
X205890857Y-80256047D01*
X205319428Y-79589380D02*
X205224190Y-79589380D01*
X205128952Y-79637000D01*
X205081333Y-79684619D01*
X205033714Y-79779857D01*
X204986095Y-79970333D01*
X204986095Y-80208428D01*
X205033714Y-80398904D01*
X205081333Y-80494142D01*
X205128952Y-80541761D01*
X205224190Y-80589380D01*
X205319428Y-80589380D01*
X205414666Y-80541761D01*
X205462285Y-80494142D01*
X205509904Y-80398904D01*
X205557523Y-80208428D01*
X205557523Y-79970333D01*
X205509904Y-79779857D01*
X205462285Y-79684619D01*
X205414666Y-79637000D01*
X205319428Y-79589380D01*
X206890857Y-83034142D02*
X206938476Y-83081761D01*
X207081333Y-83129380D01*
X207176571Y-83129380D01*
X207319428Y-83081761D01*
X207414666Y-82986523D01*
X207462285Y-82891285D01*
X207509904Y-82700809D01*
X207509904Y-82557952D01*
X207462285Y-82367476D01*
X207414666Y-82272238D01*
X207319428Y-82177000D01*
X207176571Y-82129380D01*
X207081333Y-82129380D01*
X206938476Y-82177000D01*
X206890857Y-82224619D01*
X206033714Y-82462714D02*
X206033714Y-83129380D01*
X206271809Y-82081761D02*
X206509904Y-82796047D01*
X205890857Y-82796047D01*
X204986095Y-83129380D02*
X205557523Y-83129380D01*
X205271809Y-83129380D02*
X205271809Y-82129380D01*
X205367047Y-82272238D01*
X205462285Y-82367476D01*
X205557523Y-82415095D01*
X251594857Y-150938114D02*
X251642476Y-150985733D01*
X251785333Y-151033352D01*
X251880571Y-151033352D01*
X252023428Y-150985733D01*
X252118666Y-150890495D01*
X252166285Y-150795257D01*
X252213904Y-150604781D01*
X252213904Y-150461924D01*
X252166285Y-150271448D01*
X252118666Y-150176210D01*
X252023428Y-150080972D01*
X251880571Y-150033352D01*
X251785333Y-150033352D01*
X251642476Y-150080972D01*
X251594857Y-150128591D01*
X251261523Y-150033352D02*
X250642476Y-150033352D01*
X250975809Y-150414305D01*
X250832952Y-150414305D01*
X250737714Y-150461924D01*
X250690095Y-150509543D01*
X250642476Y-150604781D01*
X250642476Y-150842876D01*
X250690095Y-150938114D01*
X250737714Y-150985733D01*
X250832952Y-151033352D01*
X251118666Y-151033352D01*
X251213904Y-150985733D01*
X251261523Y-150938114D01*
X250309142Y-150033352D02*
X249642476Y-150033352D01*
X250071047Y-151033352D01*
X251594857Y-148906114D02*
X251642476Y-148953733D01*
X251785333Y-149001352D01*
X251880571Y-149001352D01*
X252023428Y-148953733D01*
X252118666Y-148858495D01*
X252166285Y-148763257D01*
X252213904Y-148572781D01*
X252213904Y-148429924D01*
X252166285Y-148239448D01*
X252118666Y-148144210D01*
X252023428Y-148048972D01*
X251880571Y-148001352D01*
X251785333Y-148001352D01*
X251642476Y-148048972D01*
X251594857Y-148096591D01*
X250737714Y-148334686D02*
X250737714Y-149001352D01*
X250975809Y-147953733D02*
X251213904Y-148668019D01*
X250594857Y-148668019D01*
X250261523Y-148096591D02*
X250213904Y-148048972D01*
X250118666Y-148001352D01*
X249880571Y-148001352D01*
X249785333Y-148048972D01*
X249737714Y-148096591D01*
X249690095Y-148191829D01*
X249690095Y-148287067D01*
X249737714Y-148429924D01*
X250309142Y-149001352D01*
X249690095Y-149001352D01*
X65158857Y-100148380D02*
X65492190Y-99672190D01*
X65730285Y-100148380D02*
X65730285Y-99148380D01*
X65349333Y-99148380D01*
X65254095Y-99196000D01*
X65206476Y-99243619D01*
X65158857Y-99338857D01*
X65158857Y-99481714D01*
X65206476Y-99576952D01*
X65254095Y-99624571D01*
X65349333Y-99672190D01*
X65730285Y-99672190D01*
X64206476Y-100148380D02*
X64777904Y-100148380D01*
X64492190Y-100148380D02*
X64492190Y-99148380D01*
X64587428Y-99291238D01*
X64682666Y-99386476D01*
X64777904Y-99434095D01*
X63301714Y-99148380D02*
X63777904Y-99148380D01*
X63825523Y-99624571D01*
X63777904Y-99576952D01*
X63682666Y-99529333D01*
X63444571Y-99529333D01*
X63349333Y-99576952D01*
X63301714Y-99624571D01*
X63254095Y-99719809D01*
X63254095Y-99957904D01*
X63301714Y-100053142D01*
X63349333Y-100100761D01*
X63444571Y-100148380D01*
X63682666Y-100148380D01*
X63777904Y-100100761D01*
X63825523Y-100053142D01*
X65158857Y-106752380D02*
X65492190Y-106276190D01*
X65730285Y-106752380D02*
X65730285Y-105752380D01*
X65349333Y-105752380D01*
X65254095Y-105800000D01*
X65206476Y-105847619D01*
X65158857Y-105942857D01*
X65158857Y-106085714D01*
X65206476Y-106180952D01*
X65254095Y-106228571D01*
X65349333Y-106276190D01*
X65730285Y-106276190D01*
X64206476Y-106752380D02*
X64777904Y-106752380D01*
X64492190Y-106752380D02*
X64492190Y-105752380D01*
X64587428Y-105895238D01*
X64682666Y-105990476D01*
X64777904Y-106038095D01*
X63349333Y-105752380D02*
X63539809Y-105752380D01*
X63635047Y-105800000D01*
X63682666Y-105847619D01*
X63777904Y-105990476D01*
X63825523Y-106180952D01*
X63825523Y-106561904D01*
X63777904Y-106657142D01*
X63730285Y-106704761D01*
X63635047Y-106752380D01*
X63444571Y-106752380D01*
X63349333Y-106704761D01*
X63301714Y-106657142D01*
X63254095Y-106561904D01*
X63254095Y-106323809D01*
X63301714Y-106228571D01*
X63349333Y-106180952D01*
X63444571Y-106133333D01*
X63635047Y-106133333D01*
X63730285Y-106180952D01*
X63777904Y-106228571D01*
X63825523Y-106323809D01*
X65158857Y-98116380D02*
X65492190Y-97640190D01*
X65730285Y-98116380D02*
X65730285Y-97116380D01*
X65349333Y-97116380D01*
X65254095Y-97164000D01*
X65206476Y-97211619D01*
X65158857Y-97306857D01*
X65158857Y-97449714D01*
X65206476Y-97544952D01*
X65254095Y-97592571D01*
X65349333Y-97640190D01*
X65730285Y-97640190D01*
X64206476Y-98116380D02*
X64777904Y-98116380D01*
X64492190Y-98116380D02*
X64492190Y-97116380D01*
X64587428Y-97259238D01*
X64682666Y-97354476D01*
X64777904Y-97402095D01*
X63873142Y-97116380D02*
X63206476Y-97116380D01*
X63635047Y-98116380D01*
X65158857Y-104720380D02*
X65492190Y-104244190D01*
X65730285Y-104720380D02*
X65730285Y-103720380D01*
X65349333Y-103720380D01*
X65254095Y-103768000D01*
X65206476Y-103815619D01*
X65158857Y-103910857D01*
X65158857Y-104053714D01*
X65206476Y-104148952D01*
X65254095Y-104196571D01*
X65349333Y-104244190D01*
X65730285Y-104244190D01*
X64206476Y-104720380D02*
X64777904Y-104720380D01*
X64492190Y-104720380D02*
X64492190Y-103720380D01*
X64587428Y-103863238D01*
X64682666Y-103958476D01*
X64777904Y-104006095D01*
X63635047Y-104148952D02*
X63730285Y-104101333D01*
X63777904Y-104053714D01*
X63825523Y-103958476D01*
X63825523Y-103910857D01*
X63777904Y-103815619D01*
X63730285Y-103768000D01*
X63635047Y-103720380D01*
X63444571Y-103720380D01*
X63349333Y-103768000D01*
X63301714Y-103815619D01*
X63254095Y-103910857D01*
X63254095Y-103958476D01*
X63301714Y-104053714D01*
X63349333Y-104101333D01*
X63444571Y-104148952D01*
X63635047Y-104148952D01*
X63730285Y-104196571D01*
X63777904Y-104244190D01*
X63825523Y-104339428D01*
X63825523Y-104529904D01*
X63777904Y-104625142D01*
X63730285Y-104672761D01*
X63635047Y-104720380D01*
X63444571Y-104720380D01*
X63349333Y-104672761D01*
X63301714Y-104625142D01*
X63254095Y-104529904D01*
X63254095Y-104339428D01*
X63301714Y-104244190D01*
X63349333Y-104196571D01*
X63444571Y-104148952D01*
X59167875Y-107653840D02*
X59167875Y-108463364D01*
X59120256Y-108558602D01*
X59072637Y-108606221D01*
X58977399Y-108653840D01*
X58786922Y-108653840D01*
X58691684Y-108606221D01*
X58644065Y-108558602D01*
X58596446Y-108463364D01*
X58596446Y-107653840D01*
X57596446Y-108653840D02*
X58167875Y-108653840D01*
X57882160Y-108653840D02*
X57882160Y-107653840D01*
X57977399Y-107796698D01*
X58072637Y-107891936D01*
X58167875Y-107939555D01*
X56739303Y-107653840D02*
X56929780Y-107653840D01*
X57025018Y-107701460D01*
X57072637Y-107749079D01*
X57167875Y-107891936D01*
X57215494Y-108082412D01*
X57215494Y-108463364D01*
X57167875Y-108558602D01*
X57120256Y-108606221D01*
X57025018Y-108653840D01*
X56834541Y-108653840D01*
X56739303Y-108606221D01*
X56691684Y-108558602D01*
X56644065Y-108463364D01*
X56644065Y-108225269D01*
X56691684Y-108130031D01*
X56739303Y-108082412D01*
X56834541Y-108034793D01*
X57025018Y-108034793D01*
X57120256Y-108082412D01*
X57167875Y-108130031D01*
X57215494Y-108225269D01*
X75912858Y-108147380D02*
X76246191Y-107671190D01*
X76484286Y-108147380D02*
X76484286Y-107147380D01*
X76103334Y-107147380D01*
X76008096Y-107195000D01*
X75960477Y-107242619D01*
X75912858Y-107337857D01*
X75912858Y-107480714D01*
X75960477Y-107575952D01*
X76008096Y-107623571D01*
X76103334Y-107671190D01*
X76484286Y-107671190D01*
X74960477Y-108147380D02*
X75531905Y-108147380D01*
X75246191Y-108147380D02*
X75246191Y-107147380D01*
X75341429Y-107290238D01*
X75436667Y-107385476D01*
X75531905Y-107433095D01*
X74484286Y-108147380D02*
X74293810Y-108147380D01*
X74198572Y-108099761D01*
X74150953Y-108052142D01*
X74055715Y-107909285D01*
X74008096Y-107718809D01*
X74008096Y-107337857D01*
X74055715Y-107242619D01*
X74103334Y-107195000D01*
X74198572Y-107147380D01*
X74389048Y-107147380D01*
X74484286Y-107195000D01*
X74531905Y-107242619D01*
X74579524Y-107337857D01*
X74579524Y-107575952D01*
X74531905Y-107671190D01*
X74484286Y-107718809D01*
X74389048Y-107766428D01*
X74198572Y-107766428D01*
X74103334Y-107718809D01*
X74055715Y-107671190D01*
X74008096Y-107575952D01*
X75912858Y-102226609D02*
X76246191Y-101750419D01*
X76484286Y-102226609D02*
X76484286Y-101226609D01*
X76103334Y-101226609D01*
X76008096Y-101274229D01*
X75960477Y-101321848D01*
X75912858Y-101417086D01*
X75912858Y-101559943D01*
X75960477Y-101655181D01*
X76008096Y-101702800D01*
X76103334Y-101750419D01*
X76484286Y-101750419D01*
X75531905Y-101321848D02*
X75484286Y-101274229D01*
X75389048Y-101226609D01*
X75150953Y-101226609D01*
X75055715Y-101274229D01*
X75008096Y-101321848D01*
X74960477Y-101417086D01*
X74960477Y-101512324D01*
X75008096Y-101655181D01*
X75579524Y-102226609D01*
X74960477Y-102226609D01*
X74341429Y-101226609D02*
X74246191Y-101226609D01*
X74150953Y-101274229D01*
X74103334Y-101321848D01*
X74055715Y-101417086D01*
X74008096Y-101607562D01*
X74008096Y-101845657D01*
X74055715Y-102036133D01*
X74103334Y-102131371D01*
X74150953Y-102178990D01*
X74246191Y-102226609D01*
X74341429Y-102226609D01*
X74436667Y-102178990D01*
X74484286Y-102131371D01*
X74531905Y-102036133D01*
X74579524Y-101845657D01*
X74579524Y-101607562D01*
X74531905Y-101417086D01*
X74484286Y-101321848D01*
X74436667Y-101274229D01*
X74341429Y-101226609D01*
X75912858Y-105988380D02*
X76246191Y-105512190D01*
X76484286Y-105988380D02*
X76484286Y-104988380D01*
X76103334Y-104988380D01*
X76008096Y-105036000D01*
X75960477Y-105083619D01*
X75912858Y-105178857D01*
X75912858Y-105321714D01*
X75960477Y-105416952D01*
X76008096Y-105464571D01*
X76103334Y-105512190D01*
X76484286Y-105512190D01*
X75531905Y-105083619D02*
X75484286Y-105036000D01*
X75389048Y-104988380D01*
X75150953Y-104988380D01*
X75055715Y-105036000D01*
X75008096Y-105083619D01*
X74960477Y-105178857D01*
X74960477Y-105274095D01*
X75008096Y-105416952D01*
X75579524Y-105988380D01*
X74960477Y-105988380D01*
X74008096Y-105988380D02*
X74579524Y-105988380D01*
X74293810Y-105988380D02*
X74293810Y-104988380D01*
X74389048Y-105131238D01*
X74484286Y-105226476D01*
X74579524Y-105274095D01*
X75912858Y-100146380D02*
X76246191Y-99670190D01*
X76484286Y-100146380D02*
X76484286Y-99146380D01*
X76103334Y-99146380D01*
X76008096Y-99194000D01*
X75960477Y-99241619D01*
X75912858Y-99336857D01*
X75912858Y-99479714D01*
X75960477Y-99574952D01*
X76008096Y-99622571D01*
X76103334Y-99670190D01*
X76484286Y-99670190D01*
X75531905Y-99241619D02*
X75484286Y-99194000D01*
X75389048Y-99146380D01*
X75150953Y-99146380D01*
X75055715Y-99194000D01*
X75008096Y-99241619D01*
X74960477Y-99336857D01*
X74960477Y-99432095D01*
X75008096Y-99574952D01*
X75579524Y-100146380D01*
X74960477Y-100146380D01*
X74579524Y-99241619D02*
X74531905Y-99194000D01*
X74436667Y-99146380D01*
X74198572Y-99146380D01*
X74103334Y-99194000D01*
X74055715Y-99241619D01*
X74008096Y-99336857D01*
X74008096Y-99432095D01*
X74055715Y-99574952D01*
X74627143Y-100146380D01*
X74008096Y-100146380D01*
X85900876Y-97903744D02*
X85900876Y-98713268D01*
X85853257Y-98808506D01*
X85805638Y-98856125D01*
X85710400Y-98903744D01*
X85519923Y-98903744D01*
X85424685Y-98856125D01*
X85377066Y-98808506D01*
X85329447Y-98713268D01*
X85329447Y-97903744D01*
X84329447Y-98903744D02*
X84900876Y-98903744D01*
X84615161Y-98903744D02*
X84615161Y-97903744D01*
X84710400Y-98046602D01*
X84805638Y-98141840D01*
X84900876Y-98189459D01*
X83996114Y-97903744D02*
X83329447Y-97903744D01*
X83758019Y-98903744D01*
X298553095Y-41132380D02*
X298553095Y-40132380D01*
X298315000Y-40132380D01*
X298172142Y-40180000D01*
X298076904Y-40275238D01*
X298029285Y-40370476D01*
X297981666Y-40560952D01*
X297981666Y-40703809D01*
X298029285Y-40894285D01*
X298076904Y-40989523D01*
X298172142Y-41084761D01*
X298315000Y-41132380D01*
X298553095Y-41132380D01*
X297505476Y-41132380D02*
X297315000Y-41132380D01*
X297219761Y-41084761D01*
X297172142Y-41037142D01*
X297076904Y-40894285D01*
X297029285Y-40703809D01*
X297029285Y-40322857D01*
X297076904Y-40227619D01*
X297124523Y-40180000D01*
X297219761Y-40132380D01*
X297410238Y-40132380D01*
X297505476Y-40180000D01*
X297553095Y-40227619D01*
X297600714Y-40322857D01*
X297600714Y-40560952D01*
X297553095Y-40656190D01*
X297505476Y-40703809D01*
X297410238Y-40751428D01*
X297219761Y-40751428D01*
X297124523Y-40703809D01*
X297076904Y-40656190D01*
X297029285Y-40560952D01*
X37980857Y-95479142D02*
X38028476Y-95526761D01*
X38171333Y-95574380D01*
X38266571Y-95574380D01*
X38409428Y-95526761D01*
X38504666Y-95431523D01*
X38552285Y-95336285D01*
X38599904Y-95145809D01*
X38599904Y-95002952D01*
X38552285Y-94812476D01*
X38504666Y-94717238D01*
X38409428Y-94622000D01*
X38266571Y-94574380D01*
X38171333Y-94574380D01*
X38028476Y-94622000D01*
X37980857Y-94669619D01*
X37123714Y-94907714D02*
X37123714Y-95574380D01*
X37361809Y-94526761D02*
X37599904Y-95241047D01*
X36980857Y-95241047D01*
X36695142Y-94574380D02*
X36076095Y-94574380D01*
X36409428Y-94955333D01*
X36266571Y-94955333D01*
X36171333Y-95002952D01*
X36123714Y-95050571D01*
X36076095Y-95145809D01*
X36076095Y-95383904D01*
X36123714Y-95479142D01*
X36171333Y-95526761D01*
X36266571Y-95574380D01*
X36552285Y-95574380D01*
X36647523Y-95526761D01*
X36695142Y-95479142D01*
X37980857Y-107163142D02*
X38028476Y-107210761D01*
X38171333Y-107258380D01*
X38266571Y-107258380D01*
X38409428Y-107210761D01*
X38504666Y-107115523D01*
X38552285Y-107020285D01*
X38599904Y-106829809D01*
X38599904Y-106686952D01*
X38552285Y-106496476D01*
X38504666Y-106401238D01*
X38409428Y-106306000D01*
X38266571Y-106258380D01*
X38171333Y-106258380D01*
X38028476Y-106306000D01*
X37980857Y-106353619D01*
X37123714Y-106591714D02*
X37123714Y-107258380D01*
X37361809Y-106210761D02*
X37599904Y-106925047D01*
X36980857Y-106925047D01*
X36171333Y-106591714D02*
X36171333Y-107258380D01*
X36409428Y-106210761D02*
X36647523Y-106925047D01*
X36028476Y-106925047D01*
X37980857Y-89226380D02*
X38314190Y-88750190D01*
X38552285Y-89226380D02*
X38552285Y-88226380D01*
X38171333Y-88226380D01*
X38076095Y-88274000D01*
X38028476Y-88321619D01*
X37980857Y-88416857D01*
X37980857Y-88559714D01*
X38028476Y-88654952D01*
X38076095Y-88702571D01*
X38171333Y-88750190D01*
X38552285Y-88750190D01*
X37599904Y-88321619D02*
X37552285Y-88274000D01*
X37457047Y-88226380D01*
X37218952Y-88226380D01*
X37123714Y-88274000D01*
X37076095Y-88321619D01*
X37028476Y-88416857D01*
X37028476Y-88512095D01*
X37076095Y-88654952D01*
X37647523Y-89226380D01*
X37028476Y-89226380D01*
X36695142Y-88226380D02*
X36076095Y-88226380D01*
X36409428Y-88607333D01*
X36266571Y-88607333D01*
X36171333Y-88654952D01*
X36123714Y-88702571D01*
X36076095Y-88797809D01*
X36076095Y-89035904D01*
X36123714Y-89131142D01*
X36171333Y-89178761D01*
X36266571Y-89226380D01*
X36552285Y-89226380D01*
X36647523Y-89178761D01*
X36695142Y-89131142D01*
X37980857Y-100910380D02*
X38314190Y-100434190D01*
X38552285Y-100910380D02*
X38552285Y-99910380D01*
X38171333Y-99910380D01*
X38076095Y-99958000D01*
X38028476Y-100005619D01*
X37980857Y-100100857D01*
X37980857Y-100243714D01*
X38028476Y-100338952D01*
X38076095Y-100386571D01*
X38171333Y-100434190D01*
X38552285Y-100434190D01*
X37599904Y-100005619D02*
X37552285Y-99958000D01*
X37457047Y-99910380D01*
X37218952Y-99910380D01*
X37123714Y-99958000D01*
X37076095Y-100005619D01*
X37028476Y-100100857D01*
X37028476Y-100196095D01*
X37076095Y-100338952D01*
X37647523Y-100910380D01*
X37028476Y-100910380D01*
X36171333Y-100243714D02*
X36171333Y-100910380D01*
X36409428Y-99862761D02*
X36647523Y-100577047D01*
X36028476Y-100577047D01*
M02*
