%TF.GenerationSoftware,KiCad,Pcbnew,(5.0.2)-1*%
%TF.CreationDate,2019-11-19T01:28:37+09:00*%
%TF.ProjectId,sensor_board,73656e73-6f72-45f6-926f-6172642e6b69,rev?*%
%TF.SameCoordinates,Original*%
%TF.FileFunction,Legend,Top*%
%TF.FilePolarity,Positive*%
%FSLAX46Y46*%
G04 Gerber Fmt 4.6, Leading zero omitted, Abs format (unit mm)*
G04 Created by KiCad (PCBNEW (5.0.2)-1) date 2019-11-19 오전 1:28:37*
%MOMM*%
%LPD*%
G01*
G04 APERTURE LIST*
%ADD10C,0.100000*%
%ADD11C,0.500000*%
%ADD12C,0.150000*%
%ADD13C,0.120000*%
G04 APERTURE END LIST*
D10*
X137160000Y-134620000D02*
X137160000Y-152400000D01*
X137160000Y-152400000D02*
X134620000Y-152400000D01*
X134620000Y-152400000D02*
X134620000Y-134620000D01*
X134620000Y-134620000D02*
X137160000Y-134620000D01*
X58420000Y-137160000D02*
X58420000Y-154940000D01*
X58420000Y-154940000D02*
X55880000Y-154940000D01*
X55880000Y-137160000D02*
X58420000Y-137160000D01*
X55880000Y-154940000D02*
X55880000Y-137160000D01*
X292100000Y-25400000D02*
X309880000Y-25400000D01*
X309880000Y-25400000D02*
X309880000Y-27940000D01*
X292100000Y-27940000D02*
X292100000Y-25400000D01*
X309880000Y-27940000D02*
X292100000Y-27940000D01*
X269240000Y-25400000D02*
X287020000Y-25400000D01*
X287020000Y-25400000D02*
X287020000Y-27940000D01*
X269240000Y-27940000D02*
X269240000Y-25400000D01*
X287020000Y-27940000D02*
X269240000Y-27940000D01*
X269240000Y-60960000D02*
X287020000Y-60960000D01*
X287020000Y-60960000D02*
X287020000Y-63500000D01*
X269240000Y-63500000D02*
X269240000Y-60960000D01*
X287020000Y-63500000D02*
X269240000Y-63500000D01*
X261620000Y-109220000D02*
X279400000Y-109220000D01*
X279400000Y-109220000D02*
X279400000Y-111760000D01*
X261620000Y-111760000D02*
X261620000Y-109220000D01*
X279400000Y-111760000D02*
X261620000Y-111760000D01*
X236220000Y-109220000D02*
X254000000Y-109220000D01*
X254000000Y-109220000D02*
X254000000Y-111760000D01*
X236220000Y-111760000D02*
X236220000Y-109220000D01*
X254000000Y-111760000D02*
X236220000Y-111760000D01*
X259080000Y-88900000D02*
X259080000Y-71120000D01*
X259080000Y-71120000D02*
X261620000Y-71120000D01*
X261620000Y-88900000D02*
X259080000Y-88900000D01*
X261620000Y-71120000D02*
X261620000Y-88900000D01*
X309880000Y-160020000D02*
X309880000Y-142240000D01*
X309880000Y-142240000D02*
X312420000Y-142240000D01*
X312420000Y-160020000D02*
X309880000Y-160020000D01*
X312420000Y-142240000D02*
X312420000Y-160020000D01*
X205740000Y-142240000D02*
X205740000Y-160020000D01*
X205740000Y-160020000D02*
X203200000Y-160020000D01*
X203200000Y-142240000D02*
X205740000Y-142240000D01*
X203200000Y-160020000D02*
X203200000Y-142240000D01*
X182880000Y-78740000D02*
X200660000Y-78740000D01*
X200660000Y-78740000D02*
X200660000Y-81280000D01*
X182880000Y-81280000D02*
X182880000Y-78740000D01*
X200660000Y-81280000D02*
X182880000Y-81280000D01*
X236220000Y-60960000D02*
X254000000Y-60960000D01*
X254000000Y-60960000D02*
X254000000Y-63500000D01*
X236220000Y-63500000D02*
X236220000Y-60960000D01*
X254000000Y-63500000D02*
X236220000Y-63500000D01*
X121920000Y-114300000D02*
X121920000Y-132080000D01*
X121920000Y-132080000D02*
X119380000Y-132080000D01*
X119380000Y-132080000D02*
X119380000Y-114300000D01*
X119380000Y-114300000D02*
X121920000Y-114300000D01*
X127000000Y-134620000D02*
X127000000Y-152400000D01*
X127000000Y-152400000D02*
X124460000Y-152400000D01*
X124460000Y-152400000D02*
X124460000Y-134620000D01*
X124460000Y-134620000D02*
X127000000Y-134620000D01*
X160020000Y-142240000D02*
X160020000Y-160020000D01*
X160020000Y-160020000D02*
X157480000Y-160020000D01*
X157480000Y-160020000D02*
X157480000Y-142240000D01*
X157480000Y-142240000D02*
X160020000Y-142240000D01*
X88900000Y-139700000D02*
X88900000Y-157480000D01*
X88900000Y-157480000D02*
X86360000Y-157480000D01*
X86360000Y-157480000D02*
X86360000Y-139700000D01*
X86360000Y-139700000D02*
X88900000Y-139700000D01*
X83820000Y-114300000D02*
X83820000Y-132080000D01*
X83820000Y-132080000D02*
X81280000Y-132080000D01*
X81280000Y-132080000D02*
X81280000Y-114300000D01*
X81280000Y-114300000D02*
X83820000Y-114300000D01*
X114300000Y-45720000D02*
X114300000Y-63500000D01*
X114300000Y-63500000D02*
X111760000Y-63500000D01*
X111760000Y-63500000D02*
X111760000Y-45720000D01*
X111760000Y-45720000D02*
X114300000Y-45720000D01*
X86360000Y-45720000D02*
X86360000Y-63500000D01*
X86360000Y-63500000D02*
X83820000Y-63500000D01*
X83820000Y-63500000D02*
X83820000Y-45720000D01*
X83820000Y-45720000D02*
X86360000Y-45720000D01*
X78740000Y-45720000D02*
X78740000Y-63500000D01*
X78740000Y-63500000D02*
X76200000Y-63500000D01*
X76200000Y-63500000D02*
X76200000Y-45720000D01*
X76200000Y-45720000D02*
X78740000Y-45720000D01*
X302260000Y-142240000D02*
X302260000Y-160020000D01*
X302260000Y-160020000D02*
X299720000Y-160020000D01*
X299720000Y-160020000D02*
X299720000Y-142240000D01*
X299720000Y-142240000D02*
X302260000Y-142240000D01*
X292100000Y-142240000D02*
X292100000Y-160020000D01*
X292100000Y-160020000D02*
X289560000Y-160020000D01*
X289560000Y-160020000D02*
X289560000Y-142240000D01*
X289560000Y-142240000D02*
X292100000Y-142240000D01*
X297180000Y-93980000D02*
X297180000Y-111760000D01*
X297180000Y-111760000D02*
X294640000Y-111760000D01*
X294640000Y-111760000D02*
X294640000Y-93980000D01*
X294640000Y-93980000D02*
X297180000Y-93980000D01*
X307340000Y-93980000D02*
X307340000Y-111760000D01*
X307340000Y-111760000D02*
X304800000Y-111760000D01*
X304800000Y-111760000D02*
X304800000Y-93980000D01*
X304800000Y-93980000D02*
X307340000Y-93980000D01*
X312420000Y-71120000D02*
X312420000Y-88900000D01*
X312420000Y-88900000D02*
X309880000Y-88900000D01*
X309880000Y-88900000D02*
X309880000Y-71120000D01*
X309880000Y-71120000D02*
X312420000Y-71120000D01*
X66040000Y-45720000D02*
X66040000Y-63500000D01*
X66040000Y-63500000D02*
X63500000Y-63500000D01*
X48260000Y-45720000D02*
X50800000Y-45720000D01*
X50800000Y-63500000D02*
X48260000Y-63500000D01*
X63500000Y-63500000D02*
X63500000Y-45720000D01*
X50800000Y-45720000D02*
X50800000Y-63500000D01*
X48260000Y-63500000D02*
X48260000Y-45720000D01*
X63500000Y-45720000D02*
X66040000Y-45720000D01*
X55880000Y-63500000D02*
X55880000Y-45720000D01*
X55880000Y-45720000D02*
X58420000Y-45720000D01*
X58420000Y-45720000D02*
X58420000Y-63500000D01*
X58420000Y-63500000D02*
X55880000Y-63500000D01*
X33020000Y-162560000D02*
X50800000Y-162560000D01*
X50800000Y-162560000D02*
X50800000Y-165100000D01*
X88900000Y-165100000D02*
X88900000Y-162560000D01*
X106680000Y-162560000D02*
X106680000Y-165100000D01*
X50800000Y-165100000D02*
X33020000Y-165100000D01*
X88900000Y-162560000D02*
X106680000Y-162560000D01*
X106680000Y-165100000D02*
X88900000Y-165100000D01*
X33020000Y-165100000D02*
X33020000Y-162560000D01*
X78740000Y-165100000D02*
X60960000Y-165100000D01*
X60960000Y-165100000D02*
X60960000Y-162560000D01*
X60960000Y-162560000D02*
X78740000Y-162560000D01*
X78740000Y-162560000D02*
X78740000Y-165100000D01*
X279400000Y-160020000D02*
X279400000Y-142240000D01*
X279400000Y-142240000D02*
X281940000Y-142240000D01*
X281940000Y-142240000D02*
X281940000Y-160020000D01*
X281940000Y-160020000D02*
X279400000Y-160020000D01*
X271780000Y-142240000D02*
X271780000Y-160020000D01*
X271780000Y-160020000D02*
X269240000Y-160020000D01*
X259080000Y-142240000D02*
X261620000Y-142240000D01*
X261620000Y-160020000D02*
X259080000Y-160020000D01*
X269240000Y-160020000D02*
X269240000Y-142240000D01*
X261620000Y-142240000D02*
X261620000Y-160020000D01*
X259080000Y-160020000D02*
X259080000Y-142240000D01*
X269240000Y-142240000D02*
X271780000Y-142240000D01*
X297180000Y-119380000D02*
X297180000Y-137160000D01*
X297180000Y-137160000D02*
X294640000Y-137160000D01*
X274320000Y-119380000D02*
X276860000Y-119380000D01*
X276860000Y-137160000D02*
X274320000Y-137160000D01*
X294640000Y-137160000D02*
X294640000Y-119380000D01*
X276860000Y-119380000D02*
X276860000Y-137160000D01*
X274320000Y-137160000D02*
X274320000Y-119380000D01*
X294640000Y-119380000D02*
X297180000Y-119380000D01*
X284480000Y-137160000D02*
X284480000Y-119380000D01*
X284480000Y-119380000D02*
X287020000Y-119380000D01*
X287020000Y-119380000D02*
X287020000Y-137160000D01*
X287020000Y-137160000D02*
X284480000Y-137160000D01*
X266700000Y-119380000D02*
X266700000Y-137160000D01*
X266700000Y-137160000D02*
X264160000Y-137160000D01*
X254000000Y-119380000D02*
X256540000Y-119380000D01*
X256540000Y-137160000D02*
X254000000Y-137160000D01*
X264160000Y-137160000D02*
X264160000Y-119380000D01*
X256540000Y-119380000D02*
X256540000Y-137160000D01*
X254000000Y-137160000D02*
X254000000Y-119380000D01*
X264160000Y-119380000D02*
X266700000Y-119380000D01*
X195580000Y-142240000D02*
X195580000Y-160020000D01*
X195580000Y-160020000D02*
X193040000Y-160020000D01*
X182880000Y-142240000D02*
X185420000Y-142240000D01*
X185420000Y-160020000D02*
X182880000Y-160020000D01*
X193040000Y-160020000D02*
X193040000Y-142240000D01*
X185420000Y-142240000D02*
X185420000Y-160020000D01*
X182880000Y-160020000D02*
X182880000Y-142240000D01*
X193040000Y-142240000D02*
X195580000Y-142240000D01*
X200660000Y-119380000D02*
X200660000Y-137160000D01*
X200660000Y-137160000D02*
X198120000Y-137160000D01*
X177800000Y-119380000D02*
X180340000Y-119380000D01*
X180340000Y-137160000D02*
X177800000Y-137160000D01*
X198120000Y-137160000D02*
X198120000Y-119380000D01*
X180340000Y-119380000D02*
X180340000Y-137160000D01*
X177800000Y-137160000D02*
X177800000Y-119380000D01*
X198120000Y-119380000D02*
X200660000Y-119380000D01*
X187960000Y-137160000D02*
X187960000Y-119380000D01*
X187960000Y-119380000D02*
X190500000Y-119380000D01*
X190500000Y-119380000D02*
X190500000Y-137160000D01*
X190500000Y-137160000D02*
X187960000Y-137160000D01*
X48260000Y-137160000D02*
X48260000Y-154940000D01*
X48260000Y-154940000D02*
X45720000Y-154940000D01*
X25400000Y-137160000D02*
X27940000Y-137160000D01*
X27940000Y-154940000D02*
X25400000Y-154940000D01*
X45720000Y-154940000D02*
X45720000Y-137160000D01*
X27940000Y-137160000D02*
X27940000Y-154940000D01*
X25400000Y-154940000D02*
X25400000Y-137160000D01*
X45720000Y-137160000D02*
X48260000Y-137160000D01*
X35560000Y-154940000D02*
X35560000Y-137160000D01*
X35560000Y-137160000D02*
X38100000Y-137160000D01*
X38100000Y-137160000D02*
X38100000Y-154940000D01*
X38100000Y-154940000D02*
X35560000Y-154940000D01*
X30480000Y-114300000D02*
X33020000Y-114300000D01*
X33020000Y-132080000D02*
X30480000Y-132080000D01*
X33020000Y-114300000D02*
X33020000Y-132080000D01*
X30480000Y-132080000D02*
X30480000Y-114300000D01*
X40640000Y-132080000D02*
X40640000Y-114300000D01*
X40640000Y-114300000D02*
X43180000Y-114300000D01*
X43180000Y-114300000D02*
X43180000Y-132080000D01*
X43180000Y-132080000D02*
X40640000Y-132080000D01*
X157480000Y-119380000D02*
X157480000Y-137160000D01*
X157480000Y-137160000D02*
X154940000Y-137160000D01*
X132080000Y-101600000D02*
X134620000Y-101600000D01*
X134620000Y-119380000D02*
X132080000Y-119380000D01*
X154940000Y-137160000D02*
X154940000Y-119380000D01*
X134620000Y-101600000D02*
X134620000Y-119380000D01*
X132080000Y-119380000D02*
X132080000Y-101600000D01*
X154940000Y-119380000D02*
X157480000Y-119380000D01*
X139700000Y-119126000D02*
X139700000Y-101346000D01*
X139700000Y-101346000D02*
X142240000Y-101346000D01*
X142240000Y-101346000D02*
X142240000Y-119126000D01*
X142240000Y-119126000D02*
X139700000Y-119126000D01*
X205740000Y-91440000D02*
X205740000Y-109220000D01*
X205740000Y-109220000D02*
X203200000Y-109220000D01*
X203200000Y-109220000D02*
X203200000Y-91440000D01*
X203200000Y-91440000D02*
X205740000Y-91440000D01*
X182880000Y-91440000D02*
X185420000Y-91440000D01*
X185420000Y-91440000D02*
X185420000Y-109220000D01*
X182880000Y-109220000D02*
X182880000Y-91440000D01*
X185420000Y-109220000D02*
X182880000Y-109220000D01*
X195580000Y-91440000D02*
X195580000Y-109220000D01*
X193040000Y-109220000D02*
X193040000Y-91440000D01*
X195580000Y-109220000D02*
X193040000Y-109220000D01*
X193040000Y-91440000D02*
X195580000Y-91440000D01*
X269240000Y-53340000D02*
X269240000Y-50800000D01*
X269240000Y-50800000D02*
X287020000Y-50800000D01*
X287020000Y-53340000D02*
X269240000Y-53340000D01*
X287020000Y-50800000D02*
X287020000Y-53340000D01*
X236220000Y-53340000D02*
X236220000Y-50800000D01*
X236220000Y-50800000D02*
X254000000Y-50800000D01*
X254000000Y-53340000D02*
X236220000Y-53340000D01*
X254000000Y-50800000D02*
X254000000Y-53340000D01*
X236220000Y-43180000D02*
X236220000Y-40640000D01*
X236220000Y-40640000D02*
X254000000Y-40640000D01*
X254000000Y-43180000D02*
X236220000Y-43180000D01*
X254000000Y-40640000D02*
X254000000Y-43180000D01*
X299720000Y-71120000D02*
X302260000Y-71120000D01*
X302260000Y-71120000D02*
X302260000Y-88900000D01*
X299720000Y-88900000D02*
X299720000Y-71120000D01*
X302260000Y-88900000D02*
X299720000Y-88900000D01*
X289560000Y-71120000D02*
X292100000Y-71120000D01*
X292100000Y-71120000D02*
X292100000Y-88900000D01*
X289560000Y-88900000D02*
X289560000Y-71120000D01*
X292100000Y-88900000D02*
X289560000Y-88900000D01*
X279400000Y-71120000D02*
X281940000Y-71120000D01*
X281940000Y-71120000D02*
X281940000Y-88900000D01*
X279400000Y-88900000D02*
X279400000Y-71120000D01*
X281940000Y-88900000D02*
X279400000Y-88900000D01*
X269240000Y-71120000D02*
X271780000Y-71120000D01*
X271780000Y-71120000D02*
X271780000Y-88900000D01*
X269240000Y-88900000D02*
X269240000Y-71120000D01*
X271780000Y-88900000D02*
X269240000Y-88900000D01*
X248920000Y-71120000D02*
X251460000Y-71120000D01*
X251460000Y-71120000D02*
X251460000Y-88900000D01*
X248920000Y-88900000D02*
X248920000Y-71120000D01*
X251460000Y-88900000D02*
X248920000Y-88900000D01*
X238760000Y-88900000D02*
X238760000Y-71120000D01*
X241300000Y-88900000D02*
X238760000Y-88900000D01*
X238760000Y-71120000D02*
X241300000Y-71120000D01*
X241300000Y-71120000D02*
X241300000Y-88900000D01*
X171000000Y-169000000D02*
X169000000Y-169000000D01*
X171000000Y-21000000D02*
X169000000Y-21000000D01*
X171000000Y-21000000D02*
X171000000Y-169000000D01*
X169000000Y-21000000D02*
X169000000Y-169000000D01*
D11*
X320000000Y-20000000D02*
X320000000Y-170000000D01*
X20000000Y-170000000D02*
X320000000Y-170000000D01*
X20000000Y-20000000D02*
X320000000Y-20000000D01*
X20000000Y-20000000D02*
X20000000Y-170000000D01*
D12*
X213360000Y-78232000D02*
X215900000Y-78232000D01*
X214630000Y-79502000D02*
X213360000Y-78232000D01*
X215900000Y-78232000D02*
X214630000Y-79502000D01*
X215900000Y-87122000D02*
X212090000Y-87122000D01*
X215900000Y-79502000D02*
X215900000Y-87122000D01*
X212090000Y-79502000D02*
X215900000Y-79502000D01*
X212090000Y-87122000D02*
X212090000Y-79502000D01*
X227894471Y-84825607D02*
X230434471Y-87365607D01*
X232974471Y-84825607D02*
X227894471Y-84825607D01*
X230434471Y-87365607D02*
X232974471Y-84825607D01*
X220980000Y-111252000D02*
X220980000Y-71252000D01*
X172980000Y-71252000D02*
X220980000Y-71252000D01*
X172980000Y-111252000D02*
X172980000Y-71252000D01*
X220980000Y-111252000D02*
X172980000Y-111252000D01*
D13*
X228475367Y-88911423D02*
X229805367Y-88911423D01*
X228475367Y-90241423D02*
X228475367Y-88911423D01*
X228475367Y-91511423D02*
X231135367Y-91511423D01*
X231135367Y-91511423D02*
X231135367Y-99191423D01*
X228475367Y-91511423D02*
X228475367Y-99191423D01*
X228475367Y-99191423D02*
X231135367Y-99191423D01*
D12*
X240792000Y-143510000D02*
X243332000Y-146050000D01*
X245872000Y-143510000D02*
X240792000Y-143510000D01*
X243332000Y-146050000D02*
X245872000Y-143510000D01*
X309332000Y-162590000D02*
X291592000Y-162590000D01*
X291592000Y-140590000D02*
X309332000Y-140590000D01*
X240332000Y-140590000D02*
X291592000Y-140590000D01*
X240332000Y-162590000D02*
X240332000Y-140590000D01*
X291592000Y-162590000D02*
X240332000Y-162590000D01*
X309332000Y-140590000D02*
X309332000Y-162590000D01*
X240792000Y-119126000D02*
X243332000Y-121666000D01*
X245872000Y-119126000D02*
X240792000Y-119126000D01*
X243332000Y-121666000D02*
X245872000Y-119126000D01*
X309332000Y-138206000D02*
X291592000Y-138206000D01*
X291592000Y-116206000D02*
X309332000Y-116206000D01*
X240332000Y-116206000D02*
X291592000Y-116206000D01*
X240332000Y-138206000D02*
X240332000Y-116206000D01*
X291592000Y-138206000D02*
X240332000Y-138206000D01*
X309332000Y-116206000D02*
X309332000Y-138206000D01*
X105918000Y-108712000D02*
X108458000Y-111252000D01*
X110998000Y-108712000D02*
X105918000Y-108712000D01*
X108458000Y-111252000D02*
X110998000Y-108712000D01*
X110998000Y-108712000D02*
X72898000Y-108712000D01*
X110998000Y-134112000D02*
X110998000Y-108712000D01*
X72898000Y-134112000D02*
X110998000Y-134112000D01*
X72898000Y-108712000D02*
X72898000Y-134112000D01*
D13*
X148784000Y-123892000D02*
X150114000Y-123892000D01*
X148784000Y-125222000D02*
X148784000Y-123892000D01*
X148784000Y-126492000D02*
X151444000Y-126492000D01*
X151444000Y-126492000D02*
X151444000Y-126552000D01*
X148784000Y-126492000D02*
X148784000Y-126552000D01*
X148784000Y-126552000D02*
X151444000Y-126552000D01*
X186750000Y-34230000D02*
X181550000Y-34230000D01*
X186750000Y-57150000D02*
X186750000Y-34230000D01*
X181550000Y-59750000D02*
X181550000Y-34230000D01*
X186750000Y-57150000D02*
X184150000Y-57150000D01*
X184150000Y-57150000D02*
X184150000Y-59750000D01*
X184150000Y-59750000D02*
X181550000Y-59750000D01*
X186750000Y-58420000D02*
X186750000Y-59750000D01*
X186750000Y-59750000D02*
X185420000Y-59750000D01*
D12*
X229870000Y-33528000D02*
X229870000Y-56388000D01*
X229870000Y-56388000D02*
X212090000Y-56388000D01*
X212090000Y-56388000D02*
X212090000Y-33528000D01*
X212090000Y-33528000D02*
X229870000Y-33528000D01*
X217170000Y-36068000D02*
X219710000Y-33528000D01*
X219710000Y-33528000D02*
X219710000Y-38608000D01*
X219710000Y-38608000D02*
X217170000Y-36068000D01*
D13*
X156150000Y-34230000D02*
X157480000Y-34230000D01*
X156150000Y-35560000D02*
X156150000Y-34230000D01*
X156150000Y-36830000D02*
X158810000Y-36830000D01*
X158810000Y-36830000D02*
X158810000Y-36890000D01*
X156150000Y-36830000D02*
X156150000Y-36890000D01*
X156150000Y-36890000D02*
X158810000Y-36890000D01*
X92650000Y-87570000D02*
X93980000Y-87570000D01*
X92650000Y-88900000D02*
X92650000Y-87570000D01*
X92650000Y-90170000D02*
X95310000Y-90170000D01*
X95310000Y-90170000D02*
X95310000Y-90230000D01*
X92650000Y-90170000D02*
X92650000Y-90230000D01*
X92650000Y-90230000D02*
X95310000Y-90230000D01*
D12*
X69596000Y-157226000D02*
X69596000Y-136906000D01*
X69596000Y-136906000D02*
X28956000Y-136906000D01*
X28956000Y-136906000D02*
X28956000Y-157226000D01*
X28956000Y-157226000D02*
X69596000Y-157226000D01*
X67056000Y-152146000D02*
X64516000Y-154686000D01*
X64516000Y-154686000D02*
X69596000Y-154686000D01*
X69596000Y-154686000D02*
X67056000Y-152146000D01*
X153035000Y-152400000D02*
X153035000Y-134620000D01*
X153035000Y-134620000D02*
X120015000Y-134620000D01*
X120015000Y-134620000D02*
X120015000Y-149860000D01*
X120015000Y-149860000D02*
X120015000Y-152400000D01*
X120015000Y-152400000D02*
X153035000Y-152400000D01*
X153035000Y-152400000D02*
X150495000Y-149860000D01*
X150495000Y-149860000D02*
X147955000Y-152400000D01*
D13*
X68132000Y-28508000D02*
X68132000Y-25848000D01*
X65532000Y-28508000D02*
X68132000Y-28508000D01*
X65532000Y-25848000D02*
X68132000Y-25848000D01*
X65532000Y-28508000D02*
X65532000Y-25848000D01*
X64262000Y-28508000D02*
X62932000Y-28508000D01*
X62932000Y-28508000D02*
X62932000Y-27178000D01*
X55312000Y-28508000D02*
X55312000Y-27178000D01*
X56642000Y-28508000D02*
X55312000Y-28508000D01*
X57912000Y-28508000D02*
X57912000Y-25848000D01*
X57912000Y-25848000D02*
X60512000Y-25848000D01*
X57912000Y-28508000D02*
X60512000Y-28508000D01*
X60512000Y-28508000D02*
X60512000Y-25848000D01*
X151190000Y-59750000D02*
X149860000Y-59750000D01*
X151190000Y-58420000D02*
X151190000Y-59750000D01*
X148590000Y-59750000D02*
X145990000Y-59750000D01*
X148590000Y-57150000D02*
X148590000Y-59750000D01*
X151190000Y-57150000D02*
X148590000Y-57150000D01*
X145990000Y-59750000D02*
X145990000Y-34230000D01*
X151190000Y-57150000D02*
X151190000Y-34230000D01*
X151190000Y-34230000D02*
X145990000Y-34230000D01*
X304335000Y-46930000D02*
X304335000Y-47980000D01*
X305385000Y-47980000D02*
X304335000Y-47980000D01*
X310435000Y-38580000D02*
X319235000Y-38580000D01*
X319235000Y-38580000D02*
X319235000Y-47780000D01*
X304535000Y-41280000D02*
X304535000Y-38580000D01*
X304535000Y-38580000D02*
X306435000Y-38580000D01*
X319235000Y-47780000D02*
X304535000Y-47780000D01*
X304535000Y-47780000D02*
X304535000Y-45180000D01*
D12*
X310290000Y-55230000D02*
X313490000Y-55230000D01*
X306715000Y-55230000D02*
X307765000Y-55230000D01*
X304890000Y-57055000D02*
X304890000Y-56180000D01*
X304915000Y-61930000D02*
X304915000Y-61055000D01*
X307790000Y-62880000D02*
X306765000Y-62880000D01*
X313540000Y-62880000D02*
X310390000Y-62880000D01*
D13*
X115376000Y-85030000D02*
X112716000Y-85030000D01*
X115376000Y-87630000D02*
X115376000Y-85030000D01*
X112716000Y-87630000D02*
X112716000Y-85030000D01*
X115376000Y-87630000D02*
X112716000Y-87630000D01*
X115376000Y-88900000D02*
X115376000Y-90230000D01*
X115376000Y-90230000D02*
X114046000Y-90230000D01*
X119440000Y-90230000D02*
X118110000Y-90230000D01*
X119440000Y-88900000D02*
X119440000Y-90230000D01*
X119440000Y-87630000D02*
X116780000Y-87630000D01*
X116780000Y-87630000D02*
X116780000Y-85030000D01*
X119440000Y-87630000D02*
X119440000Y-85030000D01*
X119440000Y-85030000D02*
X116780000Y-85030000D01*
X49844000Y-86300000D02*
X47184000Y-86300000D01*
X49844000Y-88900000D02*
X49844000Y-86300000D01*
X47184000Y-88900000D02*
X47184000Y-86300000D01*
X49844000Y-88900000D02*
X47184000Y-88900000D01*
X49844000Y-90170000D02*
X49844000Y-91500000D01*
X49844000Y-91500000D02*
X48514000Y-91500000D01*
X46034000Y-91500000D02*
X44704000Y-91500000D01*
X46034000Y-90170000D02*
X46034000Y-91500000D01*
X46034000Y-88900000D02*
X43374000Y-88900000D01*
X43374000Y-88900000D02*
X43374000Y-86300000D01*
X46034000Y-88900000D02*
X46034000Y-86300000D01*
X46034000Y-86300000D02*
X43374000Y-86300000D01*
X230184000Y-77918000D02*
X230184000Y-79248000D01*
X228854000Y-77918000D02*
X230184000Y-77918000D01*
X227584000Y-77918000D02*
X227584000Y-80578000D01*
X227584000Y-80578000D02*
X224984000Y-80578000D01*
X227584000Y-77918000D02*
X224984000Y-77918000D01*
X224984000Y-77918000D02*
X224984000Y-80578000D01*
X224984000Y-81220000D02*
X224984000Y-83880000D01*
X227584000Y-81220000D02*
X224984000Y-81220000D01*
X227584000Y-83880000D02*
X224984000Y-83880000D01*
X227584000Y-81220000D02*
X227584000Y-83880000D01*
X228854000Y-81220000D02*
X230184000Y-81220000D01*
X230184000Y-81220000D02*
X230184000Y-82550000D01*
X147380000Y-87062000D02*
X144720000Y-87062000D01*
X147380000Y-89662000D02*
X147380000Y-87062000D01*
X144720000Y-89662000D02*
X144720000Y-87062000D01*
X147380000Y-89662000D02*
X144720000Y-89662000D01*
X147380000Y-90932000D02*
X147380000Y-92262000D01*
X147380000Y-92262000D02*
X146050000Y-92262000D01*
X159318000Y-66742000D02*
X159318000Y-68072000D01*
X157988000Y-66742000D02*
X159318000Y-66742000D01*
X156718000Y-66742000D02*
X156718000Y-69402000D01*
X156718000Y-69402000D02*
X154118000Y-69402000D01*
X156718000Y-66742000D02*
X154118000Y-66742000D01*
X154118000Y-66742000D02*
X154118000Y-69402000D01*
X148081719Y-156453868D02*
X145421719Y-156453868D01*
X148081719Y-159053868D02*
X148081719Y-156453868D01*
X145421719Y-159053868D02*
X145421719Y-156453868D01*
X148081719Y-159053868D02*
X145421719Y-159053868D01*
X148081719Y-160323868D02*
X148081719Y-161653868D01*
X148081719Y-161653868D02*
X146751719Y-161653868D01*
X151891719Y-161653868D02*
X150561719Y-161653868D01*
X151891719Y-160323868D02*
X151891719Y-161653868D01*
X151891719Y-159053868D02*
X149231719Y-159053868D01*
X149231719Y-159053868D02*
X149231719Y-156453868D01*
X151891719Y-159053868D02*
X151891719Y-156453868D01*
X151891719Y-156453868D02*
X149231719Y-156453868D01*
X137429389Y-156453868D02*
X134769389Y-156453868D01*
X137429389Y-159053868D02*
X137429389Y-156453868D01*
X134769389Y-159053868D02*
X134769389Y-156453868D01*
X137429389Y-159053868D02*
X134769389Y-159053868D01*
X137429389Y-160323868D02*
X137429389Y-161653868D01*
X137429389Y-161653868D02*
X136099389Y-161653868D01*
X141239389Y-161653868D02*
X139909389Y-161653868D01*
X141239389Y-160323868D02*
X141239389Y-161653868D01*
X141239389Y-159053868D02*
X138579389Y-159053868D01*
X138579389Y-159053868D02*
X138579389Y-156453868D01*
X141239389Y-159053868D02*
X141239389Y-156453868D01*
X141239389Y-156453868D02*
X138579389Y-156453868D01*
X224984000Y-76768000D02*
X224984000Y-75438000D01*
X226314000Y-76768000D02*
X224984000Y-76768000D01*
X227584000Y-76768000D02*
X227584000Y-74108000D01*
X227584000Y-74108000D02*
X230184000Y-74108000D01*
X227584000Y-76768000D02*
X230184000Y-76768000D01*
X230184000Y-76768000D02*
X230184000Y-74108000D01*
X159318000Y-73466000D02*
X159318000Y-70806000D01*
X156718000Y-73466000D02*
X159318000Y-73466000D01*
X156718000Y-70806000D02*
X159318000Y-70806000D01*
X156718000Y-73466000D02*
X156718000Y-70806000D01*
X155448000Y-73466000D02*
X154118000Y-73466000D01*
X154118000Y-73466000D02*
X154118000Y-72136000D01*
X149038000Y-92262000D02*
X151698000Y-92262000D01*
X149038000Y-89662000D02*
X149038000Y-92262000D01*
X151698000Y-89662000D02*
X151698000Y-92262000D01*
X149038000Y-89662000D02*
X151698000Y-89662000D01*
X149038000Y-88392000D02*
X149038000Y-87062000D01*
X149038000Y-87062000D02*
X150368000Y-87062000D01*
X88840000Y-87570000D02*
X90170000Y-87570000D01*
X88840000Y-88900000D02*
X88840000Y-87570000D01*
X88840000Y-90170000D02*
X91500000Y-90170000D01*
X91500000Y-90170000D02*
X91500000Y-90230000D01*
X88840000Y-90170000D02*
X88840000Y-90230000D01*
X88840000Y-90230000D02*
X91500000Y-90230000D01*
X86300000Y-90230000D02*
X88960000Y-90230000D01*
X86300000Y-90170000D02*
X86300000Y-90230000D01*
X88960000Y-90170000D02*
X88960000Y-90230000D01*
X86300000Y-90170000D02*
X88960000Y-90170000D01*
X86300000Y-88900000D02*
X86300000Y-87570000D01*
X86300000Y-87570000D02*
X87630000Y-87570000D01*
X107890000Y-87570000D02*
X109220000Y-87570000D01*
X107890000Y-88900000D02*
X107890000Y-87570000D01*
X107890000Y-90170000D02*
X110550000Y-90170000D01*
X110550000Y-90170000D02*
X110550000Y-90230000D01*
X107890000Y-90170000D02*
X107890000Y-90230000D01*
X107890000Y-90230000D02*
X110550000Y-90230000D01*
X105350000Y-87570000D02*
X106680000Y-87570000D01*
X105350000Y-88900000D02*
X105350000Y-87570000D01*
X105350000Y-90170000D02*
X108010000Y-90170000D01*
X108010000Y-90170000D02*
X108010000Y-90230000D01*
X105350000Y-90170000D02*
X105350000Y-90230000D01*
X105350000Y-90230000D02*
X108010000Y-90230000D01*
X101540000Y-90230000D02*
X104200000Y-90230000D01*
X101540000Y-90170000D02*
X101540000Y-90230000D01*
X104200000Y-90170000D02*
X104200000Y-90230000D01*
X101540000Y-90170000D02*
X104200000Y-90170000D01*
X101540000Y-88900000D02*
X101540000Y-87570000D01*
X101540000Y-87570000D02*
X102870000Y-87570000D01*
X99000000Y-87570000D02*
X100330000Y-87570000D01*
X99000000Y-88900000D02*
X99000000Y-87570000D01*
X99000000Y-90170000D02*
X101660000Y-90170000D01*
X101660000Y-90170000D02*
X101660000Y-90230000D01*
X99000000Y-90170000D02*
X99000000Y-90230000D01*
X99000000Y-90230000D02*
X101660000Y-90230000D01*
X95190000Y-90230000D02*
X97850000Y-90230000D01*
X95190000Y-90170000D02*
X95190000Y-90230000D01*
X97850000Y-90170000D02*
X97850000Y-90230000D01*
X95190000Y-90170000D02*
X97850000Y-90170000D01*
X95190000Y-88900000D02*
X95190000Y-87570000D01*
X95190000Y-87570000D02*
X96520000Y-87570000D01*
X47184000Y-97088000D02*
X49844000Y-97088000D01*
X47184000Y-97028000D02*
X47184000Y-97088000D01*
X49844000Y-97028000D02*
X49844000Y-97088000D01*
X47184000Y-97028000D02*
X49844000Y-97028000D01*
X47184000Y-95758000D02*
X47184000Y-94428000D01*
X47184000Y-94428000D02*
X48514000Y-94428000D01*
X43374000Y-94428000D02*
X44704000Y-94428000D01*
X43374000Y-95758000D02*
X43374000Y-94428000D01*
X43374000Y-97028000D02*
X46034000Y-97028000D01*
X46034000Y-97028000D02*
X46034000Y-97088000D01*
X43374000Y-97028000D02*
X43374000Y-97088000D01*
X43374000Y-97088000D02*
X46034000Y-97088000D01*
X156150000Y-44510000D02*
X158810000Y-44510000D01*
X156150000Y-44450000D02*
X156150000Y-44510000D01*
X158810000Y-44450000D02*
X158810000Y-44510000D01*
X156150000Y-44450000D02*
X158810000Y-44450000D01*
X156150000Y-43180000D02*
X156150000Y-41850000D01*
X156150000Y-41850000D02*
X157480000Y-41850000D01*
X130750000Y-31810000D02*
X133410000Y-31810000D01*
X130750000Y-31750000D02*
X130750000Y-31810000D01*
X133410000Y-31750000D02*
X133410000Y-31810000D01*
X130750000Y-31750000D02*
X133410000Y-31750000D01*
X130750000Y-30480000D02*
X130750000Y-29150000D01*
X130750000Y-29150000D02*
X132080000Y-29150000D01*
X157166000Y-79442000D02*
X158496000Y-79442000D01*
X157166000Y-80772000D02*
X157166000Y-79442000D01*
X157166000Y-82042000D02*
X159826000Y-82042000D01*
X159826000Y-82042000D02*
X159826000Y-82102000D01*
X157166000Y-82042000D02*
X157166000Y-82102000D01*
X157166000Y-82102000D02*
X159826000Y-82102000D01*
X157166000Y-76902000D02*
X158496000Y-76902000D01*
X157166000Y-78232000D02*
X157166000Y-76902000D01*
X157166000Y-79502000D02*
X159826000Y-79502000D01*
X159826000Y-79502000D02*
X159826000Y-79562000D01*
X157166000Y-79502000D02*
X157166000Y-79562000D01*
X157166000Y-79562000D02*
X159826000Y-79562000D01*
X157166000Y-84642000D02*
X159826000Y-84642000D01*
X157166000Y-84582000D02*
X157166000Y-84642000D01*
X159826000Y-84582000D02*
X159826000Y-84642000D01*
X157166000Y-84582000D02*
X159826000Y-84582000D01*
X157166000Y-83312000D02*
X157166000Y-81982000D01*
X157166000Y-81982000D02*
X158496000Y-81982000D01*
X156150000Y-41970000D02*
X158810000Y-41970000D01*
X156150000Y-41910000D02*
X156150000Y-41970000D01*
X158810000Y-41910000D02*
X158810000Y-41970000D01*
X156150000Y-41910000D02*
X158810000Y-41910000D01*
X156150000Y-40640000D02*
X156150000Y-39310000D01*
X156150000Y-39310000D02*
X157480000Y-39310000D01*
X133290000Y-29150000D02*
X134620000Y-29150000D01*
X133290000Y-30480000D02*
X133290000Y-29150000D01*
X133290000Y-31750000D02*
X135950000Y-31750000D01*
X135950000Y-31750000D02*
X135950000Y-31810000D01*
X133290000Y-31750000D02*
X133290000Y-31810000D01*
X133290000Y-31810000D02*
X135950000Y-31810000D01*
X156150000Y-39430000D02*
X158810000Y-39430000D01*
X156150000Y-39370000D02*
X156150000Y-39430000D01*
X158810000Y-39370000D02*
X158810000Y-39430000D01*
X156150000Y-39370000D02*
X158810000Y-39370000D01*
X156150000Y-38100000D02*
X156150000Y-36770000D01*
X156150000Y-36770000D02*
X157480000Y-36770000D01*
X253432000Y-27118000D02*
X254762000Y-27118000D01*
X253432000Y-28448000D02*
X253432000Y-27118000D01*
X253432000Y-29718000D02*
X256092000Y-29718000D01*
X256092000Y-29718000D02*
X256092000Y-29778000D01*
X253432000Y-29718000D02*
X253432000Y-29778000D01*
X253432000Y-29778000D02*
X256092000Y-29778000D01*
X200600000Y-67370000D02*
X203260000Y-67370000D01*
X200600000Y-67310000D02*
X200600000Y-67370000D01*
X203260000Y-67310000D02*
X203260000Y-67370000D01*
X200600000Y-67310000D02*
X203260000Y-67310000D01*
X200600000Y-66040000D02*
X200600000Y-64710000D01*
X200600000Y-64710000D02*
X201930000Y-64710000D01*
X233366000Y-157420000D02*
X234696000Y-157420000D01*
X233366000Y-158750000D02*
X233366000Y-157420000D01*
X233366000Y-160020000D02*
X236026000Y-160020000D01*
X236026000Y-160020000D02*
X236026000Y-160080000D01*
X233366000Y-160020000D02*
X233366000Y-160080000D01*
X233366000Y-160080000D02*
X236026000Y-160080000D01*
X278070000Y-105470000D02*
X280730000Y-105470000D01*
X278070000Y-105410000D02*
X278070000Y-105470000D01*
X280730000Y-105410000D02*
X280730000Y-105470000D01*
X278070000Y-105410000D02*
X280730000Y-105410000D01*
X278070000Y-104140000D02*
X278070000Y-102810000D01*
X278070000Y-102810000D02*
X279400000Y-102810000D01*
X74870000Y-25340000D02*
X76200000Y-25340000D01*
X74870000Y-26670000D02*
X74870000Y-25340000D01*
X74870000Y-27940000D02*
X77530000Y-27940000D01*
X77530000Y-27940000D02*
X77530000Y-28000000D01*
X74870000Y-27940000D02*
X74870000Y-28000000D01*
X74870000Y-28000000D02*
X77530000Y-28000000D01*
X78680000Y-28000000D02*
X81340000Y-28000000D01*
X78680000Y-27940000D02*
X78680000Y-28000000D01*
X81340000Y-27940000D02*
X81340000Y-28000000D01*
X78680000Y-27940000D02*
X81340000Y-27940000D01*
X78680000Y-26670000D02*
X78680000Y-25340000D01*
X78680000Y-25340000D02*
X80010000Y-25340000D01*
X82490000Y-25340000D02*
X83820000Y-25340000D01*
X82490000Y-26670000D02*
X82490000Y-25340000D01*
X82490000Y-27940000D02*
X85150000Y-27940000D01*
X85150000Y-27940000D02*
X85150000Y-28000000D01*
X82490000Y-27940000D02*
X82490000Y-28000000D01*
X82490000Y-28000000D02*
X85150000Y-28000000D01*
X86300000Y-28000000D02*
X88960000Y-28000000D01*
X86300000Y-27940000D02*
X86300000Y-28000000D01*
X88960000Y-27940000D02*
X88960000Y-28000000D01*
X86300000Y-27940000D02*
X88960000Y-27940000D01*
X86300000Y-26670000D02*
X86300000Y-25340000D01*
X86300000Y-25340000D02*
X87630000Y-25340000D01*
X119066000Y-103064000D02*
X120396000Y-103064000D01*
X119066000Y-104394000D02*
X119066000Y-103064000D01*
X119066000Y-105664000D02*
X121726000Y-105664000D01*
X121726000Y-105664000D02*
X121726000Y-105724000D01*
X119066000Y-105664000D02*
X119066000Y-105724000D01*
X119066000Y-105724000D02*
X121726000Y-105724000D01*
X112208000Y-105470000D02*
X114868000Y-105470000D01*
X112208000Y-105410000D02*
X112208000Y-105470000D01*
X114868000Y-105410000D02*
X114868000Y-105470000D01*
X112208000Y-105410000D02*
X114868000Y-105410000D01*
X112208000Y-104140000D02*
X112208000Y-102810000D01*
X112208000Y-102810000D02*
X113538000Y-102810000D01*
X143450000Y-31810000D02*
X146110000Y-31810000D01*
X143450000Y-31750000D02*
X143450000Y-31810000D01*
X146110000Y-31750000D02*
X146110000Y-31810000D01*
X143450000Y-31750000D02*
X146110000Y-31750000D01*
X143450000Y-30480000D02*
X143450000Y-29150000D01*
X143450000Y-29150000D02*
X144780000Y-29150000D01*
D12*
X267208000Y-99822000D02*
X297688000Y-99822000D01*
X297688000Y-99822000D02*
X297688000Y-33782000D01*
X297688000Y-33782000D02*
X267208000Y-33782000D01*
X267208000Y-33782000D02*
X267208000Y-99822000D01*
X233934000Y-33782000D02*
X233934000Y-99822000D01*
X264414000Y-33782000D02*
X233934000Y-33782000D01*
X264414000Y-99822000D02*
X264414000Y-33782000D01*
X233934000Y-99822000D02*
X264414000Y-99822000D01*
X110998000Y-135382000D02*
X110998000Y-160782000D01*
X110998000Y-135382000D02*
X75438000Y-135382000D01*
X75438000Y-135382000D02*
X75438000Y-160782000D01*
X75438000Y-160782000D02*
X110998000Y-160782000D01*
X108458000Y-155702000D02*
X105918000Y-158242000D01*
X105918000Y-158242000D02*
X110998000Y-158242000D01*
X110998000Y-158242000D02*
X108458000Y-155702000D01*
X152400000Y-81280000D02*
X152400000Y-68580000D01*
X152400000Y-68580000D02*
X132080000Y-68580000D01*
X132080000Y-68580000D02*
X132080000Y-81280000D01*
X132080000Y-81280000D02*
X152400000Y-81280000D01*
X147320000Y-80010000D02*
X146685000Y-80645000D01*
X146685000Y-80645000D02*
X147955000Y-80645000D01*
X147955000Y-80645000D02*
X147320000Y-80010000D01*
X206248000Y-34544000D02*
X206248000Y-52324000D01*
X206248000Y-52324000D02*
X191008000Y-52324000D01*
X191008000Y-52324000D02*
X191008000Y-34544000D01*
X191008000Y-34544000D02*
X206248000Y-34544000D01*
X198628000Y-34544000D02*
X201168000Y-37084000D01*
X201168000Y-37084000D02*
X198628000Y-39624000D01*
X198628000Y-39624000D02*
X198628000Y-34544000D01*
X227330000Y-140716000D02*
X227330000Y-163576000D01*
X227330000Y-163576000D02*
X181610000Y-163576000D01*
X181610000Y-163576000D02*
X181610000Y-143256000D01*
X181610000Y-143256000D02*
X181610000Y-140716000D01*
X181610000Y-140716000D02*
X227330000Y-140716000D01*
X224790000Y-143256000D02*
X227330000Y-140716000D01*
X227330000Y-140716000D02*
X222250000Y-140716000D01*
X222250000Y-140716000D02*
X224790000Y-143256000D01*
X222250000Y-115316000D02*
X224790000Y-117856000D01*
X227330000Y-115316000D02*
X222250000Y-115316000D01*
X224790000Y-117856000D02*
X227330000Y-115316000D01*
X181610000Y-115316000D02*
X227330000Y-115316000D01*
X181610000Y-117856000D02*
X181610000Y-115316000D01*
X181610000Y-138176000D02*
X181610000Y-117856000D01*
X227330000Y-138176000D02*
X181610000Y-138176000D01*
X227330000Y-115316000D02*
X227330000Y-138176000D01*
D13*
X214570000Y-28388000D02*
X214570000Y-31048000D01*
X217170000Y-28388000D02*
X214570000Y-28388000D01*
X217170000Y-31048000D02*
X214570000Y-31048000D01*
X217170000Y-28388000D02*
X217170000Y-31048000D01*
X218440000Y-28388000D02*
X219770000Y-28388000D01*
X219770000Y-28388000D02*
X219770000Y-29718000D01*
X135830000Y-29150000D02*
X137160000Y-29150000D01*
X135830000Y-30480000D02*
X135830000Y-29150000D01*
X135830000Y-31750000D02*
X138490000Y-31750000D01*
X138490000Y-31750000D02*
X138490000Y-31810000D01*
X135830000Y-31750000D02*
X135830000Y-31810000D01*
X135830000Y-31810000D02*
X138490000Y-31810000D01*
X138370000Y-31810000D02*
X141030000Y-31810000D01*
X138370000Y-31750000D02*
X138370000Y-31810000D01*
X141030000Y-31750000D02*
X141030000Y-31810000D01*
X138370000Y-31750000D02*
X141030000Y-31750000D01*
X138370000Y-30480000D02*
X138370000Y-29150000D01*
X138370000Y-29150000D02*
X139700000Y-29150000D01*
D12*
X69596000Y-133858000D02*
X69596000Y-110998000D01*
X69596000Y-133858000D02*
X23876000Y-133858000D01*
X23876000Y-133858000D02*
X23876000Y-110998000D01*
X23876000Y-110998000D02*
X69596000Y-110998000D01*
X67056000Y-128778000D02*
X64516000Y-131318000D01*
X64516000Y-131318000D02*
X69596000Y-131318000D01*
X69596000Y-131318000D02*
X67056000Y-128778000D01*
D13*
X128210000Y-73212000D02*
X130870000Y-73212000D01*
X128210000Y-73152000D02*
X128210000Y-73212000D01*
X130870000Y-73152000D02*
X130870000Y-73212000D01*
X128210000Y-73152000D02*
X130870000Y-73152000D01*
X128210000Y-71882000D02*
X128210000Y-70552000D01*
X128210000Y-70552000D02*
X129540000Y-70552000D01*
X42866000Y-26356000D02*
X44196000Y-26356000D01*
X42866000Y-27686000D02*
X42866000Y-26356000D01*
X42866000Y-28956000D02*
X45526000Y-28956000D01*
X45526000Y-28956000D02*
X45526000Y-29016000D01*
X42866000Y-28956000D02*
X42866000Y-29016000D01*
X42866000Y-29016000D02*
X45526000Y-29016000D01*
X43628000Y-102930000D02*
X46288000Y-102930000D01*
X43628000Y-102870000D02*
X43628000Y-102930000D01*
X46288000Y-102870000D02*
X46288000Y-102930000D01*
X43628000Y-102870000D02*
X46288000Y-102870000D01*
X43628000Y-101600000D02*
X43628000Y-100270000D01*
X43628000Y-100270000D02*
X44958000Y-100270000D01*
X140910000Y-29150000D02*
X142240000Y-29150000D01*
X140910000Y-30480000D02*
X140910000Y-29150000D01*
X140910000Y-31750000D02*
X143570000Y-31750000D01*
X143570000Y-31750000D02*
X143570000Y-31810000D01*
X140910000Y-31750000D02*
X140910000Y-31810000D01*
X140910000Y-31810000D02*
X143570000Y-31810000D01*
X173295000Y-120710000D02*
X175955000Y-120710000D01*
X173295000Y-120650000D02*
X173295000Y-120710000D01*
X175955000Y-120650000D02*
X175955000Y-120710000D01*
X173295000Y-120650000D02*
X175955000Y-120650000D01*
X173295000Y-119380000D02*
X173295000Y-118050000D01*
X173295000Y-118050000D02*
X174625000Y-118050000D01*
X290770000Y-102810000D02*
X292100000Y-102810000D01*
X290770000Y-104140000D02*
X290770000Y-102810000D01*
X290770000Y-105410000D02*
X293430000Y-105410000D01*
X293430000Y-105410000D02*
X293430000Y-105470000D01*
X290770000Y-105410000D02*
X290770000Y-105470000D01*
X290770000Y-105470000D02*
X293430000Y-105470000D01*
X220158000Y-65592000D02*
X222818000Y-65592000D01*
X220158000Y-65532000D02*
X220158000Y-65592000D01*
X222818000Y-65532000D02*
X222818000Y-65592000D01*
X220158000Y-65532000D02*
X222818000Y-65532000D01*
X220158000Y-64262000D02*
X220158000Y-62932000D01*
X220158000Y-62932000D02*
X221488000Y-62932000D01*
X187900000Y-65345000D02*
X189230000Y-65345000D01*
X187900000Y-66675000D02*
X187900000Y-65345000D01*
X187900000Y-67945000D02*
X190560000Y-67945000D01*
X190560000Y-67945000D02*
X190560000Y-68005000D01*
X187900000Y-67945000D02*
X187900000Y-68005000D01*
X187900000Y-68005000D02*
X190560000Y-68005000D01*
X306765000Y-52130000D02*
X306765000Y-49470000D01*
X304165000Y-52130000D02*
X306765000Y-52130000D01*
X304165000Y-49470000D02*
X306765000Y-49470000D01*
X304165000Y-52130000D02*
X304165000Y-49470000D01*
X302895000Y-52130000D02*
X301565000Y-52130000D01*
X301565000Y-52130000D02*
X301565000Y-50800000D01*
X114240000Y-134620000D02*
X116900000Y-134620000D01*
X114240000Y-134620000D02*
X114240000Y-149920000D01*
X114240000Y-149920000D02*
X116900000Y-149920000D01*
X116900000Y-134620000D02*
X116900000Y-149920000D01*
X116900000Y-132020000D02*
X116900000Y-133350000D01*
X115570000Y-132020000D02*
X116900000Y-132020000D01*
X27348000Y-89578000D02*
X32088000Y-89578000D01*
X27348000Y-89578000D02*
X27348000Y-89978000D01*
X32088000Y-89578000D02*
X32088000Y-89978000D01*
X27348000Y-94318000D02*
X27348000Y-93918000D01*
X27348000Y-94318000D02*
X32088000Y-94318000D01*
X32088000Y-94318000D02*
X32088000Y-93918000D01*
X32088000Y-92978000D02*
X32088000Y-90918000D01*
X27348000Y-92978000D02*
X27348000Y-90918000D01*
X27348000Y-104662000D02*
X27348000Y-102602000D01*
X32088000Y-104662000D02*
X32088000Y-102602000D01*
X32088000Y-106002000D02*
X32088000Y-105602000D01*
X27348000Y-106002000D02*
X32088000Y-106002000D01*
X27348000Y-106002000D02*
X27348000Y-105602000D01*
X32088000Y-101262000D02*
X32088000Y-101662000D01*
X27348000Y-101262000D02*
X27348000Y-101662000D01*
X27348000Y-101262000D02*
X32088000Y-101262000D01*
X162390000Y-117662000D02*
X162390000Y-97222000D01*
X162390000Y-97222000D02*
X159730000Y-97222000D01*
X159730000Y-97222000D02*
X159730000Y-117662000D01*
X159730000Y-117662000D02*
X162390000Y-117662000D01*
X159730000Y-116712000D02*
X153730000Y-116712000D01*
X153730000Y-116712000D02*
X153730000Y-115952000D01*
X153730000Y-115952000D02*
X159730000Y-115952000D01*
X159730000Y-116652000D02*
X153730000Y-116652000D01*
X159730000Y-116532000D02*
X153730000Y-116532000D01*
X159730000Y-116412000D02*
X153730000Y-116412000D01*
X159730000Y-116292000D02*
X153730000Y-116292000D01*
X159730000Y-116172000D02*
X153730000Y-116172000D01*
X159730000Y-116052000D02*
X153730000Y-116052000D01*
X162720000Y-116712000D02*
X162390000Y-116712000D01*
X162720000Y-115952000D02*
X162390000Y-115952000D01*
X162390000Y-115062000D02*
X159730000Y-115062000D01*
X159730000Y-114172000D02*
X153730000Y-114172000D01*
X153730000Y-114172000D02*
X153730000Y-113412000D01*
X153730000Y-113412000D02*
X159730000Y-113412000D01*
X162787071Y-114172000D02*
X162390000Y-114172000D01*
X162787071Y-113412000D02*
X162390000Y-113412000D01*
X162390000Y-112522000D02*
X159730000Y-112522000D01*
X159730000Y-111632000D02*
X153730000Y-111632000D01*
X153730000Y-111632000D02*
X153730000Y-110872000D01*
X153730000Y-110872000D02*
X159730000Y-110872000D01*
X162787071Y-111632000D02*
X162390000Y-111632000D01*
X162787071Y-110872000D02*
X162390000Y-110872000D01*
X162390000Y-109982000D02*
X159730000Y-109982000D01*
X159730000Y-109092000D02*
X153730000Y-109092000D01*
X153730000Y-109092000D02*
X153730000Y-108332000D01*
X153730000Y-108332000D02*
X159730000Y-108332000D01*
X162787071Y-109092000D02*
X162390000Y-109092000D01*
X162787071Y-108332000D02*
X162390000Y-108332000D01*
X162390000Y-107442000D02*
X159730000Y-107442000D01*
X159730000Y-106552000D02*
X153730000Y-106552000D01*
X153730000Y-106552000D02*
X153730000Y-105792000D01*
X153730000Y-105792000D02*
X159730000Y-105792000D01*
X162787071Y-106552000D02*
X162390000Y-106552000D01*
X162787071Y-105792000D02*
X162390000Y-105792000D01*
X162390000Y-104902000D02*
X159730000Y-104902000D01*
X159730000Y-104012000D02*
X153730000Y-104012000D01*
X153730000Y-104012000D02*
X153730000Y-103252000D01*
X153730000Y-103252000D02*
X159730000Y-103252000D01*
X162787071Y-104012000D02*
X162390000Y-104012000D01*
X162787071Y-103252000D02*
X162390000Y-103252000D01*
X162390000Y-102362000D02*
X159730000Y-102362000D01*
X159730000Y-101472000D02*
X153730000Y-101472000D01*
X153730000Y-101472000D02*
X153730000Y-100712000D01*
X153730000Y-100712000D02*
X159730000Y-100712000D01*
X162787071Y-101472000D02*
X162390000Y-101472000D01*
X162787071Y-100712000D02*
X162390000Y-100712000D01*
X162390000Y-99822000D02*
X159730000Y-99822000D01*
X159730000Y-98932000D02*
X153730000Y-98932000D01*
X153730000Y-98932000D02*
X153730000Y-98172000D01*
X153730000Y-98172000D02*
X159730000Y-98172000D01*
X162787071Y-98932000D02*
X162390000Y-98932000D01*
X162787071Y-98172000D02*
X162390000Y-98172000D01*
X165100000Y-116332000D02*
X165100000Y-117602000D01*
X165100000Y-117602000D02*
X163830000Y-117602000D01*
X58614000Y-86046000D02*
X59944000Y-86046000D01*
X58614000Y-87376000D02*
X58614000Y-86046000D01*
X58614000Y-88646000D02*
X61274000Y-88646000D01*
X61274000Y-88646000D02*
X61274000Y-91246000D01*
X58614000Y-88646000D02*
X58614000Y-91246000D01*
X58614000Y-91246000D02*
X61274000Y-91246000D01*
X62932000Y-91246000D02*
X65592000Y-91246000D01*
X62932000Y-88646000D02*
X62932000Y-91246000D01*
X65592000Y-88646000D02*
X65592000Y-91246000D01*
X62932000Y-88646000D02*
X65592000Y-88646000D01*
X62932000Y-87376000D02*
X62932000Y-86046000D01*
X62932000Y-86046000D02*
X64262000Y-86046000D01*
D12*
X222972380Y-109473904D02*
X223781904Y-109473904D01*
X223877142Y-109426285D01*
X223924761Y-109378666D01*
X223972380Y-109283428D01*
X223972380Y-109092952D01*
X223924761Y-108997714D01*
X223877142Y-108950095D01*
X223781904Y-108902476D01*
X222972380Y-108902476D01*
X222972380Y-108521523D02*
X222972380Y-107854857D01*
X223972380Y-108283428D01*
X239688619Y-141382904D02*
X238879095Y-141382904D01*
X238783857Y-141430523D01*
X238736238Y-141478142D01*
X238688619Y-141573380D01*
X238688619Y-141763857D01*
X238736238Y-141859095D01*
X238783857Y-141906714D01*
X238879095Y-141954333D01*
X239688619Y-141954333D01*
X238688619Y-142954333D02*
X238688619Y-142382904D01*
X238688619Y-142668619D02*
X239688619Y-142668619D01*
X239545761Y-142573380D01*
X239450523Y-142478142D01*
X239402904Y-142382904D01*
X239688619Y-143859095D02*
X239688619Y-143382904D01*
X239212428Y-143335285D01*
X239260047Y-143382904D01*
X239307666Y-143478142D01*
X239307666Y-143716238D01*
X239260047Y-143811476D01*
X239212428Y-143859095D01*
X239117190Y-143906714D01*
X238879095Y-143906714D01*
X238783857Y-143859095D01*
X238736238Y-143811476D01*
X238688619Y-143716238D01*
X238688619Y-143478142D01*
X238736238Y-143382904D01*
X238783857Y-143335285D01*
X239942619Y-117633904D02*
X239133095Y-117633904D01*
X239037857Y-117681523D01*
X238990238Y-117729142D01*
X238942619Y-117824380D01*
X238942619Y-118014857D01*
X238990238Y-118110095D01*
X239037857Y-118157714D01*
X239133095Y-118205333D01*
X239942619Y-118205333D01*
X238942619Y-119205333D02*
X238942619Y-118633904D01*
X238942619Y-118919619D02*
X239942619Y-118919619D01*
X239799761Y-118824380D01*
X239704523Y-118729142D01*
X239656904Y-118633904D01*
X238942619Y-120157714D02*
X238942619Y-119586285D01*
X238942619Y-119872000D02*
X239942619Y-119872000D01*
X239799761Y-119776761D01*
X239704523Y-119681523D01*
X239656904Y-119586285D01*
X112522095Y-109434380D02*
X112522095Y-110243904D01*
X112569714Y-110339142D01*
X112617333Y-110386761D01*
X112712571Y-110434380D01*
X112903047Y-110434380D01*
X112998285Y-110386761D01*
X113045904Y-110339142D01*
X113093523Y-110243904D01*
X113093523Y-109434380D01*
X113998285Y-109434380D02*
X113807809Y-109434380D01*
X113712571Y-109482000D01*
X113664952Y-109529619D01*
X113569714Y-109672476D01*
X113522095Y-109862952D01*
X113522095Y-110243904D01*
X113569714Y-110339142D01*
X113617333Y-110386761D01*
X113712571Y-110434380D01*
X113903047Y-110434380D01*
X113998285Y-110386761D01*
X114045904Y-110339142D01*
X114093523Y-110243904D01*
X114093523Y-110005809D01*
X114045904Y-109910571D01*
X113998285Y-109862952D01*
X113903047Y-109815333D01*
X113712571Y-109815333D01*
X113617333Y-109862952D01*
X113569714Y-109910571D01*
X113522095Y-110005809D01*
X148375904Y-122344380D02*
X148947333Y-122344380D01*
X148661619Y-123344380D02*
X148661619Y-122344380D01*
X149280666Y-123344380D02*
X149280666Y-122344380D01*
X149661619Y-122344380D01*
X149756857Y-122392000D01*
X149804476Y-122439619D01*
X149852095Y-122534857D01*
X149852095Y-122677714D01*
X149804476Y-122772952D01*
X149756857Y-122820571D01*
X149661619Y-122868190D01*
X149280666Y-122868190D01*
X150185428Y-122344380D02*
X150804476Y-122344380D01*
X150471142Y-122725333D01*
X150614000Y-122725333D01*
X150709238Y-122772952D01*
X150756857Y-122820571D01*
X150804476Y-122915809D01*
X150804476Y-123153904D01*
X150756857Y-123249142D01*
X150709238Y-123296761D01*
X150614000Y-123344380D01*
X150328285Y-123344380D01*
X150233047Y-123296761D01*
X150185428Y-123249142D01*
X151375904Y-122772952D02*
X151280666Y-122725333D01*
X151233047Y-122677714D01*
X151185428Y-122582476D01*
X151185428Y-122534857D01*
X151233047Y-122439619D01*
X151280666Y-122392000D01*
X151375904Y-122344380D01*
X151566380Y-122344380D01*
X151661619Y-122392000D01*
X151709238Y-122439619D01*
X151756857Y-122534857D01*
X151756857Y-122582476D01*
X151709238Y-122677714D01*
X151661619Y-122725333D01*
X151566380Y-122772952D01*
X151375904Y-122772952D01*
X151280666Y-122820571D01*
X151233047Y-122868190D01*
X151185428Y-122963428D01*
X151185428Y-123153904D01*
X151233047Y-123249142D01*
X151280666Y-123296761D01*
X151375904Y-123344380D01*
X151566380Y-123344380D01*
X151661619Y-123296761D01*
X151709238Y-123249142D01*
X151756857Y-123153904D01*
X151756857Y-122963428D01*
X151709238Y-122868190D01*
X151661619Y-122820571D01*
X151566380Y-122772952D01*
X183816666Y-60202380D02*
X183816666Y-60916666D01*
X183769047Y-61059523D01*
X183673809Y-61154761D01*
X183530952Y-61202380D01*
X183435714Y-61202380D01*
X184197619Y-60202380D02*
X184816666Y-60202380D01*
X184483333Y-60583333D01*
X184626190Y-60583333D01*
X184721428Y-60630952D01*
X184769047Y-60678571D01*
X184816666Y-60773809D01*
X184816666Y-61011904D01*
X184769047Y-61107142D01*
X184721428Y-61154761D01*
X184626190Y-61202380D01*
X184340476Y-61202380D01*
X184245238Y-61154761D01*
X184197619Y-61107142D01*
X213391904Y-30440380D02*
X213391904Y-31249904D01*
X213439523Y-31345142D01*
X213487142Y-31392761D01*
X213582380Y-31440380D01*
X213772857Y-31440380D01*
X213868095Y-31392761D01*
X213915714Y-31345142D01*
X213963333Y-31249904D01*
X213963333Y-30440380D01*
X214963333Y-31440380D02*
X214391904Y-31440380D01*
X214677619Y-31440380D02*
X214677619Y-30440380D01*
X214582380Y-30583238D01*
X214487142Y-30678476D01*
X214391904Y-30726095D01*
X215582380Y-30440380D02*
X215677619Y-30440380D01*
X215772857Y-30488000D01*
X215820476Y-30535619D01*
X215868095Y-30630857D01*
X215915714Y-30821333D01*
X215915714Y-31059428D01*
X215868095Y-31249904D01*
X215820476Y-31345142D01*
X215772857Y-31392761D01*
X215677619Y-31440380D01*
X215582380Y-31440380D01*
X215487142Y-31392761D01*
X215439523Y-31345142D01*
X215391904Y-31249904D01*
X215344285Y-31059428D01*
X215344285Y-30821333D01*
X215391904Y-30630857D01*
X215439523Y-30535619D01*
X215487142Y-30488000D01*
X215582380Y-30440380D01*
X160059904Y-34250380D02*
X160631333Y-34250380D01*
X160345619Y-35250380D02*
X160345619Y-34250380D01*
X160964666Y-35250380D02*
X160964666Y-34250380D01*
X161345619Y-34250380D01*
X161440857Y-34298000D01*
X161488476Y-34345619D01*
X161536095Y-34440857D01*
X161536095Y-34583714D01*
X161488476Y-34678952D01*
X161440857Y-34726571D01*
X161345619Y-34774190D01*
X160964666Y-34774190D01*
X161917047Y-34345619D02*
X161964666Y-34298000D01*
X162059904Y-34250380D01*
X162298000Y-34250380D01*
X162393238Y-34298000D01*
X162440857Y-34345619D01*
X162488476Y-34440857D01*
X162488476Y-34536095D01*
X162440857Y-34678952D01*
X161869428Y-35250380D01*
X162488476Y-35250380D01*
X162821809Y-34250380D02*
X163440857Y-34250380D01*
X163107523Y-34631333D01*
X163250380Y-34631333D01*
X163345619Y-34678952D01*
X163393238Y-34726571D01*
X163440857Y-34821809D01*
X163440857Y-35059904D01*
X163393238Y-35155142D01*
X163345619Y-35202761D01*
X163250380Y-35250380D01*
X162964666Y-35250380D01*
X162869428Y-35202761D01*
X162821809Y-35155142D01*
X92718095Y-86022380D02*
X93289523Y-86022380D01*
X93003809Y-87022380D02*
X93003809Y-86022380D01*
X93622857Y-87022380D02*
X93622857Y-86022380D01*
X94003809Y-86022380D01*
X94099047Y-86070000D01*
X94146666Y-86117619D01*
X94194285Y-86212857D01*
X94194285Y-86355714D01*
X94146666Y-86450952D01*
X94099047Y-86498571D01*
X94003809Y-86546190D01*
X93622857Y-86546190D01*
X94765714Y-86450952D02*
X94670476Y-86403333D01*
X94622857Y-86355714D01*
X94575238Y-86260476D01*
X94575238Y-86212857D01*
X94622857Y-86117619D01*
X94670476Y-86070000D01*
X94765714Y-86022380D01*
X94956190Y-86022380D01*
X95051428Y-86070000D01*
X95099047Y-86117619D01*
X95146666Y-86212857D01*
X95146666Y-86260476D01*
X95099047Y-86355714D01*
X95051428Y-86403333D01*
X94956190Y-86450952D01*
X94765714Y-86450952D01*
X94670476Y-86498571D01*
X94622857Y-86546190D01*
X94575238Y-86641428D01*
X94575238Y-86831904D01*
X94622857Y-86927142D01*
X94670476Y-86974761D01*
X94765714Y-87022380D01*
X94956190Y-87022380D01*
X95051428Y-86974761D01*
X95099047Y-86927142D01*
X95146666Y-86831904D01*
X95146666Y-86641428D01*
X95099047Y-86546190D01*
X95051428Y-86498571D01*
X94956190Y-86450952D01*
X67818095Y-157694380D02*
X67818095Y-158503904D01*
X67865714Y-158599142D01*
X67913333Y-158646761D01*
X68008571Y-158694380D01*
X68199047Y-158694380D01*
X68294285Y-158646761D01*
X68341904Y-158599142D01*
X68389523Y-158503904D01*
X68389523Y-157694380D01*
X69294285Y-158027714D02*
X69294285Y-158694380D01*
X69056190Y-157646761D02*
X68818095Y-158361047D01*
X69437142Y-158361047D01*
X149733095Y-154392380D02*
X149733095Y-155201904D01*
X149780714Y-155297142D01*
X149828333Y-155344761D01*
X149923571Y-155392380D01*
X150114047Y-155392380D01*
X150209285Y-155344761D01*
X150256904Y-155297142D01*
X150304523Y-155201904D01*
X150304523Y-154392380D01*
X150828333Y-155392380D02*
X151018809Y-155392380D01*
X151114047Y-155344761D01*
X151161666Y-155297142D01*
X151256904Y-155154285D01*
X151304523Y-154963809D01*
X151304523Y-154582857D01*
X151256904Y-154487619D01*
X151209285Y-154440000D01*
X151114047Y-154392380D01*
X150923571Y-154392380D01*
X150828333Y-154440000D01*
X150780714Y-154487619D01*
X150733095Y-154582857D01*
X150733095Y-154820952D01*
X150780714Y-154916190D01*
X150828333Y-154963809D01*
X150923571Y-155011428D01*
X151114047Y-155011428D01*
X151209285Y-154963809D01*
X151256904Y-154916190D01*
X151304523Y-154820952D01*
X65968666Y-24090380D02*
X65968666Y-24804666D01*
X65921047Y-24947523D01*
X65825809Y-25042761D01*
X65682952Y-25090380D01*
X65587714Y-25090380D01*
X66444857Y-25090380D02*
X66444857Y-24090380D01*
X66825809Y-24090380D01*
X66921047Y-24138000D01*
X66968666Y-24185619D01*
X67016285Y-24280857D01*
X67016285Y-24423714D01*
X66968666Y-24518952D01*
X66921047Y-24566571D01*
X66825809Y-24614190D01*
X66444857Y-24614190D01*
X67873428Y-24090380D02*
X67682952Y-24090380D01*
X67587714Y-24138000D01*
X67540095Y-24185619D01*
X67444857Y-24328476D01*
X67397238Y-24518952D01*
X67397238Y-24899904D01*
X67444857Y-24995142D01*
X67492476Y-25042761D01*
X67587714Y-25090380D01*
X67778190Y-25090380D01*
X67873428Y-25042761D01*
X67921047Y-24995142D01*
X67968666Y-24899904D01*
X67968666Y-24661809D01*
X67921047Y-24566571D01*
X67873428Y-24518952D01*
X67778190Y-24471333D01*
X67587714Y-24471333D01*
X67492476Y-24518952D01*
X67444857Y-24566571D01*
X67397238Y-24661809D01*
X58602666Y-24090380D02*
X58602666Y-24804666D01*
X58555047Y-24947523D01*
X58459809Y-25042761D01*
X58316952Y-25090380D01*
X58221714Y-25090380D01*
X59078857Y-25090380D02*
X59078857Y-24090380D01*
X59459809Y-24090380D01*
X59555047Y-24138000D01*
X59602666Y-24185619D01*
X59650285Y-24280857D01*
X59650285Y-24423714D01*
X59602666Y-24518952D01*
X59555047Y-24566571D01*
X59459809Y-24614190D01*
X59078857Y-24614190D01*
X60555047Y-24090380D02*
X60078857Y-24090380D01*
X60031238Y-24566571D01*
X60078857Y-24518952D01*
X60174095Y-24471333D01*
X60412190Y-24471333D01*
X60507428Y-24518952D01*
X60555047Y-24566571D01*
X60602666Y-24661809D01*
X60602666Y-24899904D01*
X60555047Y-24995142D01*
X60507428Y-25042761D01*
X60412190Y-25090380D01*
X60174095Y-25090380D01*
X60078857Y-25042761D01*
X60031238Y-24995142D01*
X148256666Y-60202380D02*
X148256666Y-60916666D01*
X148209047Y-61059523D01*
X148113809Y-61154761D01*
X147970952Y-61202380D01*
X147875714Y-61202380D01*
X149161428Y-60535714D02*
X149161428Y-61202380D01*
X148923333Y-60154761D02*
X148685238Y-60869047D01*
X149304285Y-60869047D01*
X174238095Y-21252380D02*
X174238095Y-20252380D01*
X174238095Y-20728571D02*
X174809523Y-20728571D01*
X174809523Y-21252380D02*
X174809523Y-20252380D01*
X175809523Y-21252380D02*
X175238095Y-21252380D01*
X175523809Y-21252380D02*
X175523809Y-20252380D01*
X175428571Y-20395238D01*
X175333333Y-20490476D01*
X175238095Y-20538095D01*
X174238095Y-161252380D02*
X174238095Y-160252380D01*
X174238095Y-160728571D02*
X174809523Y-160728571D01*
X174809523Y-161252380D02*
X174809523Y-160252380D01*
X175238095Y-160347619D02*
X175285714Y-160300000D01*
X175380952Y-160252380D01*
X175619047Y-160252380D01*
X175714285Y-160300000D01*
X175761904Y-160347619D01*
X175809523Y-160442857D01*
X175809523Y-160538095D01*
X175761904Y-160680952D01*
X175190476Y-161252380D01*
X175809523Y-161252380D01*
X24238095Y-21252380D02*
X24238095Y-20252380D01*
X24238095Y-20728571D02*
X24809523Y-20728571D01*
X24809523Y-21252380D02*
X24809523Y-20252380D01*
X25190476Y-20252380D02*
X25809523Y-20252380D01*
X25476190Y-20633333D01*
X25619047Y-20633333D01*
X25714285Y-20680952D01*
X25761904Y-20728571D01*
X25809523Y-20823809D01*
X25809523Y-21061904D01*
X25761904Y-21157142D01*
X25714285Y-21204761D01*
X25619047Y-21252380D01*
X25333333Y-21252380D01*
X25238095Y-21204761D01*
X25190476Y-21157142D01*
X164238095Y-21252380D02*
X164238095Y-20252380D01*
X164238095Y-20728571D02*
X164809523Y-20728571D01*
X164809523Y-21252380D02*
X164809523Y-20252380D01*
X165714285Y-20585714D02*
X165714285Y-21252380D01*
X165476190Y-20204761D02*
X165238095Y-20919047D01*
X165857142Y-20919047D01*
X164238095Y-161252380D02*
X164238095Y-160252380D01*
X164238095Y-160728571D02*
X164809523Y-160728571D01*
X164809523Y-161252380D02*
X164809523Y-160252380D01*
X165761904Y-160252380D02*
X165285714Y-160252380D01*
X165238095Y-160728571D01*
X165285714Y-160680952D01*
X165380952Y-160633333D01*
X165619047Y-160633333D01*
X165714285Y-160680952D01*
X165761904Y-160728571D01*
X165809523Y-160823809D01*
X165809523Y-161061904D01*
X165761904Y-161157142D01*
X165714285Y-161204761D01*
X165619047Y-161252380D01*
X165380952Y-161252380D01*
X165285714Y-161204761D01*
X165238095Y-161157142D01*
X314238095Y-161252380D02*
X314238095Y-160252380D01*
X314238095Y-160728571D02*
X314809523Y-160728571D01*
X314809523Y-161252380D02*
X314809523Y-160252380D01*
X315714285Y-160252380D02*
X315523809Y-160252380D01*
X315428571Y-160300000D01*
X315380952Y-160347619D01*
X315285714Y-160490476D01*
X315238095Y-160680952D01*
X315238095Y-161061904D01*
X315285714Y-161157142D01*
X315333333Y-161204761D01*
X315428571Y-161252380D01*
X315619047Y-161252380D01*
X315714285Y-161204761D01*
X315761904Y-161157142D01*
X315809523Y-161061904D01*
X315809523Y-160823809D01*
X315761904Y-160728571D01*
X315714285Y-160680952D01*
X315619047Y-160633333D01*
X315428571Y-160633333D01*
X315333333Y-160680952D01*
X315285714Y-160728571D01*
X315238095Y-160823809D01*
X24238095Y-161252380D02*
X24238095Y-160252380D01*
X24238095Y-160728571D02*
X24809523Y-160728571D01*
X24809523Y-161252380D02*
X24809523Y-160252380D01*
X25190476Y-160252380D02*
X25857142Y-160252380D01*
X25428571Y-161252380D01*
X314238095Y-21252380D02*
X314238095Y-20252380D01*
X314238095Y-20728571D02*
X314809523Y-20728571D01*
X314809523Y-21252380D02*
X314809523Y-20252380D01*
X315428571Y-20680952D02*
X315333333Y-20633333D01*
X315285714Y-20585714D01*
X315238095Y-20490476D01*
X315238095Y-20442857D01*
X315285714Y-20347619D01*
X315333333Y-20300000D01*
X315428571Y-20252380D01*
X315619047Y-20252380D01*
X315714285Y-20300000D01*
X315761904Y-20347619D01*
X315809523Y-20442857D01*
X315809523Y-20490476D01*
X315761904Y-20585714D01*
X315714285Y-20633333D01*
X315619047Y-20680952D01*
X315428571Y-20680952D01*
X315333333Y-20728571D01*
X315285714Y-20776190D01*
X315238095Y-20871428D01*
X315238095Y-21061904D01*
X315285714Y-21157142D01*
X315333333Y-21204761D01*
X315428571Y-21252380D01*
X315619047Y-21252380D01*
X315714285Y-21204761D01*
X315761904Y-21157142D01*
X315809523Y-21061904D01*
X315809523Y-20871428D01*
X315761904Y-20776190D01*
X315714285Y-20728571D01*
X315619047Y-20680952D01*
X313551666Y-36882380D02*
X313551666Y-37596666D01*
X313504047Y-37739523D01*
X313408809Y-37834761D01*
X313265952Y-37882380D01*
X313170714Y-37882380D01*
X314551666Y-37882380D02*
X313980238Y-37882380D01*
X314265952Y-37882380D02*
X314265952Y-36882380D01*
X314170714Y-37025238D01*
X314075476Y-37120476D01*
X313980238Y-37168095D01*
X309346666Y-64147380D02*
X309346666Y-64861666D01*
X309299047Y-65004523D01*
X309203809Y-65099761D01*
X309060952Y-65147380D01*
X308965714Y-65147380D01*
X309775238Y-64242619D02*
X309822857Y-64195000D01*
X309918095Y-64147380D01*
X310156190Y-64147380D01*
X310251428Y-64195000D01*
X310299047Y-64242619D01*
X310346666Y-64337857D01*
X310346666Y-64433095D01*
X310299047Y-64575952D01*
X309727619Y-65147380D01*
X310346666Y-65147380D01*
X113212666Y-90682380D02*
X113212666Y-91396666D01*
X113165047Y-91539523D01*
X113069809Y-91634761D01*
X112926952Y-91682380D01*
X112831714Y-91682380D01*
X113688857Y-91682380D02*
X113688857Y-90682380D01*
X114069809Y-90682380D01*
X114165047Y-90730000D01*
X114212666Y-90777619D01*
X114260285Y-90872857D01*
X114260285Y-91015714D01*
X114212666Y-91110952D01*
X114165047Y-91158571D01*
X114069809Y-91206190D01*
X113688857Y-91206190D01*
X115212666Y-91682380D02*
X114641238Y-91682380D01*
X114926952Y-91682380D02*
X114926952Y-90682380D01*
X114831714Y-90825238D01*
X114736476Y-90920476D01*
X114641238Y-90968095D01*
X117276666Y-90682380D02*
X117276666Y-91396666D01*
X117229047Y-91539523D01*
X117133809Y-91634761D01*
X116990952Y-91682380D01*
X116895714Y-91682380D01*
X117752857Y-91682380D02*
X117752857Y-90682380D01*
X118133809Y-90682380D01*
X118229047Y-90730000D01*
X118276666Y-90777619D01*
X118324285Y-90872857D01*
X118324285Y-91015714D01*
X118276666Y-91110952D01*
X118229047Y-91158571D01*
X118133809Y-91206190D01*
X117752857Y-91206190D01*
X118705238Y-90777619D02*
X118752857Y-90730000D01*
X118848095Y-90682380D01*
X119086190Y-90682380D01*
X119181428Y-90730000D01*
X119229047Y-90777619D01*
X119276666Y-90872857D01*
X119276666Y-90968095D01*
X119229047Y-91110952D01*
X118657619Y-91682380D01*
X119276666Y-91682380D01*
X47680666Y-84796380D02*
X47680666Y-85510666D01*
X47633047Y-85653523D01*
X47537809Y-85748761D01*
X47394952Y-85796380D01*
X47299714Y-85796380D01*
X48156857Y-85796380D02*
X48156857Y-84796380D01*
X48537809Y-84796380D01*
X48633047Y-84844000D01*
X48680666Y-84891619D01*
X48728285Y-84986857D01*
X48728285Y-85129714D01*
X48680666Y-85224952D01*
X48633047Y-85272571D01*
X48537809Y-85320190D01*
X48156857Y-85320190D01*
X49061619Y-84796380D02*
X49680666Y-84796380D01*
X49347333Y-85177333D01*
X49490190Y-85177333D01*
X49585428Y-85224952D01*
X49633047Y-85272571D01*
X49680666Y-85367809D01*
X49680666Y-85605904D01*
X49633047Y-85701142D01*
X49585428Y-85748761D01*
X49490190Y-85796380D01*
X49204476Y-85796380D01*
X49109238Y-85748761D01*
X49061619Y-85701142D01*
X43870666Y-84796380D02*
X43870666Y-85510666D01*
X43823047Y-85653523D01*
X43727809Y-85748761D01*
X43584952Y-85796380D01*
X43489714Y-85796380D01*
X44346857Y-85796380D02*
X44346857Y-84796380D01*
X44727809Y-84796380D01*
X44823047Y-84844000D01*
X44870666Y-84891619D01*
X44918285Y-84986857D01*
X44918285Y-85129714D01*
X44870666Y-85224952D01*
X44823047Y-85272571D01*
X44727809Y-85320190D01*
X44346857Y-85320190D01*
X45775428Y-85129714D02*
X45775428Y-85796380D01*
X45537333Y-84748761D02*
X45299238Y-85463047D01*
X45918285Y-85463047D01*
X230636380Y-80081333D02*
X231350666Y-80081333D01*
X231493523Y-80128952D01*
X231588761Y-80224190D01*
X231636380Y-80367047D01*
X231636380Y-80462285D01*
X231636380Y-79605142D02*
X230636380Y-79605142D01*
X230636380Y-79224190D01*
X230684000Y-79128952D01*
X230731619Y-79081333D01*
X230826857Y-79033714D01*
X230969714Y-79033714D01*
X231064952Y-79081333D01*
X231112571Y-79128952D01*
X231160190Y-79224190D01*
X231160190Y-79605142D01*
X231636380Y-78557523D02*
X231636380Y-78367047D01*
X231588761Y-78271809D01*
X231541142Y-78224190D01*
X231398285Y-78128952D01*
X231207809Y-78081333D01*
X230826857Y-78081333D01*
X230731619Y-78128952D01*
X230684000Y-78176571D01*
X230636380Y-78271809D01*
X230636380Y-78462285D01*
X230684000Y-78557523D01*
X230731619Y-78605142D01*
X230826857Y-78652761D01*
X231064952Y-78652761D01*
X231160190Y-78605142D01*
X231207809Y-78557523D01*
X231255428Y-78462285D01*
X231255428Y-78271809D01*
X231207809Y-78176571D01*
X231160190Y-78128952D01*
X231064952Y-78081333D01*
X230636380Y-83859523D02*
X231350666Y-83859523D01*
X231493523Y-83907142D01*
X231588761Y-84002380D01*
X231636380Y-84145238D01*
X231636380Y-84240476D01*
X231636380Y-83383333D02*
X230636380Y-83383333D01*
X230636380Y-83002380D01*
X230684000Y-82907142D01*
X230731619Y-82859523D01*
X230826857Y-82811904D01*
X230969714Y-82811904D01*
X231064952Y-82859523D01*
X231112571Y-82907142D01*
X231160190Y-83002380D01*
X231160190Y-83383333D01*
X231636380Y-81859523D02*
X231636380Y-82430952D01*
X231636380Y-82145238D02*
X230636380Y-82145238D01*
X230779238Y-82240476D01*
X230874476Y-82335714D01*
X230922095Y-82430952D01*
X230636380Y-81240476D02*
X230636380Y-81145238D01*
X230684000Y-81050000D01*
X230731619Y-81002380D01*
X230826857Y-80954761D01*
X231017333Y-80907142D01*
X231255428Y-80907142D01*
X231445904Y-80954761D01*
X231541142Y-81002380D01*
X231588761Y-81050000D01*
X231636380Y-81145238D01*
X231636380Y-81240476D01*
X231588761Y-81335714D01*
X231541142Y-81383333D01*
X231445904Y-81430952D01*
X231255428Y-81478571D01*
X231017333Y-81478571D01*
X230826857Y-81430952D01*
X230731619Y-81383333D01*
X230684000Y-81335714D01*
X230636380Y-81240476D01*
X144740476Y-92714380D02*
X144740476Y-93428666D01*
X144692857Y-93571523D01*
X144597619Y-93666761D01*
X144454761Y-93714380D01*
X144359523Y-93714380D01*
X145216666Y-93714380D02*
X145216666Y-92714380D01*
X145597619Y-92714380D01*
X145692857Y-92762000D01*
X145740476Y-92809619D01*
X145788095Y-92904857D01*
X145788095Y-93047714D01*
X145740476Y-93142952D01*
X145692857Y-93190571D01*
X145597619Y-93238190D01*
X145216666Y-93238190D01*
X146740476Y-93714380D02*
X146169047Y-93714380D01*
X146454761Y-93714380D02*
X146454761Y-92714380D01*
X146359523Y-92857238D01*
X146264285Y-92952476D01*
X146169047Y-93000095D01*
X147692857Y-93714380D02*
X147121428Y-93714380D01*
X147407142Y-93714380D02*
X147407142Y-92714380D01*
X147311904Y-92857238D01*
X147216666Y-92952476D01*
X147121428Y-93000095D01*
X159770380Y-69381523D02*
X160484666Y-69381523D01*
X160627523Y-69429142D01*
X160722761Y-69524380D01*
X160770380Y-69667238D01*
X160770380Y-69762476D01*
X160770380Y-68905333D02*
X159770380Y-68905333D01*
X159770380Y-68524380D01*
X159818000Y-68429142D01*
X159865619Y-68381523D01*
X159960857Y-68333904D01*
X160103714Y-68333904D01*
X160198952Y-68381523D01*
X160246571Y-68429142D01*
X160294190Y-68524380D01*
X160294190Y-68905333D01*
X160770380Y-67381523D02*
X160770380Y-67952952D01*
X160770380Y-67667238D02*
X159770380Y-67667238D01*
X159913238Y-67762476D01*
X160008476Y-67857714D01*
X160056095Y-67952952D01*
X159865619Y-67000571D02*
X159818000Y-66952952D01*
X159770380Y-66857714D01*
X159770380Y-66619619D01*
X159818000Y-66524380D01*
X159865619Y-66476761D01*
X159960857Y-66429142D01*
X160056095Y-66429142D01*
X160198952Y-66476761D01*
X160770380Y-67048190D01*
X160770380Y-66429142D01*
X145442195Y-162106248D02*
X145442195Y-162820534D01*
X145394576Y-162963391D01*
X145299338Y-163058629D01*
X145156480Y-163106248D01*
X145061242Y-163106248D01*
X145918385Y-163106248D02*
X145918385Y-162106248D01*
X146299338Y-162106248D01*
X146394576Y-162153868D01*
X146442195Y-162201487D01*
X146489814Y-162296725D01*
X146489814Y-162439582D01*
X146442195Y-162534820D01*
X146394576Y-162582439D01*
X146299338Y-162630058D01*
X145918385Y-162630058D01*
X147442195Y-163106248D02*
X146870766Y-163106248D01*
X147156480Y-163106248D02*
X147156480Y-162106248D01*
X147061242Y-162249106D01*
X146966004Y-162344344D01*
X146870766Y-162391963D01*
X147775528Y-162106248D02*
X148394576Y-162106248D01*
X148061242Y-162487201D01*
X148204099Y-162487201D01*
X148299338Y-162534820D01*
X148346957Y-162582439D01*
X148394576Y-162677677D01*
X148394576Y-162915772D01*
X148346957Y-163011010D01*
X148299338Y-163058629D01*
X148204099Y-163106248D01*
X147918385Y-163106248D01*
X147823147Y-163058629D01*
X147775528Y-163011010D01*
X149252195Y-162106248D02*
X149252195Y-162820534D01*
X149204576Y-162963391D01*
X149109338Y-163058629D01*
X148966480Y-163106248D01*
X148871242Y-163106248D01*
X149728385Y-163106248D02*
X149728385Y-162106248D01*
X150109338Y-162106248D01*
X150204576Y-162153868D01*
X150252195Y-162201487D01*
X150299814Y-162296725D01*
X150299814Y-162439582D01*
X150252195Y-162534820D01*
X150204576Y-162582439D01*
X150109338Y-162630058D01*
X149728385Y-162630058D01*
X151252195Y-163106248D02*
X150680766Y-163106248D01*
X150966480Y-163106248D02*
X150966480Y-162106248D01*
X150871242Y-162249106D01*
X150776004Y-162344344D01*
X150680766Y-162391963D01*
X152109338Y-162439582D02*
X152109338Y-163106248D01*
X151871242Y-162058629D02*
X151633147Y-162772915D01*
X152252195Y-162772915D01*
X134789865Y-162106248D02*
X134789865Y-162820534D01*
X134742246Y-162963391D01*
X134647008Y-163058629D01*
X134504150Y-163106248D01*
X134408912Y-163106248D01*
X135266055Y-163106248D02*
X135266055Y-162106248D01*
X135647008Y-162106248D01*
X135742246Y-162153868D01*
X135789865Y-162201487D01*
X135837484Y-162296725D01*
X135837484Y-162439582D01*
X135789865Y-162534820D01*
X135742246Y-162582439D01*
X135647008Y-162630058D01*
X135266055Y-162630058D01*
X136789865Y-163106248D02*
X136218436Y-163106248D01*
X136504150Y-163106248D02*
X136504150Y-162106248D01*
X136408912Y-162249106D01*
X136313674Y-162344344D01*
X136218436Y-162391963D01*
X137694627Y-162106248D02*
X137218436Y-162106248D01*
X137170817Y-162582439D01*
X137218436Y-162534820D01*
X137313674Y-162487201D01*
X137551769Y-162487201D01*
X137647008Y-162534820D01*
X137694627Y-162582439D01*
X137742246Y-162677677D01*
X137742246Y-162915772D01*
X137694627Y-163011010D01*
X137647008Y-163058629D01*
X137551769Y-163106248D01*
X137313674Y-163106248D01*
X137218436Y-163058629D01*
X137170817Y-163011010D01*
X138599865Y-162106248D02*
X138599865Y-162820534D01*
X138552246Y-162963391D01*
X138457008Y-163058629D01*
X138314150Y-163106248D01*
X138218912Y-163106248D01*
X139076055Y-163106248D02*
X139076055Y-162106248D01*
X139457008Y-162106248D01*
X139552246Y-162153868D01*
X139599865Y-162201487D01*
X139647484Y-162296725D01*
X139647484Y-162439582D01*
X139599865Y-162534820D01*
X139552246Y-162582439D01*
X139457008Y-162630058D01*
X139076055Y-162630058D01*
X140599865Y-163106248D02*
X140028436Y-163106248D01*
X140314150Y-163106248D02*
X140314150Y-162106248D01*
X140218912Y-162249106D01*
X140123674Y-162344344D01*
X140028436Y-162391963D01*
X141457008Y-162106248D02*
X141266531Y-162106248D01*
X141171293Y-162153868D01*
X141123674Y-162201487D01*
X141028436Y-162344344D01*
X140980817Y-162534820D01*
X140980817Y-162915772D01*
X141028436Y-163011010D01*
X141076055Y-163058629D01*
X141171293Y-163106248D01*
X141361769Y-163106248D01*
X141457008Y-163058629D01*
X141504627Y-163011010D01*
X141552246Y-162915772D01*
X141552246Y-162677677D01*
X141504627Y-162582439D01*
X141457008Y-162534820D01*
X141361769Y-162487201D01*
X141171293Y-162487201D01*
X141076055Y-162534820D01*
X141028436Y-162582439D01*
X140980817Y-162677677D01*
X231354380Y-76747523D02*
X232068666Y-76747523D01*
X232211523Y-76795142D01*
X232306761Y-76890380D01*
X232354380Y-77033238D01*
X232354380Y-77128476D01*
X232354380Y-76271333D02*
X231354380Y-76271333D01*
X231354380Y-75890380D01*
X231402000Y-75795142D01*
X231449619Y-75747523D01*
X231544857Y-75699904D01*
X231687714Y-75699904D01*
X231782952Y-75747523D01*
X231830571Y-75795142D01*
X231878190Y-75890380D01*
X231878190Y-76271333D01*
X232354380Y-74747523D02*
X232354380Y-75318952D01*
X232354380Y-75033238D02*
X231354380Y-75033238D01*
X231497238Y-75128476D01*
X231592476Y-75223714D01*
X231640095Y-75318952D01*
X231354380Y-74414190D02*
X231354380Y-73747523D01*
X232354380Y-74176095D01*
X152570380Y-73445523D02*
X153284666Y-73445523D01*
X153427523Y-73493142D01*
X153522761Y-73588380D01*
X153570380Y-73731238D01*
X153570380Y-73826476D01*
X153570380Y-72969333D02*
X152570380Y-72969333D01*
X152570380Y-72588380D01*
X152618000Y-72493142D01*
X152665619Y-72445523D01*
X152760857Y-72397904D01*
X152903714Y-72397904D01*
X152998952Y-72445523D01*
X153046571Y-72493142D01*
X153094190Y-72588380D01*
X153094190Y-72969333D01*
X153570380Y-71445523D02*
X153570380Y-72016952D01*
X153570380Y-71731238D02*
X152570380Y-71731238D01*
X152713238Y-71826476D01*
X152808476Y-71921714D01*
X152856095Y-72016952D01*
X152998952Y-70874095D02*
X152951333Y-70969333D01*
X152903714Y-71016952D01*
X152808476Y-71064571D01*
X152760857Y-71064571D01*
X152665619Y-71016952D01*
X152618000Y-70969333D01*
X152570380Y-70874095D01*
X152570380Y-70683619D01*
X152618000Y-70588380D01*
X152665619Y-70540761D01*
X152760857Y-70493142D01*
X152808476Y-70493142D01*
X152903714Y-70540761D01*
X152951333Y-70588380D01*
X152998952Y-70683619D01*
X152998952Y-70874095D01*
X153046571Y-70969333D01*
X153094190Y-71016952D01*
X153189428Y-71064571D01*
X153379904Y-71064571D01*
X153475142Y-71016952D01*
X153522761Y-70969333D01*
X153570380Y-70874095D01*
X153570380Y-70683619D01*
X153522761Y-70588380D01*
X153475142Y-70540761D01*
X153379904Y-70493142D01*
X153189428Y-70493142D01*
X153094190Y-70540761D01*
X153046571Y-70588380D01*
X152998952Y-70683619D01*
X149058476Y-85514380D02*
X149058476Y-86228666D01*
X149010857Y-86371523D01*
X148915619Y-86466761D01*
X148772761Y-86514380D01*
X148677523Y-86514380D01*
X149534666Y-86514380D02*
X149534666Y-85514380D01*
X149915619Y-85514380D01*
X150010857Y-85562000D01*
X150058476Y-85609619D01*
X150106095Y-85704857D01*
X150106095Y-85847714D01*
X150058476Y-85942952D01*
X150010857Y-85990571D01*
X149915619Y-86038190D01*
X149534666Y-86038190D01*
X151058476Y-86514380D02*
X150487047Y-86514380D01*
X150772761Y-86514380D02*
X150772761Y-85514380D01*
X150677523Y-85657238D01*
X150582285Y-85752476D01*
X150487047Y-85800095D01*
X151534666Y-86514380D02*
X151725142Y-86514380D01*
X151820380Y-86466761D01*
X151868000Y-86419142D01*
X151963238Y-86276285D01*
X152010857Y-86085809D01*
X152010857Y-85704857D01*
X151963238Y-85609619D01*
X151915619Y-85562000D01*
X151820380Y-85514380D01*
X151629904Y-85514380D01*
X151534666Y-85562000D01*
X151487047Y-85609619D01*
X151439428Y-85704857D01*
X151439428Y-85942952D01*
X151487047Y-86038190D01*
X151534666Y-86085809D01*
X151629904Y-86133428D01*
X151820380Y-86133428D01*
X151915619Y-86085809D01*
X151963238Y-86038190D01*
X152010857Y-85942952D01*
X88908095Y-86022380D02*
X89479523Y-86022380D01*
X89193809Y-87022380D02*
X89193809Y-86022380D01*
X89812857Y-87022380D02*
X89812857Y-86022380D01*
X90193809Y-86022380D01*
X90289047Y-86070000D01*
X90336666Y-86117619D01*
X90384285Y-86212857D01*
X90384285Y-86355714D01*
X90336666Y-86450952D01*
X90289047Y-86498571D01*
X90193809Y-86546190D01*
X89812857Y-86546190D01*
X91336666Y-87022380D02*
X90765238Y-87022380D01*
X91050952Y-87022380D02*
X91050952Y-86022380D01*
X90955714Y-86165238D01*
X90860476Y-86260476D01*
X90765238Y-86308095D01*
X86368095Y-86022380D02*
X86939523Y-86022380D01*
X86653809Y-87022380D02*
X86653809Y-86022380D01*
X87272857Y-87022380D02*
X87272857Y-86022380D01*
X87653809Y-86022380D01*
X87749047Y-86070000D01*
X87796666Y-86117619D01*
X87844285Y-86212857D01*
X87844285Y-86355714D01*
X87796666Y-86450952D01*
X87749047Y-86498571D01*
X87653809Y-86546190D01*
X87272857Y-86546190D01*
X88225238Y-86117619D02*
X88272857Y-86070000D01*
X88368095Y-86022380D01*
X88606190Y-86022380D01*
X88701428Y-86070000D01*
X88749047Y-86117619D01*
X88796666Y-86212857D01*
X88796666Y-86308095D01*
X88749047Y-86450952D01*
X88177619Y-87022380D01*
X88796666Y-87022380D01*
X107958095Y-86022380D02*
X108529523Y-86022380D01*
X108243809Y-87022380D02*
X108243809Y-86022380D01*
X108862857Y-87022380D02*
X108862857Y-86022380D01*
X109243809Y-86022380D01*
X109339047Y-86070000D01*
X109386666Y-86117619D01*
X109434285Y-86212857D01*
X109434285Y-86355714D01*
X109386666Y-86450952D01*
X109339047Y-86498571D01*
X109243809Y-86546190D01*
X108862857Y-86546190D01*
X109767619Y-86022380D02*
X110386666Y-86022380D01*
X110053333Y-86403333D01*
X110196190Y-86403333D01*
X110291428Y-86450952D01*
X110339047Y-86498571D01*
X110386666Y-86593809D01*
X110386666Y-86831904D01*
X110339047Y-86927142D01*
X110291428Y-86974761D01*
X110196190Y-87022380D01*
X109910476Y-87022380D01*
X109815238Y-86974761D01*
X109767619Y-86927142D01*
X105418095Y-86022380D02*
X105989523Y-86022380D01*
X105703809Y-87022380D02*
X105703809Y-86022380D01*
X106322857Y-87022380D02*
X106322857Y-86022380D01*
X106703809Y-86022380D01*
X106799047Y-86070000D01*
X106846666Y-86117619D01*
X106894285Y-86212857D01*
X106894285Y-86355714D01*
X106846666Y-86450952D01*
X106799047Y-86498571D01*
X106703809Y-86546190D01*
X106322857Y-86546190D01*
X107751428Y-86355714D02*
X107751428Y-87022380D01*
X107513333Y-85974761D02*
X107275238Y-86689047D01*
X107894285Y-86689047D01*
X101608095Y-86022380D02*
X102179523Y-86022380D01*
X101893809Y-87022380D02*
X101893809Y-86022380D01*
X102512857Y-87022380D02*
X102512857Y-86022380D01*
X102893809Y-86022380D01*
X102989047Y-86070000D01*
X103036666Y-86117619D01*
X103084285Y-86212857D01*
X103084285Y-86355714D01*
X103036666Y-86450952D01*
X102989047Y-86498571D01*
X102893809Y-86546190D01*
X102512857Y-86546190D01*
X103989047Y-86022380D02*
X103512857Y-86022380D01*
X103465238Y-86498571D01*
X103512857Y-86450952D01*
X103608095Y-86403333D01*
X103846190Y-86403333D01*
X103941428Y-86450952D01*
X103989047Y-86498571D01*
X104036666Y-86593809D01*
X104036666Y-86831904D01*
X103989047Y-86927142D01*
X103941428Y-86974761D01*
X103846190Y-87022380D01*
X103608095Y-87022380D01*
X103512857Y-86974761D01*
X103465238Y-86927142D01*
X99068095Y-86022380D02*
X99639523Y-86022380D01*
X99353809Y-87022380D02*
X99353809Y-86022380D01*
X99972857Y-87022380D02*
X99972857Y-86022380D01*
X100353809Y-86022380D01*
X100449047Y-86070000D01*
X100496666Y-86117619D01*
X100544285Y-86212857D01*
X100544285Y-86355714D01*
X100496666Y-86450952D01*
X100449047Y-86498571D01*
X100353809Y-86546190D01*
X99972857Y-86546190D01*
X101401428Y-86022380D02*
X101210952Y-86022380D01*
X101115714Y-86070000D01*
X101068095Y-86117619D01*
X100972857Y-86260476D01*
X100925238Y-86450952D01*
X100925238Y-86831904D01*
X100972857Y-86927142D01*
X101020476Y-86974761D01*
X101115714Y-87022380D01*
X101306190Y-87022380D01*
X101401428Y-86974761D01*
X101449047Y-86927142D01*
X101496666Y-86831904D01*
X101496666Y-86593809D01*
X101449047Y-86498571D01*
X101401428Y-86450952D01*
X101306190Y-86403333D01*
X101115714Y-86403333D01*
X101020476Y-86450952D01*
X100972857Y-86498571D01*
X100925238Y-86593809D01*
X95258095Y-86022380D02*
X95829523Y-86022380D01*
X95543809Y-87022380D02*
X95543809Y-86022380D01*
X96162857Y-87022380D02*
X96162857Y-86022380D01*
X96543809Y-86022380D01*
X96639047Y-86070000D01*
X96686666Y-86117619D01*
X96734285Y-86212857D01*
X96734285Y-86355714D01*
X96686666Y-86450952D01*
X96639047Y-86498571D01*
X96543809Y-86546190D01*
X96162857Y-86546190D01*
X97067619Y-86022380D02*
X97734285Y-86022380D01*
X97305714Y-87022380D01*
X47252095Y-92880380D02*
X47823523Y-92880380D01*
X47537809Y-93880380D02*
X47537809Y-92880380D01*
X48156857Y-93880380D02*
X48156857Y-92880380D01*
X48537809Y-92880380D01*
X48633047Y-92928000D01*
X48680666Y-92975619D01*
X48728285Y-93070857D01*
X48728285Y-93213714D01*
X48680666Y-93308952D01*
X48633047Y-93356571D01*
X48537809Y-93404190D01*
X48156857Y-93404190D01*
X49204476Y-93880380D02*
X49394952Y-93880380D01*
X49490190Y-93832761D01*
X49537809Y-93785142D01*
X49633047Y-93642285D01*
X49680666Y-93451809D01*
X49680666Y-93070857D01*
X49633047Y-92975619D01*
X49585428Y-92928000D01*
X49490190Y-92880380D01*
X49299714Y-92880380D01*
X49204476Y-92928000D01*
X49156857Y-92975619D01*
X49109238Y-93070857D01*
X49109238Y-93308952D01*
X49156857Y-93404190D01*
X49204476Y-93451809D01*
X49299714Y-93499428D01*
X49490190Y-93499428D01*
X49585428Y-93451809D01*
X49633047Y-93404190D01*
X49680666Y-93308952D01*
X42965904Y-92880380D02*
X43537333Y-92880380D01*
X43251619Y-93880380D02*
X43251619Y-92880380D01*
X43870666Y-93880380D02*
X43870666Y-92880380D01*
X44251619Y-92880380D01*
X44346857Y-92928000D01*
X44394476Y-92975619D01*
X44442095Y-93070857D01*
X44442095Y-93213714D01*
X44394476Y-93308952D01*
X44346857Y-93356571D01*
X44251619Y-93404190D01*
X43870666Y-93404190D01*
X45394476Y-93880380D02*
X44823047Y-93880380D01*
X45108761Y-93880380D02*
X45108761Y-92880380D01*
X45013523Y-93023238D01*
X44918285Y-93118476D01*
X44823047Y-93166095D01*
X46013523Y-92880380D02*
X46108761Y-92880380D01*
X46204000Y-92928000D01*
X46251619Y-92975619D01*
X46299238Y-93070857D01*
X46346857Y-93261333D01*
X46346857Y-93499428D01*
X46299238Y-93689904D01*
X46251619Y-93785142D01*
X46204000Y-93832761D01*
X46108761Y-93880380D01*
X46013523Y-93880380D01*
X45918285Y-93832761D01*
X45870666Y-93785142D01*
X45823047Y-93689904D01*
X45775428Y-93499428D01*
X45775428Y-93261333D01*
X45823047Y-93070857D01*
X45870666Y-92975619D01*
X45918285Y-92928000D01*
X46013523Y-92880380D01*
X160059904Y-42886380D02*
X160631333Y-42886380D01*
X160345619Y-43886380D02*
X160345619Y-42886380D01*
X160964666Y-43886380D02*
X160964666Y-42886380D01*
X161345619Y-42886380D01*
X161440857Y-42934000D01*
X161488476Y-42981619D01*
X161536095Y-43076857D01*
X161536095Y-43219714D01*
X161488476Y-43314952D01*
X161440857Y-43362571D01*
X161345619Y-43410190D01*
X160964666Y-43410190D01*
X162488476Y-43886380D02*
X161917047Y-43886380D01*
X162202761Y-43886380D02*
X162202761Y-42886380D01*
X162107523Y-43029238D01*
X162012285Y-43124476D01*
X161917047Y-43172095D01*
X163345619Y-43219714D02*
X163345619Y-43886380D01*
X163107523Y-42838761D02*
X162869428Y-43553047D01*
X163488476Y-43553047D01*
X130341904Y-27602380D02*
X130913333Y-27602380D01*
X130627619Y-28602380D02*
X130627619Y-27602380D01*
X131246666Y-28602380D02*
X131246666Y-27602380D01*
X131627619Y-27602380D01*
X131722857Y-27650000D01*
X131770476Y-27697619D01*
X131818095Y-27792857D01*
X131818095Y-27935714D01*
X131770476Y-28030952D01*
X131722857Y-28078571D01*
X131627619Y-28126190D01*
X131246666Y-28126190D01*
X132770476Y-28602380D02*
X132199047Y-28602380D01*
X132484761Y-28602380D02*
X132484761Y-27602380D01*
X132389523Y-27745238D01*
X132294285Y-27840476D01*
X132199047Y-27888095D01*
X133675238Y-27602380D02*
X133199047Y-27602380D01*
X133151428Y-28078571D01*
X133199047Y-28030952D01*
X133294285Y-27983333D01*
X133532380Y-27983333D01*
X133627619Y-28030952D01*
X133675238Y-28078571D01*
X133722857Y-28173809D01*
X133722857Y-28411904D01*
X133675238Y-28507142D01*
X133627619Y-28554761D01*
X133532380Y-28602380D01*
X133294285Y-28602380D01*
X133199047Y-28554761D01*
X133151428Y-28507142D01*
X160313904Y-80224380D02*
X160885333Y-80224380D01*
X160599619Y-81224380D02*
X160599619Y-80224380D01*
X161218666Y-81224380D02*
X161218666Y-80224380D01*
X161599619Y-80224380D01*
X161694857Y-80272000D01*
X161742476Y-80319619D01*
X161790095Y-80414857D01*
X161790095Y-80557714D01*
X161742476Y-80652952D01*
X161694857Y-80700571D01*
X161599619Y-80748190D01*
X161218666Y-80748190D01*
X162742476Y-81224380D02*
X162171047Y-81224380D01*
X162456761Y-81224380D02*
X162456761Y-80224380D01*
X162361523Y-80367238D01*
X162266285Y-80462476D01*
X162171047Y-80510095D01*
X163599619Y-80224380D02*
X163409142Y-80224380D01*
X163313904Y-80272000D01*
X163266285Y-80319619D01*
X163171047Y-80462476D01*
X163123428Y-80652952D01*
X163123428Y-81033904D01*
X163171047Y-81129142D01*
X163218666Y-81176761D01*
X163313904Y-81224380D01*
X163504380Y-81224380D01*
X163599619Y-81176761D01*
X163647238Y-81129142D01*
X163694857Y-81033904D01*
X163694857Y-80795809D01*
X163647238Y-80700571D01*
X163599619Y-80652952D01*
X163504380Y-80605333D01*
X163313904Y-80605333D01*
X163218666Y-80652952D01*
X163171047Y-80700571D01*
X163123428Y-80795809D01*
X160567904Y-77176380D02*
X161139333Y-77176380D01*
X160853619Y-78176380D02*
X160853619Y-77176380D01*
X161472666Y-78176380D02*
X161472666Y-77176380D01*
X161853619Y-77176380D01*
X161948857Y-77224000D01*
X161996476Y-77271619D01*
X162044095Y-77366857D01*
X162044095Y-77509714D01*
X161996476Y-77604952D01*
X161948857Y-77652571D01*
X161853619Y-77700190D01*
X161472666Y-77700190D01*
X162996476Y-78176380D02*
X162425047Y-78176380D01*
X162710761Y-78176380D02*
X162710761Y-77176380D01*
X162615523Y-77319238D01*
X162520285Y-77414476D01*
X162425047Y-77462095D01*
X163329809Y-77176380D02*
X163996476Y-77176380D01*
X163567904Y-78176380D01*
X160313904Y-82764380D02*
X160885333Y-82764380D01*
X160599619Y-83764380D02*
X160599619Y-82764380D01*
X161218666Y-83764380D02*
X161218666Y-82764380D01*
X161599619Y-82764380D01*
X161694857Y-82812000D01*
X161742476Y-82859619D01*
X161790095Y-82954857D01*
X161790095Y-83097714D01*
X161742476Y-83192952D01*
X161694857Y-83240571D01*
X161599619Y-83288190D01*
X161218666Y-83288190D01*
X162742476Y-83764380D02*
X162171047Y-83764380D01*
X162456761Y-83764380D02*
X162456761Y-82764380D01*
X162361523Y-82907238D01*
X162266285Y-83002476D01*
X162171047Y-83050095D01*
X163313904Y-83192952D02*
X163218666Y-83145333D01*
X163171047Y-83097714D01*
X163123428Y-83002476D01*
X163123428Y-82954857D01*
X163171047Y-82859619D01*
X163218666Y-82812000D01*
X163313904Y-82764380D01*
X163504380Y-82764380D01*
X163599619Y-82812000D01*
X163647238Y-82859619D01*
X163694857Y-82954857D01*
X163694857Y-83002476D01*
X163647238Y-83097714D01*
X163599619Y-83145333D01*
X163504380Y-83192952D01*
X163313904Y-83192952D01*
X163218666Y-83240571D01*
X163171047Y-83288190D01*
X163123428Y-83383428D01*
X163123428Y-83573904D01*
X163171047Y-83669142D01*
X163218666Y-83716761D01*
X163313904Y-83764380D01*
X163504380Y-83764380D01*
X163599619Y-83716761D01*
X163647238Y-83669142D01*
X163694857Y-83573904D01*
X163694857Y-83383428D01*
X163647238Y-83288190D01*
X163599619Y-83240571D01*
X163504380Y-83192952D01*
X160059904Y-40346380D02*
X160631333Y-40346380D01*
X160345619Y-41346380D02*
X160345619Y-40346380D01*
X160964666Y-41346380D02*
X160964666Y-40346380D01*
X161345619Y-40346380D01*
X161440857Y-40394000D01*
X161488476Y-40441619D01*
X161536095Y-40536857D01*
X161536095Y-40679714D01*
X161488476Y-40774952D01*
X161440857Y-40822571D01*
X161345619Y-40870190D01*
X160964666Y-40870190D01*
X161917047Y-40441619D02*
X161964666Y-40394000D01*
X162059904Y-40346380D01*
X162298000Y-40346380D01*
X162393238Y-40394000D01*
X162440857Y-40441619D01*
X162488476Y-40536857D01*
X162488476Y-40632095D01*
X162440857Y-40774952D01*
X161869428Y-41346380D01*
X162488476Y-41346380D01*
X163107523Y-40346380D02*
X163202761Y-40346380D01*
X163298000Y-40394000D01*
X163345619Y-40441619D01*
X163393238Y-40536857D01*
X163440857Y-40727333D01*
X163440857Y-40965428D01*
X163393238Y-41155904D01*
X163345619Y-41251142D01*
X163298000Y-41298761D01*
X163202761Y-41346380D01*
X163107523Y-41346380D01*
X163012285Y-41298761D01*
X162964666Y-41251142D01*
X162917047Y-41155904D01*
X162869428Y-40965428D01*
X162869428Y-40727333D01*
X162917047Y-40536857D01*
X162964666Y-40441619D01*
X163012285Y-40394000D01*
X163107523Y-40346380D01*
X132627904Y-26122380D02*
X133199333Y-26122380D01*
X132913619Y-27122380D02*
X132913619Y-26122380D01*
X133532666Y-27122380D02*
X133532666Y-26122380D01*
X133913619Y-26122380D01*
X134008857Y-26170000D01*
X134056476Y-26217619D01*
X134104095Y-26312857D01*
X134104095Y-26455714D01*
X134056476Y-26550952D01*
X134008857Y-26598571D01*
X133913619Y-26646190D01*
X133532666Y-26646190D01*
X134485047Y-26217619D02*
X134532666Y-26170000D01*
X134627904Y-26122380D01*
X134866000Y-26122380D01*
X134961238Y-26170000D01*
X135008857Y-26217619D01*
X135056476Y-26312857D01*
X135056476Y-26408095D01*
X135008857Y-26550952D01*
X134437428Y-27122380D01*
X135056476Y-27122380D01*
X136008857Y-27122380D02*
X135437428Y-27122380D01*
X135723142Y-27122380D02*
X135723142Y-26122380D01*
X135627904Y-26265238D01*
X135532666Y-26360476D01*
X135437428Y-26408095D01*
X160059904Y-37298380D02*
X160631333Y-37298380D01*
X160345619Y-38298380D02*
X160345619Y-37298380D01*
X160964666Y-38298380D02*
X160964666Y-37298380D01*
X161345619Y-37298380D01*
X161440857Y-37346000D01*
X161488476Y-37393619D01*
X161536095Y-37488857D01*
X161536095Y-37631714D01*
X161488476Y-37726952D01*
X161440857Y-37774571D01*
X161345619Y-37822190D01*
X160964666Y-37822190D01*
X161917047Y-37393619D02*
X161964666Y-37346000D01*
X162059904Y-37298380D01*
X162298000Y-37298380D01*
X162393238Y-37346000D01*
X162440857Y-37393619D01*
X162488476Y-37488857D01*
X162488476Y-37584095D01*
X162440857Y-37726952D01*
X161869428Y-38298380D01*
X162488476Y-38298380D01*
X162869428Y-37393619D02*
X162917047Y-37346000D01*
X163012285Y-37298380D01*
X163250380Y-37298380D01*
X163345619Y-37346000D01*
X163393238Y-37393619D01*
X163440857Y-37488857D01*
X163440857Y-37584095D01*
X163393238Y-37726952D01*
X162821809Y-38298380D01*
X163440857Y-38298380D01*
X253023904Y-25570380D02*
X253595333Y-25570380D01*
X253309619Y-26570380D02*
X253309619Y-25570380D01*
X253928666Y-26570380D02*
X253928666Y-25570380D01*
X254309619Y-25570380D01*
X254404857Y-25618000D01*
X254452476Y-25665619D01*
X254500095Y-25760857D01*
X254500095Y-25903714D01*
X254452476Y-25998952D01*
X254404857Y-26046571D01*
X254309619Y-26094190D01*
X253928666Y-26094190D01*
X254881047Y-25665619D02*
X254928666Y-25618000D01*
X255023904Y-25570380D01*
X255262000Y-25570380D01*
X255357238Y-25618000D01*
X255404857Y-25665619D01*
X255452476Y-25760857D01*
X255452476Y-25856095D01*
X255404857Y-25998952D01*
X254833428Y-26570380D01*
X255452476Y-26570380D01*
X256309619Y-25903714D02*
X256309619Y-26570380D01*
X256071523Y-25522761D02*
X255833428Y-26237047D01*
X256452476Y-26237047D01*
X200191904Y-63162380D02*
X200763333Y-63162380D01*
X200477619Y-64162380D02*
X200477619Y-63162380D01*
X201096666Y-64162380D02*
X201096666Y-63162380D01*
X201477619Y-63162380D01*
X201572857Y-63210000D01*
X201620476Y-63257619D01*
X201668095Y-63352857D01*
X201668095Y-63495714D01*
X201620476Y-63590952D01*
X201572857Y-63638571D01*
X201477619Y-63686190D01*
X201096666Y-63686190D01*
X202049047Y-63257619D02*
X202096666Y-63210000D01*
X202191904Y-63162380D01*
X202430000Y-63162380D01*
X202525238Y-63210000D01*
X202572857Y-63257619D01*
X202620476Y-63352857D01*
X202620476Y-63448095D01*
X202572857Y-63590952D01*
X202001428Y-64162380D01*
X202620476Y-64162380D01*
X203525238Y-63162380D02*
X203049047Y-63162380D01*
X203001428Y-63638571D01*
X203049047Y-63590952D01*
X203144285Y-63543333D01*
X203382380Y-63543333D01*
X203477619Y-63590952D01*
X203525238Y-63638571D01*
X203572857Y-63733809D01*
X203572857Y-63971904D01*
X203525238Y-64067142D01*
X203477619Y-64114761D01*
X203382380Y-64162380D01*
X203144285Y-64162380D01*
X203049047Y-64114761D01*
X203001428Y-64067142D01*
X232957904Y-155872380D02*
X233529333Y-155872380D01*
X233243619Y-156872380D02*
X233243619Y-155872380D01*
X233862666Y-156872380D02*
X233862666Y-155872380D01*
X234243619Y-155872380D01*
X234338857Y-155920000D01*
X234386476Y-155967619D01*
X234434095Y-156062857D01*
X234434095Y-156205714D01*
X234386476Y-156300952D01*
X234338857Y-156348571D01*
X234243619Y-156396190D01*
X233862666Y-156396190D01*
X234815047Y-155967619D02*
X234862666Y-155920000D01*
X234957904Y-155872380D01*
X235196000Y-155872380D01*
X235291238Y-155920000D01*
X235338857Y-155967619D01*
X235386476Y-156062857D01*
X235386476Y-156158095D01*
X235338857Y-156300952D01*
X234767428Y-156872380D01*
X235386476Y-156872380D01*
X236243619Y-155872380D02*
X236053142Y-155872380D01*
X235957904Y-155920000D01*
X235910285Y-155967619D01*
X235815047Y-156110476D01*
X235767428Y-156300952D01*
X235767428Y-156681904D01*
X235815047Y-156777142D01*
X235862666Y-156824761D01*
X235957904Y-156872380D01*
X236148380Y-156872380D01*
X236243619Y-156824761D01*
X236291238Y-156777142D01*
X236338857Y-156681904D01*
X236338857Y-156443809D01*
X236291238Y-156348571D01*
X236243619Y-156300952D01*
X236148380Y-156253333D01*
X235957904Y-156253333D01*
X235862666Y-156300952D01*
X235815047Y-156348571D01*
X235767428Y-156443809D01*
X277661904Y-101262380D02*
X278233333Y-101262380D01*
X277947619Y-102262380D02*
X277947619Y-101262380D01*
X278566666Y-102262380D02*
X278566666Y-101262380D01*
X278947619Y-101262380D01*
X279042857Y-101310000D01*
X279090476Y-101357619D01*
X279138095Y-101452857D01*
X279138095Y-101595714D01*
X279090476Y-101690952D01*
X279042857Y-101738571D01*
X278947619Y-101786190D01*
X278566666Y-101786190D01*
X279519047Y-101357619D02*
X279566666Y-101310000D01*
X279661904Y-101262380D01*
X279900000Y-101262380D01*
X279995238Y-101310000D01*
X280042857Y-101357619D01*
X280090476Y-101452857D01*
X280090476Y-101548095D01*
X280042857Y-101690952D01*
X279471428Y-102262380D01*
X280090476Y-102262380D01*
X280423809Y-101262380D02*
X281090476Y-101262380D01*
X280661904Y-102262380D01*
X74461904Y-23792380D02*
X75033333Y-23792380D01*
X74747619Y-24792380D02*
X74747619Y-23792380D01*
X75366666Y-24792380D02*
X75366666Y-23792380D01*
X75747619Y-23792380D01*
X75842857Y-23840000D01*
X75890476Y-23887619D01*
X75938095Y-23982857D01*
X75938095Y-24125714D01*
X75890476Y-24220952D01*
X75842857Y-24268571D01*
X75747619Y-24316190D01*
X75366666Y-24316190D01*
X76271428Y-23792380D02*
X76890476Y-23792380D01*
X76557142Y-24173333D01*
X76700000Y-24173333D01*
X76795238Y-24220952D01*
X76842857Y-24268571D01*
X76890476Y-24363809D01*
X76890476Y-24601904D01*
X76842857Y-24697142D01*
X76795238Y-24744761D01*
X76700000Y-24792380D01*
X76414285Y-24792380D01*
X76319047Y-24744761D01*
X76271428Y-24697142D01*
X77271428Y-23887619D02*
X77319047Y-23840000D01*
X77414285Y-23792380D01*
X77652380Y-23792380D01*
X77747619Y-23840000D01*
X77795238Y-23887619D01*
X77842857Y-23982857D01*
X77842857Y-24078095D01*
X77795238Y-24220952D01*
X77223809Y-24792380D01*
X77842857Y-24792380D01*
X78271904Y-23792380D02*
X78843333Y-23792380D01*
X78557619Y-24792380D02*
X78557619Y-23792380D01*
X79176666Y-24792380D02*
X79176666Y-23792380D01*
X79557619Y-23792380D01*
X79652857Y-23840000D01*
X79700476Y-23887619D01*
X79748095Y-23982857D01*
X79748095Y-24125714D01*
X79700476Y-24220952D01*
X79652857Y-24268571D01*
X79557619Y-24316190D01*
X79176666Y-24316190D01*
X80081428Y-23792380D02*
X80700476Y-23792380D01*
X80367142Y-24173333D01*
X80510000Y-24173333D01*
X80605238Y-24220952D01*
X80652857Y-24268571D01*
X80700476Y-24363809D01*
X80700476Y-24601904D01*
X80652857Y-24697142D01*
X80605238Y-24744761D01*
X80510000Y-24792380D01*
X80224285Y-24792380D01*
X80129047Y-24744761D01*
X80081428Y-24697142D01*
X81033809Y-23792380D02*
X81652857Y-23792380D01*
X81319523Y-24173333D01*
X81462380Y-24173333D01*
X81557619Y-24220952D01*
X81605238Y-24268571D01*
X81652857Y-24363809D01*
X81652857Y-24601904D01*
X81605238Y-24697142D01*
X81557619Y-24744761D01*
X81462380Y-24792380D01*
X81176666Y-24792380D01*
X81081428Y-24744761D01*
X81033809Y-24697142D01*
X82081904Y-23792380D02*
X82653333Y-23792380D01*
X82367619Y-24792380D02*
X82367619Y-23792380D01*
X82986666Y-24792380D02*
X82986666Y-23792380D01*
X83367619Y-23792380D01*
X83462857Y-23840000D01*
X83510476Y-23887619D01*
X83558095Y-23982857D01*
X83558095Y-24125714D01*
X83510476Y-24220952D01*
X83462857Y-24268571D01*
X83367619Y-24316190D01*
X82986666Y-24316190D01*
X83891428Y-23792380D02*
X84510476Y-23792380D01*
X84177142Y-24173333D01*
X84320000Y-24173333D01*
X84415238Y-24220952D01*
X84462857Y-24268571D01*
X84510476Y-24363809D01*
X84510476Y-24601904D01*
X84462857Y-24697142D01*
X84415238Y-24744761D01*
X84320000Y-24792380D01*
X84034285Y-24792380D01*
X83939047Y-24744761D01*
X83891428Y-24697142D01*
X85367619Y-24125714D02*
X85367619Y-24792380D01*
X85129523Y-23744761D02*
X84891428Y-24459047D01*
X85510476Y-24459047D01*
X85891904Y-23792380D02*
X86463333Y-23792380D01*
X86177619Y-24792380D02*
X86177619Y-23792380D01*
X86796666Y-24792380D02*
X86796666Y-23792380D01*
X87177619Y-23792380D01*
X87272857Y-23840000D01*
X87320476Y-23887619D01*
X87368095Y-23982857D01*
X87368095Y-24125714D01*
X87320476Y-24220952D01*
X87272857Y-24268571D01*
X87177619Y-24316190D01*
X86796666Y-24316190D01*
X87701428Y-23792380D02*
X88320476Y-23792380D01*
X87987142Y-24173333D01*
X88130000Y-24173333D01*
X88225238Y-24220952D01*
X88272857Y-24268571D01*
X88320476Y-24363809D01*
X88320476Y-24601904D01*
X88272857Y-24697142D01*
X88225238Y-24744761D01*
X88130000Y-24792380D01*
X87844285Y-24792380D01*
X87749047Y-24744761D01*
X87701428Y-24697142D01*
X89225238Y-23792380D02*
X88749047Y-23792380D01*
X88701428Y-24268571D01*
X88749047Y-24220952D01*
X88844285Y-24173333D01*
X89082380Y-24173333D01*
X89177619Y-24220952D01*
X89225238Y-24268571D01*
X89272857Y-24363809D01*
X89272857Y-24601904D01*
X89225238Y-24697142D01*
X89177619Y-24744761D01*
X89082380Y-24792380D01*
X88844285Y-24792380D01*
X88749047Y-24744761D01*
X88701428Y-24697142D01*
X118657904Y-101516380D02*
X119229333Y-101516380D01*
X118943619Y-102516380D02*
X118943619Y-101516380D01*
X119562666Y-102516380D02*
X119562666Y-101516380D01*
X119943619Y-101516380D01*
X120038857Y-101564000D01*
X120086476Y-101611619D01*
X120134095Y-101706857D01*
X120134095Y-101849714D01*
X120086476Y-101944952D01*
X120038857Y-101992571D01*
X119943619Y-102040190D01*
X119562666Y-102040190D01*
X120467428Y-101516380D02*
X121086476Y-101516380D01*
X120753142Y-101897333D01*
X120896000Y-101897333D01*
X120991238Y-101944952D01*
X121038857Y-101992571D01*
X121086476Y-102087809D01*
X121086476Y-102325904D01*
X121038857Y-102421142D01*
X120991238Y-102468761D01*
X120896000Y-102516380D01*
X120610285Y-102516380D01*
X120515047Y-102468761D01*
X120467428Y-102421142D01*
X121943619Y-101516380D02*
X121753142Y-101516380D01*
X121657904Y-101564000D01*
X121610285Y-101611619D01*
X121515047Y-101754476D01*
X121467428Y-101944952D01*
X121467428Y-102325904D01*
X121515047Y-102421142D01*
X121562666Y-102468761D01*
X121657904Y-102516380D01*
X121848380Y-102516380D01*
X121943619Y-102468761D01*
X121991238Y-102421142D01*
X122038857Y-102325904D01*
X122038857Y-102087809D01*
X121991238Y-101992571D01*
X121943619Y-101944952D01*
X121848380Y-101897333D01*
X121657904Y-101897333D01*
X121562666Y-101944952D01*
X121515047Y-101992571D01*
X121467428Y-102087809D01*
X111799904Y-101262380D02*
X112371333Y-101262380D01*
X112085619Y-102262380D02*
X112085619Y-101262380D01*
X112704666Y-102262380D02*
X112704666Y-101262380D01*
X113085619Y-101262380D01*
X113180857Y-101310000D01*
X113228476Y-101357619D01*
X113276095Y-101452857D01*
X113276095Y-101595714D01*
X113228476Y-101690952D01*
X113180857Y-101738571D01*
X113085619Y-101786190D01*
X112704666Y-101786190D01*
X113609428Y-101262380D02*
X114228476Y-101262380D01*
X113895142Y-101643333D01*
X114038000Y-101643333D01*
X114133238Y-101690952D01*
X114180857Y-101738571D01*
X114228476Y-101833809D01*
X114228476Y-102071904D01*
X114180857Y-102167142D01*
X114133238Y-102214761D01*
X114038000Y-102262380D01*
X113752285Y-102262380D01*
X113657047Y-102214761D01*
X113609428Y-102167142D01*
X114561809Y-101262380D02*
X115228476Y-101262380D01*
X114799904Y-102262380D01*
X142787904Y-26122380D02*
X143359333Y-26122380D01*
X143073619Y-27122380D02*
X143073619Y-26122380D01*
X143692666Y-27122380D02*
X143692666Y-26122380D01*
X144073619Y-26122380D01*
X144168857Y-26170000D01*
X144216476Y-26217619D01*
X144264095Y-26312857D01*
X144264095Y-26455714D01*
X144216476Y-26550952D01*
X144168857Y-26598571D01*
X144073619Y-26646190D01*
X143692666Y-26646190D01*
X144597428Y-26122380D02*
X145216476Y-26122380D01*
X144883142Y-26503333D01*
X145026000Y-26503333D01*
X145121238Y-26550952D01*
X145168857Y-26598571D01*
X145216476Y-26693809D01*
X145216476Y-26931904D01*
X145168857Y-27027142D01*
X145121238Y-27074761D01*
X145026000Y-27122380D01*
X144740285Y-27122380D01*
X144645047Y-27074761D01*
X144597428Y-27027142D01*
X145692666Y-27122380D02*
X145883142Y-27122380D01*
X145978380Y-27074761D01*
X146026000Y-27027142D01*
X146121238Y-26884285D01*
X146168857Y-26693809D01*
X146168857Y-26312857D01*
X146121238Y-26217619D01*
X146073619Y-26170000D01*
X145978380Y-26122380D01*
X145787904Y-26122380D01*
X145692666Y-26170000D01*
X145645047Y-26217619D01*
X145597428Y-26312857D01*
X145597428Y-26550952D01*
X145645047Y-26646190D01*
X145692666Y-26693809D01*
X145787904Y-26741428D01*
X145978380Y-26741428D01*
X146073619Y-26693809D01*
X146121238Y-26646190D01*
X146168857Y-26550952D01*
X267335095Y-31837380D02*
X267335095Y-32646904D01*
X267382714Y-32742142D01*
X267430333Y-32789761D01*
X267525571Y-32837380D01*
X267716047Y-32837380D01*
X267811285Y-32789761D01*
X267858904Y-32742142D01*
X267906523Y-32646904D01*
X267906523Y-31837380D01*
X268906523Y-32837380D02*
X268335095Y-32837380D01*
X268620809Y-32837380D02*
X268620809Y-31837380D01*
X268525571Y-31980238D01*
X268430333Y-32075476D01*
X268335095Y-32123095D01*
X234696095Y-31837380D02*
X234696095Y-32646904D01*
X234743714Y-32742142D01*
X234791333Y-32789761D01*
X234886571Y-32837380D01*
X235077047Y-32837380D01*
X235172285Y-32789761D01*
X235219904Y-32742142D01*
X235267523Y-32646904D01*
X235267523Y-31837380D01*
X235696095Y-31932619D02*
X235743714Y-31885000D01*
X235838952Y-31837380D01*
X236077047Y-31837380D01*
X236172285Y-31885000D01*
X236219904Y-31932619D01*
X236267523Y-32027857D01*
X236267523Y-32123095D01*
X236219904Y-32265952D01*
X235648476Y-32837380D01*
X236267523Y-32837380D01*
X112268095Y-136612380D02*
X112268095Y-137421904D01*
X112315714Y-137517142D01*
X112363333Y-137564761D01*
X112458571Y-137612380D01*
X112649047Y-137612380D01*
X112744285Y-137564761D01*
X112791904Y-137517142D01*
X112839523Y-137421904D01*
X112839523Y-136612380D01*
X113791904Y-136612380D02*
X113315714Y-136612380D01*
X113268095Y-137088571D01*
X113315714Y-137040952D01*
X113410952Y-136993333D01*
X113649047Y-136993333D01*
X113744285Y-137040952D01*
X113791904Y-137088571D01*
X113839523Y-137183809D01*
X113839523Y-137421904D01*
X113791904Y-137517142D01*
X113744285Y-137564761D01*
X113649047Y-137612380D01*
X113410952Y-137612380D01*
X113315714Y-137564761D01*
X113268095Y-137517142D01*
X149098095Y-83272380D02*
X149098095Y-84081904D01*
X149145714Y-84177142D01*
X149193333Y-84224761D01*
X149288571Y-84272380D01*
X149479047Y-84272380D01*
X149574285Y-84224761D01*
X149621904Y-84177142D01*
X149669523Y-84081904D01*
X149669523Y-83272380D01*
X150288571Y-83700952D02*
X150193333Y-83653333D01*
X150145714Y-83605714D01*
X150098095Y-83510476D01*
X150098095Y-83462857D01*
X150145714Y-83367619D01*
X150193333Y-83320000D01*
X150288571Y-83272380D01*
X150479047Y-83272380D01*
X150574285Y-83320000D01*
X150621904Y-83367619D01*
X150669523Y-83462857D01*
X150669523Y-83510476D01*
X150621904Y-83605714D01*
X150574285Y-83653333D01*
X150479047Y-83700952D01*
X150288571Y-83700952D01*
X150193333Y-83748571D01*
X150145714Y-83796190D01*
X150098095Y-83891428D01*
X150098095Y-84081904D01*
X150145714Y-84177142D01*
X150193333Y-84224761D01*
X150288571Y-84272380D01*
X150479047Y-84272380D01*
X150574285Y-84224761D01*
X150621904Y-84177142D01*
X150669523Y-84081904D01*
X150669523Y-83891428D01*
X150621904Y-83796190D01*
X150574285Y-83748571D01*
X150479047Y-83700952D01*
X203358904Y-32726380D02*
X203358904Y-33535904D01*
X203406523Y-33631142D01*
X203454142Y-33678761D01*
X203549380Y-33726380D01*
X203739857Y-33726380D01*
X203835095Y-33678761D01*
X203882714Y-33631142D01*
X203930333Y-33535904D01*
X203930333Y-32726380D01*
X204930333Y-33726380D02*
X204358904Y-33726380D01*
X204644619Y-33726380D02*
X204644619Y-32726380D01*
X204549380Y-32869238D01*
X204454142Y-32964476D01*
X204358904Y-33012095D01*
X205311285Y-32821619D02*
X205358904Y-32774000D01*
X205454142Y-32726380D01*
X205692238Y-32726380D01*
X205787476Y-32774000D01*
X205835095Y-32821619D01*
X205882714Y-32916857D01*
X205882714Y-33012095D01*
X205835095Y-33154952D01*
X205263666Y-33726380D01*
X205882714Y-33726380D01*
X229401619Y-141481255D02*
X228592095Y-141481255D01*
X228496857Y-141528874D01*
X228449238Y-141576493D01*
X228401619Y-141671731D01*
X228401619Y-141862208D01*
X228449238Y-141957446D01*
X228496857Y-142005065D01*
X228592095Y-142052684D01*
X229401619Y-142052684D01*
X228401619Y-143052684D02*
X228401619Y-142481255D01*
X228401619Y-142766970D02*
X229401619Y-142766970D01*
X229258761Y-142671731D01*
X229163523Y-142576493D01*
X229115904Y-142481255D01*
X229401619Y-143386017D02*
X229401619Y-144005065D01*
X229020666Y-143671731D01*
X229020666Y-143814589D01*
X228973047Y-143909827D01*
X228925428Y-143957446D01*
X228830190Y-144005065D01*
X228592095Y-144005065D01*
X228496857Y-143957446D01*
X228449238Y-143909827D01*
X228401619Y-143814589D01*
X228401619Y-143528874D01*
X228449238Y-143433636D01*
X228496857Y-143386017D01*
X229147619Y-115982904D02*
X228338095Y-115982904D01*
X228242857Y-116030523D01*
X228195238Y-116078142D01*
X228147619Y-116173380D01*
X228147619Y-116363857D01*
X228195238Y-116459095D01*
X228242857Y-116506714D01*
X228338095Y-116554333D01*
X229147619Y-116554333D01*
X228147619Y-117554333D02*
X228147619Y-116982904D01*
X228147619Y-117268619D02*
X229147619Y-117268619D01*
X229004761Y-117173380D01*
X228909523Y-117078142D01*
X228861904Y-116982904D01*
X228814285Y-118411476D02*
X228147619Y-118411476D01*
X229195238Y-118173380D02*
X228480952Y-117935285D01*
X228480952Y-118554333D01*
X220222380Y-30551333D02*
X220936666Y-30551333D01*
X221079523Y-30598952D01*
X221174761Y-30694190D01*
X221222380Y-30837047D01*
X221222380Y-30932285D01*
X221222380Y-30075142D02*
X220222380Y-30075142D01*
X220222380Y-29694190D01*
X220270000Y-29598952D01*
X220317619Y-29551333D01*
X220412857Y-29503714D01*
X220555714Y-29503714D01*
X220650952Y-29551333D01*
X220698571Y-29598952D01*
X220746190Y-29694190D01*
X220746190Y-30075142D01*
X220222380Y-29170380D02*
X220222380Y-28503714D01*
X221222380Y-28932285D01*
X135421904Y-27602380D02*
X135993333Y-27602380D01*
X135707619Y-28602380D02*
X135707619Y-27602380D01*
X136326666Y-28602380D02*
X136326666Y-27602380D01*
X136707619Y-27602380D01*
X136802857Y-27650000D01*
X136850476Y-27697619D01*
X136898095Y-27792857D01*
X136898095Y-27935714D01*
X136850476Y-28030952D01*
X136802857Y-28078571D01*
X136707619Y-28126190D01*
X136326666Y-28126190D01*
X137755238Y-27935714D02*
X137755238Y-28602380D01*
X137517142Y-27554761D02*
X137279047Y-28269047D01*
X137898095Y-28269047D01*
X138707619Y-27935714D02*
X138707619Y-28602380D01*
X138469523Y-27554761D02*
X138231428Y-28269047D01*
X138850476Y-28269047D01*
X137199904Y-26122380D02*
X137771333Y-26122380D01*
X137485619Y-27122380D02*
X137485619Y-26122380D01*
X138104666Y-27122380D02*
X138104666Y-26122380D01*
X138485619Y-26122380D01*
X138580857Y-26170000D01*
X138628476Y-26217619D01*
X138676095Y-26312857D01*
X138676095Y-26455714D01*
X138628476Y-26550952D01*
X138580857Y-26598571D01*
X138485619Y-26646190D01*
X138104666Y-26646190D01*
X139533238Y-26455714D02*
X139533238Y-27122380D01*
X139295142Y-26074761D02*
X139057047Y-26789047D01*
X139676095Y-26789047D01*
X140533238Y-26122380D02*
X140057047Y-26122380D01*
X140009428Y-26598571D01*
X140057047Y-26550952D01*
X140152285Y-26503333D01*
X140390380Y-26503333D01*
X140485619Y-26550952D01*
X140533238Y-26598571D01*
X140580857Y-26693809D01*
X140580857Y-26931904D01*
X140533238Y-27027142D01*
X140485619Y-27074761D01*
X140390380Y-27122380D01*
X140152285Y-27122380D01*
X140057047Y-27074761D01*
X140009428Y-27027142D01*
X66802095Y-107910380D02*
X66802095Y-108719904D01*
X66849714Y-108815142D01*
X66897333Y-108862761D01*
X66992571Y-108910380D01*
X67183047Y-108910380D01*
X67278285Y-108862761D01*
X67325904Y-108815142D01*
X67373523Y-108719904D01*
X67373523Y-107910380D01*
X67754476Y-107910380D02*
X68373523Y-107910380D01*
X68040190Y-108291333D01*
X68183047Y-108291333D01*
X68278285Y-108338952D01*
X68325904Y-108386571D01*
X68373523Y-108481809D01*
X68373523Y-108719904D01*
X68325904Y-108815142D01*
X68278285Y-108862761D01*
X68183047Y-108910380D01*
X67897333Y-108910380D01*
X67802095Y-108862761D01*
X67754476Y-108815142D01*
X127801904Y-69004380D02*
X128373333Y-69004380D01*
X128087619Y-70004380D02*
X128087619Y-69004380D01*
X128706666Y-70004380D02*
X128706666Y-69004380D01*
X129087619Y-69004380D01*
X129182857Y-69052000D01*
X129230476Y-69099619D01*
X129278095Y-69194857D01*
X129278095Y-69337714D01*
X129230476Y-69432952D01*
X129182857Y-69480571D01*
X129087619Y-69528190D01*
X128706666Y-69528190D01*
X130230476Y-70004380D02*
X129659047Y-70004380D01*
X129944761Y-70004380D02*
X129944761Y-69004380D01*
X129849523Y-69147238D01*
X129754285Y-69242476D01*
X129659047Y-69290095D01*
X131182857Y-70004380D02*
X130611428Y-70004380D01*
X130897142Y-70004380D02*
X130897142Y-69004380D01*
X130801904Y-69147238D01*
X130706666Y-69242476D01*
X130611428Y-69290095D01*
X42457904Y-24808380D02*
X43029333Y-24808380D01*
X42743619Y-25808380D02*
X42743619Y-24808380D01*
X43362666Y-25808380D02*
X43362666Y-24808380D01*
X43743619Y-24808380D01*
X43838857Y-24856000D01*
X43886476Y-24903619D01*
X43934095Y-24998857D01*
X43934095Y-25141714D01*
X43886476Y-25236952D01*
X43838857Y-25284571D01*
X43743619Y-25332190D01*
X43362666Y-25332190D01*
X44886476Y-25808380D02*
X44315047Y-25808380D01*
X44600761Y-25808380D02*
X44600761Y-24808380D01*
X44505523Y-24951238D01*
X44410285Y-25046476D01*
X44315047Y-25094095D01*
X45267428Y-24903619D02*
X45315047Y-24856000D01*
X45410285Y-24808380D01*
X45648380Y-24808380D01*
X45743619Y-24856000D01*
X45791238Y-24903619D01*
X45838857Y-24998857D01*
X45838857Y-25094095D01*
X45791238Y-25236952D01*
X45219809Y-25808380D01*
X45838857Y-25808380D01*
X43219904Y-98722380D02*
X43791333Y-98722380D01*
X43505619Y-99722380D02*
X43505619Y-98722380D01*
X44124666Y-99722380D02*
X44124666Y-98722380D01*
X44505619Y-98722380D01*
X44600857Y-98770000D01*
X44648476Y-98817619D01*
X44696095Y-98912857D01*
X44696095Y-99055714D01*
X44648476Y-99150952D01*
X44600857Y-99198571D01*
X44505619Y-99246190D01*
X44124666Y-99246190D01*
X45648476Y-99722380D02*
X45077047Y-99722380D01*
X45362761Y-99722380D02*
X45362761Y-98722380D01*
X45267523Y-98865238D01*
X45172285Y-98960476D01*
X45077047Y-99008095D01*
X45981809Y-98722380D02*
X46600857Y-98722380D01*
X46267523Y-99103333D01*
X46410380Y-99103333D01*
X46505619Y-99150952D01*
X46553238Y-99198571D01*
X46600857Y-99293809D01*
X46600857Y-99531904D01*
X46553238Y-99627142D01*
X46505619Y-99674761D01*
X46410380Y-99722380D01*
X46124666Y-99722380D01*
X46029428Y-99674761D01*
X45981809Y-99627142D01*
X140501904Y-27602380D02*
X141073333Y-27602380D01*
X140787619Y-28602380D02*
X140787619Y-27602380D01*
X141406666Y-28602380D02*
X141406666Y-27602380D01*
X141787619Y-27602380D01*
X141882857Y-27650000D01*
X141930476Y-27697619D01*
X141978095Y-27792857D01*
X141978095Y-27935714D01*
X141930476Y-28030952D01*
X141882857Y-28078571D01*
X141787619Y-28126190D01*
X141406666Y-28126190D01*
X142930476Y-28602380D02*
X142359047Y-28602380D01*
X142644761Y-28602380D02*
X142644761Y-27602380D01*
X142549523Y-27745238D01*
X142454285Y-27840476D01*
X142359047Y-27888095D01*
X143406666Y-28602380D02*
X143597142Y-28602380D01*
X143692380Y-28554761D01*
X143740000Y-28507142D01*
X143835238Y-28364285D01*
X143882857Y-28173809D01*
X143882857Y-27792857D01*
X143835238Y-27697619D01*
X143787619Y-27650000D01*
X143692380Y-27602380D01*
X143501904Y-27602380D01*
X143406666Y-27650000D01*
X143359047Y-27697619D01*
X143311428Y-27792857D01*
X143311428Y-28030952D01*
X143359047Y-28126190D01*
X143406666Y-28173809D01*
X143501904Y-28221428D01*
X143692380Y-28221428D01*
X143787619Y-28173809D01*
X143835238Y-28126190D01*
X143882857Y-28030952D01*
X172886904Y-121880380D02*
X173458333Y-121880380D01*
X173172619Y-122880380D02*
X173172619Y-121880380D01*
X173791666Y-122880380D02*
X173791666Y-121880380D01*
X174172619Y-121880380D01*
X174267857Y-121928000D01*
X174315476Y-121975619D01*
X174363095Y-122070857D01*
X174363095Y-122213714D01*
X174315476Y-122308952D01*
X174267857Y-122356571D01*
X174172619Y-122404190D01*
X173791666Y-122404190D01*
X174744047Y-121975619D02*
X174791666Y-121928000D01*
X174886904Y-121880380D01*
X175125000Y-121880380D01*
X175220238Y-121928000D01*
X175267857Y-121975619D01*
X175315476Y-122070857D01*
X175315476Y-122166095D01*
X175267857Y-122308952D01*
X174696428Y-122880380D01*
X175315476Y-122880380D01*
X175886904Y-122308952D02*
X175791666Y-122261333D01*
X175744047Y-122213714D01*
X175696428Y-122118476D01*
X175696428Y-122070857D01*
X175744047Y-121975619D01*
X175791666Y-121928000D01*
X175886904Y-121880380D01*
X176077380Y-121880380D01*
X176172619Y-121928000D01*
X176220238Y-121975619D01*
X176267857Y-122070857D01*
X176267857Y-122118476D01*
X176220238Y-122213714D01*
X176172619Y-122261333D01*
X176077380Y-122308952D01*
X175886904Y-122308952D01*
X175791666Y-122356571D01*
X175744047Y-122404190D01*
X175696428Y-122499428D01*
X175696428Y-122689904D01*
X175744047Y-122785142D01*
X175791666Y-122832761D01*
X175886904Y-122880380D01*
X176077380Y-122880380D01*
X176172619Y-122832761D01*
X176220238Y-122785142D01*
X176267857Y-122689904D01*
X176267857Y-122499428D01*
X176220238Y-122404190D01*
X176172619Y-122356571D01*
X176077380Y-122308952D01*
X290361904Y-101262380D02*
X290933333Y-101262380D01*
X290647619Y-102262380D02*
X290647619Y-101262380D01*
X291266666Y-102262380D02*
X291266666Y-101262380D01*
X291647619Y-101262380D01*
X291742857Y-101310000D01*
X291790476Y-101357619D01*
X291838095Y-101452857D01*
X291838095Y-101595714D01*
X291790476Y-101690952D01*
X291742857Y-101738571D01*
X291647619Y-101786190D01*
X291266666Y-101786190D01*
X292219047Y-101357619D02*
X292266666Y-101310000D01*
X292361904Y-101262380D01*
X292600000Y-101262380D01*
X292695238Y-101310000D01*
X292742857Y-101357619D01*
X292790476Y-101452857D01*
X292790476Y-101548095D01*
X292742857Y-101690952D01*
X292171428Y-102262380D01*
X292790476Y-102262380D01*
X293266666Y-102262380D02*
X293457142Y-102262380D01*
X293552380Y-102214761D01*
X293600000Y-102167142D01*
X293695238Y-102024285D01*
X293742857Y-101833809D01*
X293742857Y-101452857D01*
X293695238Y-101357619D01*
X293647619Y-101310000D01*
X293552380Y-101262380D01*
X293361904Y-101262380D01*
X293266666Y-101310000D01*
X293219047Y-101357619D01*
X293171428Y-101452857D01*
X293171428Y-101690952D01*
X293219047Y-101786190D01*
X293266666Y-101833809D01*
X293361904Y-101881428D01*
X293552380Y-101881428D01*
X293647619Y-101833809D01*
X293695238Y-101786190D01*
X293742857Y-101690952D01*
X219749904Y-61384380D02*
X220321333Y-61384380D01*
X220035619Y-62384380D02*
X220035619Y-61384380D01*
X220654666Y-62384380D02*
X220654666Y-61384380D01*
X221035619Y-61384380D01*
X221130857Y-61432000D01*
X221178476Y-61479619D01*
X221226095Y-61574857D01*
X221226095Y-61717714D01*
X221178476Y-61812952D01*
X221130857Y-61860571D01*
X221035619Y-61908190D01*
X220654666Y-61908190D01*
X221559428Y-61384380D02*
X222178476Y-61384380D01*
X221845142Y-61765333D01*
X221988000Y-61765333D01*
X222083238Y-61812952D01*
X222130857Y-61860571D01*
X222178476Y-61955809D01*
X222178476Y-62193904D01*
X222130857Y-62289142D01*
X222083238Y-62336761D01*
X221988000Y-62384380D01*
X221702285Y-62384380D01*
X221607047Y-62336761D01*
X221559428Y-62289142D01*
X222797523Y-61384380D02*
X222892761Y-61384380D01*
X222988000Y-61432000D01*
X223035619Y-61479619D01*
X223083238Y-61574857D01*
X223130857Y-61765333D01*
X223130857Y-62003428D01*
X223083238Y-62193904D01*
X223035619Y-62289142D01*
X222988000Y-62336761D01*
X222892761Y-62384380D01*
X222797523Y-62384380D01*
X222702285Y-62336761D01*
X222654666Y-62289142D01*
X222607047Y-62193904D01*
X222559428Y-62003428D01*
X222559428Y-61765333D01*
X222607047Y-61574857D01*
X222654666Y-61479619D01*
X222702285Y-61432000D01*
X222797523Y-61384380D01*
X187491904Y-63797380D02*
X188063333Y-63797380D01*
X187777619Y-64797380D02*
X187777619Y-63797380D01*
X188396666Y-64797380D02*
X188396666Y-63797380D01*
X188777619Y-63797380D01*
X188872857Y-63845000D01*
X188920476Y-63892619D01*
X188968095Y-63987857D01*
X188968095Y-64130714D01*
X188920476Y-64225952D01*
X188872857Y-64273571D01*
X188777619Y-64321190D01*
X188396666Y-64321190D01*
X189301428Y-63797380D02*
X189920476Y-63797380D01*
X189587142Y-64178333D01*
X189730000Y-64178333D01*
X189825238Y-64225952D01*
X189872857Y-64273571D01*
X189920476Y-64368809D01*
X189920476Y-64606904D01*
X189872857Y-64702142D01*
X189825238Y-64749761D01*
X189730000Y-64797380D01*
X189444285Y-64797380D01*
X189349047Y-64749761D01*
X189301428Y-64702142D01*
X190872857Y-64797380D02*
X190301428Y-64797380D01*
X190587142Y-64797380D02*
X190587142Y-63797380D01*
X190491904Y-63940238D01*
X190396666Y-64035476D01*
X190301428Y-64083095D01*
X300017380Y-51633333D02*
X300731666Y-51633333D01*
X300874523Y-51680952D01*
X300969761Y-51776190D01*
X301017380Y-51919047D01*
X301017380Y-52014285D01*
X301017380Y-51157142D02*
X300017380Y-51157142D01*
X300017380Y-50776190D01*
X300065000Y-50680952D01*
X300112619Y-50633333D01*
X300207857Y-50585714D01*
X300350714Y-50585714D01*
X300445952Y-50633333D01*
X300493571Y-50680952D01*
X300541190Y-50776190D01*
X300541190Y-51157142D01*
X300445952Y-50014285D02*
X300398333Y-50109523D01*
X300350714Y-50157142D01*
X300255476Y-50204761D01*
X300207857Y-50204761D01*
X300112619Y-50157142D01*
X300065000Y-50109523D01*
X300017380Y-50014285D01*
X300017380Y-49823809D01*
X300065000Y-49728571D01*
X300112619Y-49680952D01*
X300207857Y-49633333D01*
X300255476Y-49633333D01*
X300350714Y-49680952D01*
X300398333Y-49728571D01*
X300445952Y-49823809D01*
X300445952Y-50014285D01*
X300493571Y-50109523D01*
X300541190Y-50157142D01*
X300636428Y-50204761D01*
X300826904Y-50204761D01*
X300922142Y-50157142D01*
X300969761Y-50109523D01*
X301017380Y-50014285D01*
X301017380Y-49823809D01*
X300969761Y-49728571D01*
X300922142Y-49680952D01*
X300826904Y-49633333D01*
X300636428Y-49633333D01*
X300541190Y-49680952D01*
X300493571Y-49728571D01*
X300445952Y-49823809D01*
X115236666Y-130032380D02*
X115236666Y-130746666D01*
X115189047Y-130889523D01*
X115093809Y-130984761D01*
X114950952Y-131032380D01*
X114855714Y-131032380D01*
X116189047Y-130032380D02*
X115712857Y-130032380D01*
X115665238Y-130508571D01*
X115712857Y-130460952D01*
X115808095Y-130413333D01*
X116046190Y-130413333D01*
X116141428Y-130460952D01*
X116189047Y-130508571D01*
X116236666Y-130603809D01*
X116236666Y-130841904D01*
X116189047Y-130937142D01*
X116141428Y-130984761D01*
X116046190Y-131032380D01*
X115808095Y-131032380D01*
X115712857Y-130984761D01*
X115665238Y-130937142D01*
X28384666Y-89152761D02*
X28527523Y-89200380D01*
X28765619Y-89200380D01*
X28860857Y-89152761D01*
X28908476Y-89105142D01*
X28956095Y-89009904D01*
X28956095Y-88914666D01*
X28908476Y-88819428D01*
X28860857Y-88771809D01*
X28765619Y-88724190D01*
X28575142Y-88676571D01*
X28479904Y-88628952D01*
X28432285Y-88581333D01*
X28384666Y-88486095D01*
X28384666Y-88390857D01*
X28432285Y-88295619D01*
X28479904Y-88248000D01*
X28575142Y-88200380D01*
X28813238Y-88200380D01*
X28956095Y-88248000D01*
X29289428Y-88200380D02*
X29527523Y-89200380D01*
X29718000Y-88486095D01*
X29908476Y-89200380D01*
X30146571Y-88200380D01*
X31051333Y-89200380D02*
X30479904Y-89200380D01*
X30765619Y-89200380D02*
X30765619Y-88200380D01*
X30670380Y-88343238D01*
X30575142Y-88438476D01*
X30479904Y-88486095D01*
X28384666Y-100836761D02*
X28527523Y-100884380D01*
X28765619Y-100884380D01*
X28860857Y-100836761D01*
X28908476Y-100789142D01*
X28956095Y-100693904D01*
X28956095Y-100598666D01*
X28908476Y-100503428D01*
X28860857Y-100455809D01*
X28765619Y-100408190D01*
X28575142Y-100360571D01*
X28479904Y-100312952D01*
X28432285Y-100265333D01*
X28384666Y-100170095D01*
X28384666Y-100074857D01*
X28432285Y-99979619D01*
X28479904Y-99932000D01*
X28575142Y-99884380D01*
X28813238Y-99884380D01*
X28956095Y-99932000D01*
X29289428Y-99884380D02*
X29527523Y-100884380D01*
X29718000Y-100170095D01*
X29908476Y-100884380D01*
X30146571Y-99884380D01*
X30479904Y-99979619D02*
X30527523Y-99932000D01*
X30622761Y-99884380D01*
X30860857Y-99884380D01*
X30956095Y-99932000D01*
X31003714Y-99979619D01*
X31051333Y-100074857D01*
X31051333Y-100170095D01*
X31003714Y-100312952D01*
X30432285Y-100884380D01*
X31051333Y-100884380D01*
X159111666Y-118054380D02*
X159111666Y-118768666D01*
X159064047Y-118911523D01*
X158968809Y-119006761D01*
X158825952Y-119054380D01*
X158730714Y-119054380D01*
X160016428Y-118054380D02*
X159825952Y-118054380D01*
X159730714Y-118102000D01*
X159683095Y-118149619D01*
X159587857Y-118292476D01*
X159540238Y-118482952D01*
X159540238Y-118863904D01*
X159587857Y-118959142D01*
X159635476Y-119006761D01*
X159730714Y-119054380D01*
X159921190Y-119054380D01*
X160016428Y-119006761D01*
X160064047Y-118959142D01*
X160111666Y-118863904D01*
X160111666Y-118625809D01*
X160064047Y-118530571D01*
X160016428Y-118482952D01*
X159921190Y-118435333D01*
X159730714Y-118435333D01*
X159635476Y-118482952D01*
X159587857Y-118530571D01*
X159540238Y-118625809D01*
X58634476Y-84498380D02*
X58634476Y-85212666D01*
X58586857Y-85355523D01*
X58491619Y-85450761D01*
X58348761Y-85498380D01*
X58253523Y-85498380D01*
X59110666Y-85498380D02*
X59110666Y-84498380D01*
X59491619Y-84498380D01*
X59586857Y-84546000D01*
X59634476Y-84593619D01*
X59682095Y-84688857D01*
X59682095Y-84831714D01*
X59634476Y-84926952D01*
X59586857Y-84974571D01*
X59491619Y-85022190D01*
X59110666Y-85022190D01*
X60063047Y-84593619D02*
X60110666Y-84546000D01*
X60205904Y-84498380D01*
X60444000Y-84498380D01*
X60539238Y-84546000D01*
X60586857Y-84593619D01*
X60634476Y-84688857D01*
X60634476Y-84784095D01*
X60586857Y-84926952D01*
X60015428Y-85498380D01*
X60634476Y-85498380D01*
X61253523Y-84498380D02*
X61348761Y-84498380D01*
X61444000Y-84546000D01*
X61491619Y-84593619D01*
X61539238Y-84688857D01*
X61586857Y-84879333D01*
X61586857Y-85117428D01*
X61539238Y-85307904D01*
X61491619Y-85403142D01*
X61444000Y-85450761D01*
X61348761Y-85498380D01*
X61253523Y-85498380D01*
X61158285Y-85450761D01*
X61110666Y-85403142D01*
X61063047Y-85307904D01*
X61015428Y-85117428D01*
X61015428Y-84879333D01*
X61063047Y-84688857D01*
X61110666Y-84593619D01*
X61158285Y-84546000D01*
X61253523Y-84498380D01*
X62952476Y-84498380D02*
X62952476Y-85212666D01*
X62904857Y-85355523D01*
X62809619Y-85450761D01*
X62666761Y-85498380D01*
X62571523Y-85498380D01*
X63428666Y-85498380D02*
X63428666Y-84498380D01*
X63809619Y-84498380D01*
X63904857Y-84546000D01*
X63952476Y-84593619D01*
X64000095Y-84688857D01*
X64000095Y-84831714D01*
X63952476Y-84926952D01*
X63904857Y-84974571D01*
X63809619Y-85022190D01*
X63428666Y-85022190D01*
X64381047Y-84593619D02*
X64428666Y-84546000D01*
X64523904Y-84498380D01*
X64762000Y-84498380D01*
X64857238Y-84546000D01*
X64904857Y-84593619D01*
X64952476Y-84688857D01*
X64952476Y-84784095D01*
X64904857Y-84926952D01*
X64333428Y-85498380D01*
X64952476Y-85498380D01*
X65904857Y-85498380D02*
X65333428Y-85498380D01*
X65619142Y-85498380D02*
X65619142Y-84498380D01*
X65523904Y-84641238D01*
X65428666Y-84736476D01*
X65333428Y-84784095D01*
M02*
